SplineFontDB: 3.0
FontName: Italiana-Regular
FullName: Italiana
FamilyName: Italiana
Weight: Book
Copyright: Copyright (c) 2011 by Santiago Orozco (hi@typemade.mx) with reserved name Italiana
Version: 001.001
ItalicAngle: 0
UnderlinePosition: -50
UnderlineWidth: 50
Ascent: 800
Descent: 200
sfntRevision: 0x00010000
LayerCount: 2
Layer: 0 1 "Back"  1
Layer: 1 1 "Fore"  0
XUID: [1021 209 548631020 14586543]
FSType: 0
OS2Version: 2
OS2_WeightWidthSlopeOnly: 0
OS2_UseTypoMetrics: 1
CreationTime: 1324138709
ModificationTime: 1331499948
PfmFamily: 81
TTFWeight: 400
TTFWidth: 5
LineGap: 0
VLineGap: 0
Panose: 0 0 0 0 0 0 0 0 0 0
OS2TypoAscent: 128
OS2TypoAOffset: 1
OS2TypoDescent: -50
OS2TypoDOffset: 1
OS2TypoLinegap: 0
OS2WinAscent: 0
OS2WinAOffset: 1
OS2WinDescent: 0
OS2WinDOffset: 1
HheadAscent: 0
HheadAOffset: 1
HheadDescent: 0
HheadDOffset: 1
OS2SubXSize: 700
OS2SubYSize: 650
OS2SubXOff: 0
OS2SubYOff: 140
OS2SupXSize: 700
OS2SupYSize: 650
OS2SupXOff: 0
OS2SupYOff: 477
OS2StrikeYSize: 50
OS2StrikeYPos: 250
OS2Vendor: 'pyrs'
OS2CodePages: 00000001.00000000
OS2UnicodeRanges: 80000027.00000008.00000000.00000000
Lookup: 258 0 0 "'kern' Horizontal Kerning in Latin lookup 0"  {"'kern' Horizontal Kerning in Latin lookup 0 per glyph data 0"  "'kern' Horizontal Kerning in Latin lookup 0 per glyph data 1"  "'kern' Horizontal Kerning in Latin lookup 0 kerning class 2"  } ['kern' ('latn' <'dflt' > ) ]
DEI: 91125
KernClass2: 20+ 16 "'kern' Horizontal Kerning in Latin lookup 0 kerning class 2" 
 50 A Agrave Aacute Acircumflex Atilde Adieresis Aring
 10 C Ccedilla
 5 D Eth
 37 E Egrave Eacute Ecircumflex Edieresis
 10 H N Ntilde
 37 I Igrave Iacute Icircumflex Idieresis
 46 O Q Ograve Oacute Ocircumflex Otilde Odieresis
 37 U Ugrave Uacute Ucircumflex Udieresis
 18 Y Yacute Ydieresis
 54 a h m agrave aacute acircumflex atilde adieresis aring
 9 b p thorn
 10 c ccedilla
 68 one d i l igrave iacute ugrave uacute ucircumflex udieresis dotlessi
 40 e ae egrave eacute ecircumflex edieresis

StartChar: exclam
Encoding: 33 33 4
Width: 282
GlyphClass: 2
Flags: W
LayerCount: 2
Fore
SplineSet
107 750 m 1,0,-1
 177 750 l 1,1,-1
 157 225 l 1,2,-1
 127 225 l 1,3,-1
 107 750 l 1,0,-1
101 83 m 128,-1,5
 101 101 101 101 113 113 c 128,-1,6
 125 125 125 125 143 125 c 128,-1,7
 161 125 161 125 173.5 113 c 128,-1,8
 186 101 186 101 186 83 c 128,-1,9
 186 65 186 65 173.5 52.5 c 128,-1,10
 161 40 161 40 143 40 c 128,-1,11
 125 40 125 40 113 52.5 c 128,-1,4
 101 65 101 65 101 83 c 128,-1,5
EndSplineSet
EndChar

StartChar: quotedbl
Encoding: 34 34 5
Width: 324
GlyphClass: 2
Flags: W
LayerCount: 2
Fore
SplineSet
88 748 m 1,0,-1
 120 750 l 1,1,-1
 105 567 l 1,2,-1
 92 567 l 1,3,-1
 88 748 l 1,0,-1
208 748 m 1,4,-1
 240 750 l 1,5,-1
 225 567 l 1,6,-1
 212 567 l 1,7,-1
 208 748 l 1,4,-1
EndSplineSet
EndChar

StartChar: numbersign
Encoding: 35 35 6
Width: 600
GlyphClass: 2
Flags: W
LayerCount: 2
Fore
SplineSet
68 483 m 1,0,-1
 69 491 l 1,1,-1
 162 491 l 1,2,-1
 199 700 l 1,3,-1
 279 700 l 1,4,-1
 242 491 l 1,5,-1
 364 491 l 1,6,-1
 401 700 l 1,7,-1
 481 700 l 1,8,-1
 444 491 l 1,9,-1
 560 491 l 1,10,-1
 559 483 l 1,11,-1
 443 483 l 1,12,-1
 404 262 l 1,13,-1
 520 262 l 1,14,-1
 519 254 l 1,15,-1
 402 254 l 1,16,-1
 360 11 l 1,17,-1
 280 11 l 1,18,-1
 322 254 l 1,19,-1
 200 254 l 1,20,-1
 158 11 l 1,21,-1
 78 11 l 1,22,-1
 120 254 l 1,23,-1
 28 254 l 1,24,-1
 29 262 l 1,25,-1
 122 262 l 1,26,-1
 161 483 l 1,27,-1
 68 483 l 1,0,-1
241 483 m 1,28,-1
 202 262 l 1,29,-1
 324 262 l 1,30,-1
 363 483 l 1,31,-1
 241 483 l 1,28,-1
EndSplineSet
EndChar

StartChar: dollar
Encoding: 36 36 7
Width: 583
GlyphClass: 2
Flags: W
LayerCount: 2
Fore
SplineSet
308 -59 m 1,0,-1
 298 -59 l 1,1,-1
 298 -1 l 1,2,-1
 285 -1 l 2,3,4
 162 -1 162 -1 75 60 c 1,5,-1
 80 68 l 1,6,7
 113 43 113 43 165.5 26 c 128,-1,8
 218 9 218 9 253 9 c 128,-1,9
 288 9 288 9 298 10 c 1,10,-1
 298 261 l 1,11,12
 264 272 264 272 253.5 276 c 128,-1,13
 243 280 243 280 212.5 291.5 c 128,-1,14
 182 303 182 303 170.5 311 c 128,-1,15
 159 319 159 319 138 334 c 128,-1,16
 117 349 117 349 109 364 c 0,17,18
 86 405 86 405 86 444 c 0,19,20
 86 510 86 510 135 556 c 128,-1,21
 184 602 184 602 281 602 c 2,22,-1
 298 602 l 1,23,-1
 298 699 l 1,24,-1
 308 699 l 1,25,-1
 308 601 l 1,26,27
 395 597 395 597 483 568 c 1,28,-1
 479 558 l 1,29,30
 397 589 397 589 308 593 c 1,31,-1
 308 329 l 1,32,33
 350 315 350 315 370.5 307.5 c 128,-1,34
 391 300 391 300 425 282.5 c 128,-1,35
 459 265 459 265 476 248 c 0,36,37
 520 202 520 202 520 135.5 c 128,-1,38
 520 69 520 69 460.5 36 c 128,-1,39
 401 3 401 3 308 0 c 1,40,-1
 308 -59 l 1,0,-1
187 380 m 0,41,42
 226 356 226 356 298 332 c 1,43,-1
 298 593 l 1,44,45
 226 591 226 591 181.5 558 c 128,-1,46
 137 525 137 525 137 468 c 128,-1,47
 137 411 137 411 187 380 c 0,41,42
424 39 m 128,-1,49
 469 63 469 63 469 115 c 128,-1,50
 469 167 469 167 427.5 198.5 c 128,-1,51
 386 230 386 230 308 257 c 1,52,-1
 308 10 l 1,53,48
 379 15 379 15 424 39 c 128,-1,49
EndSplineSet
EndChar

StartChar: percent
Encoding: 37 37 8
Width: 653
GlyphClass: 2
Flags: W
LayerCount: 2
Fore
SplineSet
490 500 m 1,0,-1
 500 500 l 1,1,-1
 150 0 l 1,2,-1
 140 0 l 1,3,-1
 490 500 l 1,0,-1
70 400 m 0,4,5
 70 441 70 441 108 470.5 c 128,-1,6
 146 500 146 500 200 500 c 0,7,8
 330 500 330 500 330 400 c 0,9,10
 330 359 330 359 291.5 329.5 c 128,-1,11
 253 300 253 300 200 300 c 0,12,13
 70 300 70 300 70 400 c 0,4,5
150.5 465 m 128,-1,15
 130 438 130 438 130 396.5 c 128,-1,16
 130 355 130 355 149.5 331.5 c 128,-1,17
 169 308 169 308 199 308 c 128,-1,18
 229 308 229 308 249.5 335 c 128,-1,19
 270 362 270 362 270 403.5 c 128,-1,20
 270 445 270 445 250 468.5 c 128,-1,21
 230 492 230 492 200.5 492 c 128,-1,14
 171 492 171 492 150.5 465 c 128,-1,15
315 100 m 0,22,23
 315 141 315 141 353 170.5 c 128,-1,24
 391 200 391 200 445 200 c 0,25,26
 575 200 575 200 575 100 c 0,27,28
 575 59 575 59 536.5 29.5 c 128,-1,29
 498 0 498 0 445 0 c 0,30,31
 315 0 315 0 315 100 c 0,22,23
395.5 165 m 128,-1,33
 375 138 375 138 375 96.5 c 128,-1,34
 375 55 375 55 394.5 31.5 c 128,-1,35
 414 8 414 8 444 8 c 128,-1,36
 474 8 474 8 494.5 35 c 128,-1,37
 515 62 515 62 515 103.5 c 128,-1,38
 515 145 515 145 495 168.5 c 128,-1,39
 475 192 475 192 445.5 192 c 128,-1,32
 416 192 416 192 395.5 165 c 128,-1,33
EndSplineSet
EndChar

StartChar: ampersand
Encoding: 38 38 9
Width: 900
GlyphClass: 2
Flags: W
LayerCount: 2
Fore
SplineSet
615 392 m 1,0,-1
 615 402 l 1,1,-1
 862 402 l 1,2,-1
 862 392 l 1,3,-1
 807 392 l 1,4,5
 753 245 753 245 628 128 c 0,6,7
 567 71 567 71 485 35.5 c 128,-1,8
 403 0 403 0 316 0 c 0,9,10
 233 0 233 0 164 32 c 0,11,12
 124 50 124 50 93.5 78.5 c 128,-1,13
 63 107 63 107 43 155.5 c 128,-1,14
 23 204 23 204 23 267 c 0,15,16
 23 390 23 390 98.5 474.5 c 128,-1,17
 174 559 174 559 270 559 c 0,18,19
 444 559 444 559 450 404 c 1,20,-1
 616 535 l 1,21,-1
 623 529 l 1,22,-1
 127 139 l 1,23,24
 152 79 152 79 198.5 44.5 c 128,-1,25
 245 10 245 10 315.5 10 c 128,-1,26
 386 10 386 10 456.5 45.5 c 128,-1,27
 527 81 527 81 579 138 c 0,28,29
 684 254 684 254 727 392 c 1,30,-1
 615 392 l 1,0,-1
348.5 502 m 128,-1,32
 327 549 327 549 276.5 549 c 128,-1,33
 226 549 226 549 191.5 522.5 c 128,-1,34
 157 496 157 496 138 453 c 0,35,36
 103 370 103 370 103 272 c 1,37,-1
 105 228 l 1,38,39
 110 183 110 183 123 146 c 1,40,-1
 371 341 l 1,41,31
 370 455 370 455 348.5 502 c 128,-1,32
EndSplineSet
EndChar

StartChar: quotesingle
Encoding: 39 39 10
Width: 100
GlyphClass: 2
Flags: W
LayerCount: 2
Fore
SplineSet
28 748 m 1,0,-1
 60 750 l 1,1,-1
 45 567 l 1,2,-1
 32 567 l 1,3,-1
 28 748 l 1,0,-1
EndSplineSet
EndChar

StartChar: parenleft
Encoding: 40 40 11
Width: 300
GlyphClass: 2
Flags: W
LayerCount: 2
Fore
SplineSet
149 236 m 0,0,1
 149 -113 149 -113 249 -193 c 1,2,-1
 245 -200 l 1,3,4
 198 -182 198 -182 165 -142 c 0,5,6
 149 -123 149 -123 128 -84 c 0,7,8
 69 29 69 29 69 240 c 0,9,10
 69 350 69 350 82.5 433 c 128,-1,11
 96 516 96 516 112 562 c 128,-1,12
 128 608 128 608 146.5 644 c 128,-1,13
 165 680 165 680 183 699 c 0,14,15
 221 739 221 739 240 746 c 1,16,-1
 249 750 l 1,17,-1
 255 737 l 1,18,19
 251 735 251 735 244.5 729.5 c 128,-1,20
 238 724 238 724 220.5 695 c 128,-1,21
 203 666 203 666 189.5 622 c 128,-1,22
 176 578 176 578 164 490 c 0,23,24
 149 384 149 384 149 236 c 0,0,1
EndSplineSet
EndChar

StartChar: parenright
Encoding: 41 41 12
Width: 300
GlyphClass: 2
Flags: W
LayerCount: 2
Fore
SplineSet
155 631 m 128,-1,1
 178 586 178 586 201 485.5 c 128,-1,2
 224 385 224 385 224 222 c 0,3,4
 224 180 224 180 217.5 115.5 c 128,-1,5
 211 51 211 51 198 3 c 128,-1,6
 185 -45 185 -45 164.5 -84 c 128,-1,7
 144 -123 144 -123 128 -142.5 c 128,-1,8
 112 -162 112 -162 90 -177 c 0,9,10
 69 -192 69 -192 48 -200 c 1,11,-1
 44 -193 l 1,12,13
 144 -113 144 -113 144 236 c 0,14,15
 144 384 144 384 131 481 c 128,-1,16
 118 578 118 578 103 622 c 0,17,18
 73 713 73 713 48 730 c 2,19,-1
 38 737 l 1,20,-1
 44 750 l 1,21,22
 51 748 51 748 62 742.5 c 128,-1,23
 73 737 73 737 102.5 706.5 c 128,-1,0
 132 676 132 676 155 631 c 128,-1,1
EndSplineSet
EndChar

StartChar: asterisk
Encoding: 42 42 13
Width: 556
GlyphClass: 2
Flags: W
LayerCount: 2
Fore
SplineSet
283 348 m 1,0,-1
 275 348 l 1,1,-1
 275 515 l 1,2,-1
 157 397 l 1,3,-1
 152 402 l 1,4,-1
 270 520 l 1,5,-1
 103 520 l 1,6,-1
 103 528 l 1,7,-1
 270 528 l 1,8,-1
 152 646 l 1,9,-1
 157 651 l 1,10,-1
 275 533 l 1,11,-1
 275 700 l 1,12,-1
 283 700 l 1,13,-1
 283 533 l 1,14,-1
 401 651 l 1,15,-1
 406 646 l 1,16,-1
 288 528 l 1,17,-1
 455 528 l 1,18,-1
 455 520 l 1,19,-1
 288 520 l 1,20,-1
 406 402 l 1,21,-1
 401 397 l 1,22,-1
 283 515 l 1,23,-1
 283 348 l 1,0,-1
EndSplineSet
EndChar

StartChar: plus
Encoding: 43 43 14
Width: 654
GlyphClass: 2
Flags: W
LayerCount: 2
Fore
SplineSet
106 265 m 1,0,-1
 271 265 l 1,1,-1
 271 460 l 1,2,-1
 351 460 l 1,3,-1
 351 265 l 1,4,-1
 526 265 l 1,5,-1
 526 257 l 1,6,-1
 351 257 l 1,7,-1
 351 40 l 1,8,-1
 271 40 l 1,9,-1
 271 257 l 1,10,-1
 106 257 l 1,11,-1
 106 265 l 1,0,-1
EndSplineSet
EndChar

StartChar: comma
Encoding: 44 44 15
Width: 92
GlyphClass: 2
Flags: W
LayerCount: 2
Fore
SplineSet
38 81 m 1,0,-1
 70 83 l 1,1,-1
 25 -100 l 1,2,-1
 12 -100 l 1,3,-1
 38 81 l 1,0,-1
EndSplineSet
EndChar

StartChar: hyphen
Encoding: 45 45 16
Width: 400
GlyphClass: 2
Flags: W
LayerCount: 2
Fore
SplineSet
46 293 m 1,0,-1
 348 293 l 1,1,-1
 348 285 l 1,2,-1
 46 285 l 1,3,-1
 46 293 l 1,0,-1
EndSplineSet
EndChar

StartChar: period
Encoding: 46 46 17
Width: 110
GlyphClass: 2
Flags: W
LayerCount: 2
Fore
SplineSet
37.5 5.5 m 128,-1,1
 28 15 28 15 28 28.5 c 128,-1,2
 28 42 28 42 37 51 c 128,-1,3
 46 60 46 60 59.5 60 c 128,-1,4
 73 60 73 60 82.5 50.5 c 128,-1,5
 92 41 92 41 92 28 c 128,-1,6
 92 15 92 15 82.5 5.5 c 128,-1,7
 73 -4 73 -4 60 -4 c 128,-1,0
 47 -4 47 -4 37.5 5.5 c 128,-1,1
EndSplineSet
EndChar

StartChar: slash
Encoding: 47 47 18
Width: 491
GlyphClass: 2
Flags: W
LayerCount: 2
Fore
SplineSet
110 0 m 1,0,-1
 100 0 l 1,1,-1
 351 749 l 1,2,-1
 361 749 l 1,3,-1
 110 0 l 1,0,-1
EndSplineSet
EndChar

StartChar: zero
Encoding: 48 48 19
Width: 646
GlyphClass: 2
Flags: W
LayerCount: 2
Fore
SplineSet
50 250 m 0,0,1
 50 355 50 355 129.5 429.5 c 128,-1,2
 209 504 209 504 327 504 c 128,-1,3
 445 504 445 504 519.5 442.5 c 128,-1,4
 594 381 594 381 594 250 c 0,5,6
 594 145 594 145 514.5 70.5 c 128,-1,7
 435 -4 435 -4 317 -4 c 128,-1,8
 199 -4 199 -4 124.5 57.5 c 128,-1,9
 50 119 50 119 50 250 c 0,0,1
130 250 m 0,10,11
 130 124 130 124 183 64 c 128,-1,12
 236 4 236 4 319 4 c 128,-1,13
 402 4 402 4 458 76 c 128,-1,14
 514 148 514 148 514 250 c 0,15,16
 514 376 514 376 461 436 c 128,-1,17
 408 496 408 496 325 496 c 128,-1,18
 242 496 242 496 186 424 c 128,-1,19
 130 352 130 352 130 250 c 0,10,11
EndSplineSet
EndChar

StartChar: one
Encoding: 49 49 20
Width: 399
GlyphClass: 2
Flags: W
LayerCount: 2
Fore
SplineSet
287 492 m 1,0,-1
 240 492 l 1,1,-1
 240 8 l 1,2,-1
 300 8 l 1,3,-1
 300 0 l 1,4,-1
 100 0 l 1,5,-1
 100 8 l 1,6,-1
 160 8 l 1,7,-1
 160 492 l 1,8,-1
 113 492 l 1,9,-1
 113 500 l 1,10,-1
 287 500 l 1,11,-1
 287 492 l 1,0,-1
EndSplineSet
EndChar

StartChar: two
Encoding: 50 50 21
Width: 439
GlyphClass: 2
Flags: W
LayerCount: 2
Fore
SplineSet
213 492 m 0,0,1
 137 492 137 492 80 435 c 1,2,-1
 75 441 l 1,3,4
 142 500 142 500 215.5 500 c 128,-1,5
 289 500 289 500 327 470 c 128,-1,6
 365 440 365 440 365 379.5 c 128,-1,7
 365 319 365 319 294 198.5 c 128,-1,8
 223 78 223 78 136 8 c 1,9,-1
 329 8 l 2,10,11
 398 8 398 8 412 48 c 1,12,-1
 418 45 l 1,13,14
 418 41 418 41 411 31.5 c 128,-1,15
 404 22 404 22 395 16 c 0,16,17
 371 0 371 0 329 0 c 2,18,-1
 40 0 l 1,19,20
 134 71 134 71 209.5 194 c 128,-1,21
 285 317 285 317 285 382 c 0,22,23
 285 492 285 492 213 492 c 0,0,1
EndSplineSet
EndChar

StartChar: three
Encoding: 51 51 22
Width: 375
GlyphClass: 2
Flags: W
LayerCount: 2
Fore
SplineSet
249 404 m 0,0,1
 249 492 249 492 184 492 c 0,2,3
 125 492 125 492 59 464 c 1,4,-1
 55 471 l 1,5,6
 121 500 121 500 187 500 c 0,7,8
 221 500 221 500 257 490 c 0,9,10
 329 470 329 470 329 404 c 0,11,12
 329 352 329 352 286.5 316.5 c 128,-1,13
 244 281 244 281 183 261 c 1,14,15
 240 255 240 255 280 225.5 c 128,-1,16
 320 196 320 196 320 144 c 128,-1,17
 320 92 320 92 292.5 49.5 c 128,-1,18
 265 7 265 7 222 -22 c 0,19,20
 133 -83 133 -83 40 -100 c 1,21,-1
 39 -92 l 1,22,23
 114 -72 114 -72 177 -6.5 c 128,-1,24
 240 59 240 59 240 140 c 0,25,26
 240 195 240 195 216.5 222.5 c 128,-1,27
 193 250 193 250 162 254 c 1,28,29
 144 247 144 247 132 246 c 1,30,-1
 128 253 l 1,31,32
 180 269 180 269 214.5 309.5 c 128,-1,33
 249 350 249 350 249 404 c 0,0,1
EndSplineSet
EndChar

StartChar: four
Encoding: 52 52 23
Width: 444
GlyphClass: 2
Flags: W
LayerCount: 2
Fore
SplineSet
395 8 m 1,0,-1
 395 0 l 1,1,-1
 347 0 l 1,2,-1
 335 -100 l 1,3,-1
 256 -100 l 1,4,-1
 267 0 l 1,5,-1
 30 0 l 1,6,-1
 388 500 l 1,7,-1
 395 496 l 1,8,9
 247 290 247 290 46 8 c 1,10,-1
 268 8 l 1,11,-1
 301 284 l 1,12,-1
 381 284 l 1,13,-1
 348 8 l 1,14,-1
 395 8 l 1,0,-1
EndSplineSet
EndChar

StartChar: five
Encoding: 53 53 24
Width: 348
GlyphClass: 2
Flags: W
LayerCount: 2
Fore
SplineSet
218 173 m 0,0,1
 218 322 218 322 72 322 c 1,2,-1
 90 500 l 1,3,-1
 266 500 l 1,4,-1
 266 422 l 1,5,-1
 92 422 l 1,6,-1
 82 330 l 1,7,8
 298 325 298 325 298 177 c 0,9,10
 298 126 298 126 271 79.5 c 128,-1,11
 244 33 244 33 200 -2 c 0,12,13
 117 -67 117 -67 21 -100 c 1,14,-1
 21 -91 l 1,15,-1
 32 -85 l 2,16,17
 127 -33 127 -33 179 44 c 0,18,19
 218 103 218 103 218 173 c 0,0,1
EndSplineSet
EndChar

StartChar: six
Encoding: 54 54 25
Width: 500
GlyphClass: 2
Flags: W
LayerCount: 2
Fore
SplineSet
177 370.5 m 128,-1,1
 209 392 209 392 270.5 392 c 128,-1,2
 332 392 332 392 390.5 347 c 128,-1,3
 449 302 449 302 449 213 c 128,-1,4
 449 124 449 124 393 60 c 128,-1,5
 337 -4 337 -4 232 -4 c 0,6,7
 40 -4 40 -4 40 231 c 0,8,9
 40 341 40 341 96 432 c 1,10,11
 162 537 162 537 290 578 c 1,12,13
 362 600 362 600 451 600 c 1,14,-1
 450 593 l 1,15,16
 273 593 273 593 192 479 c 0,17,18
 148 417 148 417 133 325 c 1,19,0
 145 349 145 349 177 370.5 c 128,-1,1
128 300 m 1,20,21
 119 238 119 238 119 186 c 0,22,23
 119 98 119 98 152.5 51 c 128,-1,24
 186 4 186 4 240 4 c 128,-1,25
 294 4 294 4 331.5 64 c 128,-1,26
 369 124 369 124 369 213.5 c 128,-1,27
 369 303 369 303 334.5 343.5 c 128,-1,28
 300 384 300 384 251 384 c 0,29,30
 218 384 218 384 187.5 365 c 128,-1,31
 157 346 157 346 142.5 326.5 c 128,-1,32
 128 307 128 307 128 300 c 1,20,21
EndSplineSet
EndChar

StartChar: seven
Encoding: 55 55 26
Width: 414
GlyphClass: 2
Flags: W
LayerCount: 2
Fore
SplineSet
50 501 m 1,0,-1
 379 501 l 1,1,2
 177 25 177 25 103 -100 c 1,3,-1
 95 -97 l 1,4,5
 174 39 174 39 336 422 c 1,6,-1
 50 423 l 1,7,-1
 50 501 l 1,0,-1
EndSplineSet
EndChar

StartChar: eight
Encoding: 56 56 27
Width: 540
GlyphClass: 2
Flags: W
LayerCount: 2
Fore
SplineSet
471 481 m 0,0,1
 471 373 471 373 350 309 c 1,2,3
 416 295 416 295 449 266 c 128,-1,4
 482 237 482 237 483 179 c 0,5,6
 483 147 483 147 466.5 111.5 c 128,-1,7
 450 76 450 76 427.5 53 c 128,-1,8
 405 30 405 30 359.5 13 c 128,-1,9
 314 -4 314 -4 255.5 -4 c 128,-1,10
 197 -4 197 -4 157.5 11 c 128,-1,11
 118 26 118 26 99 45.5 c 128,-1,12
 80 65 80 65 70.5 93.5 c 128,-1,13
 61 122 61 122 60.5 135.5 c 128,-1,14
 60 149 60 149 60 158.5 c 128,-1,15
 60 168 60 168 60 179 c 0,16,17
 67 278 67 278 216 345 c 1,18,19
 109 375 109 375 109 464 c 0,20,21
 109 529 109 529 164.5 564.5 c 128,-1,22
 220 600 220 600 293.5 600 c 128,-1,23
 367 600 367 600 419 570.5 c 128,-1,24
 471 541 471 541 471 481 c 0,0,1
224 341 m 1,25,26
 139 270 139 270 139 164 c 0,27,28
 139 122 139 122 149 89 c 128,-1,29
 159 56 159 56 172.5 39.5 c 128,-1,30
 186 23 186 23 207 14 c 128,-1,31
 228 5 228 5 235.5 4.5 c 128,-1,32
 243 4 243 4 263.5 4 c 128,-1,33
 284 4 284 4 308.5 13.5 c 128,-1,34
 333 23 333 23 348.5 38.5 c 128,-1,35
 364 54 364 54 375.5 72.5 c 128,-1,36
 387 91 387 91 392 110 c 0,37,38
 404 157 404 157 404 188.5 c 128,-1,39
 404 220 404 220 395 244.5 c 128,-1,40
 386 269 386 269 363.5 285 c 128,-1,41
 341 301 341 301 322 309 c 128,-1,42
 303 317 303 317 270 326.5 c 128,-1,43
 237 336 237 336 224 341 c 1,25,26
342 312 m 1,44,45
 392 380 392 380 392 483 c 0,46,47
 392 525 392 525 370 558.5 c 128,-1,48
 348 592 348 592 287 592 c 0,49,50
 242 592 242 592 217 557 c 0,51,52
 189 517 189 517 189 455 c 0,53,54
 189 385 189 385 220 362 c 0,55,56
 238 348 238 348 255.5 341.5 c 128,-1,57
 273 335 273 335 299.5 327.5 c 128,-1,58
 326 320 326 320 342 312 c 1,44,45
EndSplineSet
EndChar

StartChar: nine
Encoding: 57 57 28
Width: 500
GlyphClass: 2
Flags: W
LayerCount: 2
Fore
SplineSet
314 130.5 m 128,-1,1
 282 109 282 109 220.5 109 c 128,-1,2
 159 109 159 109 100.5 154 c 128,-1,3
 42 199 42 199 42 288 c 128,-1,4
 42 377 42 377 98 441 c 128,-1,5
 154 505 154 505 259 505 c 0,6,7
 451 505 451 505 451 270 c 0,8,9
 451 160 451 160 394 69 c 0,10,11
 329 -36 329 -36 200 -76 c 0,12,13
 129 -99 129 -99 40 -99 c 1,14,-1
 41 -92 l 1,15,16
 218 -92 218 -92 299 22 c 0,17,18
 343 84 343 84 358 176 c 1,19,0
 346 152 346 152 314 130.5 c 128,-1,1
363 201 m 1,20,21
 372 263 372 263 372 315 c 0,22,23
 372 403 372 403 338.5 450 c 128,-1,24
 305 497 305 497 251 497 c 128,-1,25
 197 497 197 497 159.5 437 c 128,-1,26
 122 377 122 377 122 287.5 c 128,-1,27
 122 198 122 198 156.5 157.5 c 128,-1,28
 191 117 191 117 240 117 c 0,29,30
 273 117 273 117 303.5 136 c 128,-1,31
 334 155 334 155 348.5 174.5 c 128,-1,32
 363 194 363 194 363 201 c 1,20,21
EndSplineSet
EndChar

StartChar: colon
Encoding: 58 58 29
Width: 250
GlyphClass: 2
Flags: W
LayerCount: 2
Fore
SplineSet
92.5 5.5 m 128,-1,1
 83 15 83 15 83 28.5 c 128,-1,2
 83 42 83 42 92.5 51 c 128,-1,3
 102 60 102 60 115 60 c 128,-1,4
 128 60 128 60 137.5 50.5 c 128,-1,5
 147 41 147 41 147 28 c 128,-1,6
 147 15 147 15 137.5 5.5 c 128,-1,7
 128 -4 128 -4 115 -4 c 128,-1,0
 102 -4 102 -4 92.5 5.5 c 128,-1,1
83 437 m 128,-1,9
 83 450 83 450 92.5 459.5 c 128,-1,10
 102 469 102 469 115 469 c 128,-1,11
 128 469 128 469 137.5 459.5 c 128,-1,12
 147 450 147 450 147 437 c 128,-1,13
 147 424 147 424 137.5 414.5 c 128,-1,14
 128 405 128 405 115 405 c 128,-1,15
 102 405 102 405 92.5 414.5 c 128,-1,8
 83 424 83 424 83 437 c 128,-1,9
EndSplineSet
EndChar

StartChar: semicolon
Encoding: 59 59 30
Width: 250
GlyphClass: 2
Flags: W
LayerCount: 2
Fore
SplineSet
83 437 m 128,-1,1
 83 450 83 450 92.5 459.5 c 128,-1,2
 102 469 102 469 115 469 c 128,-1,3
 128 469 128 469 137.5 459.5 c 128,-1,4
 147 450 147 450 147 437 c 128,-1,5
 147 424 147 424 137.5 414.5 c 128,-1,6
 128 405 128 405 115 405 c 128,-1,7
 102 405 102 405 92.5 414.5 c 128,-1,0
 83 424 83 424 83 437 c 128,-1,1
98 81 m 1,8,-1
 130 83 l 1,9,-1
 85 -100 l 1,10,-1
 72 -100 l 1,11,-1
 98 81 l 1,8,-1
EndSplineSet
EndChar

StartChar: less
Encoding: 60 60 31
Width: 569
GlyphClass: 2
Flags: W
LayerCount: 2
Fore
SplineSet
100 300 m 1,0,-1
 452 500 l 1,1,-1
 459 493 l 1,2,-1
 166 299 l 1,3,-1
 459 108 l 1,4,-1
 452 100 l 1,5,-1
 100 300 l 1,0,-1
EndSplineSet
EndChar

StartChar: equal
Encoding: 61 61 32
Width: 739
GlyphClass: 2
Flags: W
LayerCount: 2
Fore
SplineSet
146 358 m 1,0,-1
 600 358 l 1,1,-1
 600 350 l 1,2,-1
 146 350 l 1,3,-1
 146 358 l 1,0,-1
146 136 m 1,4,-1
 600 136 l 1,5,-1
 600 128 l 1,6,-1
 146 128 l 1,7,-1
 146 136 l 1,4,-1
EndSplineSet
EndChar

StartChar: greater
Encoding: 62 62 33
Width: 569
GlyphClass: 2
Flags: W
LayerCount: 2
Fore
SplineSet
107 500 m 1,0,-1
 459 300 l 1,1,-1
 107 100 l 1,2,-1
 100 108 l 1,3,-1
 393 299 l 1,4,-1
 100 493 l 1,5,-1
 107 500 l 1,0,-1
EndSplineSet
EndChar

StartChar: question
Encoding: 63 63 34
Width: 431
GlyphClass: 2
Flags: W
LayerCount: 2
Fore
SplineSet
36 680 m 1,0,1
 117 705 117 705 198.5 705 c 128,-1,2
 280 705 280 705 332 664.5 c 128,-1,3
 384 624 384 624 384 543 c 0,4,5
 384 464 384 464 294 380 c 1,6,7
 256 346 256 346 218.5 310 c 128,-1,8
 181 274 181 274 154.5 227 c 128,-1,9
 128 180 128 180 128 128 c 1,10,-1
 118 128 l 1,11,12
 118 224 118 224 184 314 c 0,13,14
 211 351 211 351 238 386 c 0,15,16
 305 471 305 471 305 541.5 c 128,-1,17
 305 612 305 612 272 654.5 c 128,-1,18
 239 697 239 697 178 697 c 0,19,20
 132 697 132 697 64 680 c 2,21,-1
 40 674 l 1,22,-1
 36 680 l 1,0,1
102.5 51 m 128,-1,24
 112 60 112 60 125 60 c 128,-1,25
 138 60 138 60 147.5 50.5 c 128,-1,26
 157 41 157 41 157 28 c 128,-1,27
 157 15 157 15 147.5 5.5 c 128,-1,28
 138 -4 138 -4 125 -4 c 128,-1,29
 112 -4 112 -4 102.5 5.5 c 128,-1,30
 93 15 93 15 93 28.5 c 128,-1,23
 93 42 93 42 102.5 51 c 128,-1,24
EndSplineSet
EndChar

StartChar: at
Encoding: 64 64 35
Width: 1070
GlyphClass: 2
Flags: W
LayerCount: 2
Fore
SplineSet
978 250 m 0,0,1
 978 186 978 186 962.5 139 c 128,-1,2
 947 92 947 92 925 66 c 128,-1,3
 903 40 903 40 870 24.5 c 128,-1,4
 837 9 837 9 811 5 c 128,-1,5
 785 1 785 1 752 0.5 c 128,-1,6
 719 0 719 0 694.5 7.5 c 128,-1,7
 670 15 670 15 660 26 c 1,8,9
 639 46 639 46 639 64 c 2,10,-1
 639 85 l 1,11,12
 621 50 621 50 583 23 c 128,-1,13
 545 -4 545 -4 492 -4 c 0,14,15
 351 -4 351 -4 339 110 c 0,16,17
 338 122 338 122 338 134 c 128,-1,18
 338 146 338 146 341 160 c 128,-1,19
 344 174 344 174 362 193 c 0,20,21
 395 229 395 229 531 239 c 0,22,23
 563 242 563 242 590 242 c 128,-1,24
 617 242 617 242 639 240 c 1,25,-1
 639 416 l 2,26,27
 639 422 639 422 634 437.5 c 128,-1,28
 629 453 629 453 620.5 465 c 128,-1,29
 612 477 612 477 592 486.5 c 128,-1,30
 572 496 572 496 545 496 c 0,31,32
 447 496 447 496 370 456 c 1,33,-1
 366 463 l 1,34,35
 379 469 379 469 386.5 472.5 c 128,-1,36
 394 476 394 476 405.5 480.5 c 128,-1,37
 417 485 417 485 432 489 c 128,-1,38
 447 493 447 493 464 496 c 0,39,40
 500 504 500 504 545 504 c 0,41,42
 709 504 709 504 709 406 c 2,43,-1
 709 71 l 2,44,45
 709 30 709 30 730 16 c 0,46,47
 740 10 740 10 747 10 c 2,48,-1
 754 10 l 2,49,50
 800 10 800 10 844 56 c 0,51,52
 868 81 868 81 883 131 c 128,-1,53
 898 181 898 181 898 250 c 0,54,55
 898 366 898 366 869.5 453 c 128,-1,56
 841 540 841 540 790 591 c 0,57,58
 688 692 688 692 532.5 692 c 128,-1,59
 377 692 377 692 268.5 562.5 c 128,-1,60
 160 433 160 433 160 250 c 0,61,62
 160 133 160 133 188.5 45.5 c 128,-1,63
 217 -42 217 -42 268.5 -92.5 c 128,-1,64
 320 -143 320 -143 385 -167.5 c 128,-1,65
 450 -192 450 -192 529 -192 c 128,-1,66
 608 -192 608 -192 697 -153 c 1,67,-1
 703 -159 l 1,68,69
 677 -174 677 -174 628.5 -187 c 128,-1,70
 580 -200 580 -200 529 -200 c 0,71,72
 334 -200 334 -200 212 -100 c 0,73,74
 149 -49 149 -49 114.5 40 c 128,-1,75
 80 129 80 129 80 250 c 0,76,77
 80 436 80 436 211.5 568 c 128,-1,78
 343 700 343 700 529 700 c 0,79,80
 723 700 723 700 846 596 c 0,81,82
 909 544 909 544 943.5 456 c 128,-1,83
 978 368 978 368 978 250 c 0,0,1
493 4 m 0,84,85
 551 4 551 4 593.5 40 c 128,-1,86
 636 76 636 76 639 111 c 1,87,-1
 639 232 l 1,88,89
 612 234 612 234 584.5 234 c 128,-1,90
 557 234 557 234 530 231 c 0,91,92
 453 222 453 222 430.5 197 c 128,-1,93
 408 172 408 172 408 131 c 0,94,95
 408 121 408 121 409 110 c 0,96,97
 421 4 421 4 493 4 c 0,84,85
EndSplineSet
EndChar

StartChar: A
Encoding: 65 65 36
Width: 622
GlyphClass: 2
Flags: W
LayerCount: 2
Fore
SplineSet
42 0 m 1,0,-1
 30 0 l 1,1,-1
 329 700 l 1,2,-1
 340 705 l 1,3,-1
 592 0 l 1,4,-1
 507 0 l 1,5,-1
 429 220 l 1,6,-1
 137 220 l 1,7,-1
 42 0 l 1,0,-1
298 592 m 1,8,-1
 141 230 l 1,9,-1
 426 230 l 1,10,-1
 298 592 l 1,8,-1
EndSplineSet
EndChar

StartChar: B
Encoding: 66 66 37
Width: 570
GlyphClass: 2
Flags: W
LayerCount: 2
Fore
SplineSet
70 692 m 1,0,1
 186 700 186 700 275 700 c 0,2,3
 522 700 522 700 522 535 c 0,4,5
 522 473 522 473 486 428.5 c 128,-1,6
 450 384 450 384 371 368 c 1,7,8
 447 359 447 359 491 322 c 128,-1,9
 535 285 535 285 535 193 c 0,10,11
 535 0 535 0 288 0 c 2,12,-1
 70 0 l 1,13,-1
 70 692 l 1,0,1
153 10 m 1,14,-1
 288 10 l 2,15,16
 377 10 377 10 414.5 56.5 c 128,-1,17
 452 103 452 103 452 199 c 128,-1,18
 452 295 452 295 414 327 c 128,-1,19
 376 359 376 359 301 361 c 1,20,-1
 153 361 l 1,21,-1
 153 10 l 1,14,-1
275 690 m 0,22,23
 217 690 217 690 153 683 c 1,24,-1
 153 371 l 1,25,-1
 301 371 l 1,26,27
 442 377 442 377 442 533 c 0,28,29
 442 609 442 609 400 649.5 c 128,-1,30
 358 690 358 690 275 690 c 0,22,23
EndSplineSet
PairPos2: "'kern' Horizontal Kerning in Latin lookup 0 per glyph data 1" z dx=0 dy=0 dh=-20 dv=0 dx=0 dy=0 dh=0 dv=0
PairPos2: "'kern' Horizontal Kerning in Latin lookup 0 per glyph data 1" y dx=0 dy=0 dh=-20 dv=0 dx=0 dy=0 dh=0 dv=0
PairPos2: "'kern' Horizontal Kerning in Latin lookup 0 per glyph data 1" w dx=0 dy=0 dh=-20 dv=0 dx=0 dy=0 dh=0 dv=0
PairPos2: "'kern' Horizontal Kerning in Latin lookup 0 per glyph data 1" v dx=0 dy=0 dh=-20 dv=0 dx=0 dy=0 dh=0 dv=0
EndChar

StartChar: C
Encoding: 67 67 38
Width: 617
GlyphClass: 2
Flags: W
LayerCount: 2
Fore
SplineSet
399 -4 m 0,0,1
 212 -4 212 -4 122 102 c 0,2,3
 90 140 90 140 70 203 c 128,-1,4
 50 266 50 266 50 356 c 128,-1,5
 50 446 50 446 79.5 517.5 c 128,-1,6
 109 589 109 589 160 628 c 1,7,8
 259 701 259 701 399 701 c 0,9,10
 439 701 439 701 477 694.5 c 128,-1,11
 515 688 515 688 534 681 c 2,12,-1
 552 674 l 1,13,-1
 549 664 l 1,14,15
 481 691 481 691 399 691 c 0,16,17
 293 691 293 691 222 622 c 1,18,19
 168 571 168 571 146 472 c 0,20,21
 133 416 133 416 133 335 c 128,-1,22
 133 254 133 254 156 185.5 c 128,-1,23
 179 117 179 117 208.5 84 c 128,-1,24
 238 51 238 51 280 31.5 c 128,-1,25
 322 12 322 12 347 9 c 128,-1,26
 372 6 372 6 407.5 6 c 128,-1,27
 443 6 443 6 488 13 c 128,-1,28
 533 20 533 20 556 26 c 2,29,-1
 579 33 l 1,30,-1
 582 23 l 1,31,32
 506 -4 506 -4 399 -4 c 0,0,1
EndSplineSet
EndChar

StartChar: D
Encoding: 68 68 39
Width: 622
GlyphClass: 2
Flags: W
LayerCount: 2
Fore
SplineSet
150 699 m 1,0,1
 194 701 194 701 236.5 701 c 128,-1,2
 279 701 279 701 326.5 692 c 128,-1,3
 374 683 374 683 420.5 658.5 c 128,-1,4
 467 634 467 634 499.5 595.5 c 128,-1,5
 532 557 532 557 552 494 c 128,-1,6
 572 431 572 431 572 341 c 128,-1,7
 572 251 572 251 542.5 179.5 c 128,-1,8
 513 108 513 108 462 70 c 0,9,10
 363 -4 363 -4 223 -4 c 0,11,12
 174 -4 174 -4 120 0 c 1,13,-1
 70 0 l 1,14,-1
 70 699 l 1,15,-1
 150 699 l 1,0,1
153 8 m 1,16,17
 174 6 174 6 206 6 c 128,-1,18
 238 6 238 6 254 7 c 128,-1,19
 270 8 270 8 298 15.5 c 128,-1,20
 326 23 326 23 350 36 c 128,-1,21
 374 49 374 49 400.5 74.5 c 128,-1,22
 427 100 427 100 446 135 c 0,23,24
 489 217 489 217 489 349 c 0,25,26
 489 443 489 443 466 511.5 c 128,-1,27
 443 580 443 580 413.5 613 c 128,-1,28
 384 646 384 646 342 665.5 c 128,-1,29
 300 685 300 685 275 688 c 128,-1,30
 250 691 250 691 217 691 c 128,-1,31
 184 691 184 691 153 688 c 1,32,-1
 153 8 l 1,16,17
EndSplineSet
EndChar

StartChar: E
Encoding: 69 69 40
Width: 525
GlyphClass: 2
Flags: W
LayerCount: 2
Fore
SplineSet
468 700 m 1,0,-1
 468 690 l 1,1,-1
 153 690 l 1,2,-1
 153 390 l 1,3,-1
 445 390 l 1,4,-1
 445 380 l 1,5,-1
 153 380 l 1,6,-1
 153 10 l 1,7,-1
 490 10 l 1,8,-1
 490 0 l 1,9,-1
 70 0 l 1,10,-1
 70 700 l 1,11,-1
 468 700 l 1,0,-1
EndSplineSet
EndChar

StartChar: F
Encoding: 70 70 41
Width: 503
GlyphClass: 2
Flags: W
LayerCount: 2
Fore
SplineSet
468 700 m 1,0,-1
 468 690 l 1,1,-1
 153 690 l 1,2,-1
 153 370 l 1,3,-1
 445 370 l 1,4,-1
 445 360 l 1,5,-1
 153 360 l 1,6,-1
 153 0 l 1,7,-1
 70 0 l 1,8,-1
 70 700 l 1,9,-1
 468 700 l 1,0,-1
EndSplineSet
PairPos2: "'kern' Horizontal Kerning in Latin lookup 0 per glyph data 1" OE dx=0 dy=0 dh=-20 dv=0 dx=0 dy=0 dh=0 dv=0
PairPos2: "'kern' Horizontal Kerning in Latin lookup 0 per glyph data 1" dotlessi dx=0 dy=0 dh=-20 dv=0 dx=0 dy=0 dh=0 dv=0
PairPos2: "'kern' Horizontal Kerning in Latin lookup 0 per glyph data 1" thorn dx=0 dy=0 dh=-20 dv=0 dx=0 dy=0 dh=0 dv=0
PairPos2: "'kern' Horizontal Kerning in Latin lookup 0 per glyph data 1" udieresis dx=0 dy=0 dh=-10 dv=0 dx=0 dy=0 dh=0 dv=0
PairPos2: "'kern' Horizontal Kerning in Latin lookup 0 per glyph data 1" ucircumflex dx=0 dy=0 dh=-10 dv=0 dx=0 dy=0 dh=0 dv=0
PairPos2: "'kern' Horizontal Kerning in Latin lookup 0 per glyph data 1" uacute dx=0 dy=0 dh=-10 dv=0 dx=0 dy=0 dh=0 dv=0
PairPos2: "'kern' Horizontal Kerning in Latin lookup 0 per glyph data 1" ugrave dx=0 dy=0 dh=-10 dv=0 dx=0 dy=0 dh=0 dv=0
PairPos2: "'kern' Horizontal Kerning in Latin lookup 0 per glyph data 1" odieresis dx=0 dy=0 dh=-20 dv=0 dx=0 dy=0 dh=0 dv=0
PairPos2: "'kern' Horizontal Kerning in Latin lookup 0 per glyph data 1" otilde dx=0 dy=0 dh=-20 dv=0 dx=0 dy=0 dh=0 dv=0
PairPos2: "'kern' Horizontal Kerning in Latin lookup 0 per glyph data 1" ocircumflex dx=0 dy=0 dh=-20 dv=0 dx=0 dy=0 dh=0 dv=0
PairPos2: "'kern' Horizontal Kerning in Latin lookup 0 per glyph data 1" oacute dx=0 dy=0 dh=-20 dv=0 dx=0 dy=0 dh=0 dv=0
PairPos2: "'kern' Horizontal Kerning in Latin lookup 0 per glyph data 1" ograve dx=0 dy=0 dh=-20 dv=0 dx=0 dy=0 dh=0 dv=0
PairPos2: "'kern' Horizontal Kerning in Latin lookup 0 per glyph data 1" ntilde dx=0 dy=0 dh=-20 dv=0 dx=0 dy=0 dh=0 dv=0
PairPos2: "'kern' Horizontal Kerning in Latin lookup 0 per glyph data 1" eth dx=0 dy=0 dh=-20 dv=0 dx=0 dy=0 dh=0 dv=0
PairPos2: "'kern' Horizontal Kerning in Latin lookup 0 per glyph data 1" idieresis dx=0 dy=0 dh=-20 dv=0 dx=0 dy=0 dh=0 dv=0
PairPos2: "'kern' Horizontal Kerning in Latin lookup 0 per glyph data 1" icircumflex dx=0 dy=0 dh=-20 dv=0 dx=0 dy=0 dh=0 dv=0
PairPos2: "'kern' Horizontal Kerning in Latin lookup 0 per glyph data 1" iacute dx=0 dy=0 dh=-20 dv=0 dx=0 dy=0 dh=0 dv=0
PairPos2: "'kern' Horizontal Kerning in Latin lookup 0 per glyph data 1" igrave dx=0 dy=0 dh=-20 dv=0 dx=0 dy=0 dh=0 dv=0
PairPos2: "'kern' Horizontal Kerning in Latin lookup 0 per glyph data 1" edieresis dx=0 dy=0 dh=-20 dv=0 dx=0 dy=0 dh=0 dv=0
PairPos2: "'kern' Horizontal Kerning in Latin lookup 0 per glyph data 1" ecircumflex dx=0 dy=0 dh=-20 dv=0 dx=0 dy=0 dh=0 dv=0
PairPos2: "'kern' Horizontal Kerning in Latin lookup 0 per glyph data 1" eacute dx=0 dy=0 dh=-20 dv=0 dx=0 dy=0 dh=0 dv=0
PairPos2: "'kern' Horizontal Kerning in Latin lookup 0 per glyph data 1" egrave dx=0 dy=0 dh=-20 dv=0 dx=0 dy=0 dh=0 dv=0
PairPos2: "'kern' Horizontal Kerning in Latin lookup 0 per glyph data 1" ccedilla dx=0 dy=0 dh=-20 dv=0 dx=0 dy=0 dh=0 dv=0
PairPos2: "'kern' Horizontal Kerning in Latin lookup 0 per glyph data 1" aring dx=0 dy=0 dh=-20 dv=0 dx=0 dy=0 dh=0 dv=0
PairPos2: "'kern' Horizontal Kerning in Latin lookup 0 per glyph data 1" adieresis dx=0 dy=0 dh=-20 dv=0 dx=0 dy=0 dh=0 dv=0
PairPos2: "'kern' Horizontal Kerning in Latin lookup 0 per glyph data 1" atilde dx=0 dy=0 dh=-20 dv=0 dx=0 dy=0 dh=0 dv=0
PairPos2: "'kern' Horizontal Kerning in Latin lookup 0 per glyph data 1" acircumflex dx=0 dy=0 dh=-20 dv=0 dx=0 dy=0 dh=0 dv=0
PairPos2: "'kern' Horizontal Kerning in Latin lookup 0 per glyph data 1" aacute dx=0 dy=0 dh=-20 dv=0 dx=0 dy=0 dh=0 dv=0
PairPos2: "'kern' Horizontal Kerning in Latin lookup 0 per glyph data 1" agrave dx=0 dy=0 dh=-20 dv=0 dx=0 dy=0 dh=0 dv=0
PairPos2: "'kern' Horizontal Kerning in Latin lookup 0 per glyph data 1" Oslash dx=0 dy=0 dh=-20 dv=0 dx=0 dy=0 dh=0 dv=0
PairPos2: "'kern' Horizontal Kerning in Latin lookup 0 per glyph data 1" Odieresis dx=0 dy=0 dh=-20 dv=0 dx=0 dy=0 dh=0 dv=0
PairPos2: "'kern' Horizontal Kerning in Latin lookup 0 per glyph data 1" Otilde dx=0 dy=0 dh=-20 dv=0 dx=0 dy=0 dh=0 dv=0
PairPos2: "'kern' Horizontal Kerning in Latin lookup 0 per glyph data 1" Ocircumflex dx=0 dy=0 dh=-20 dv=0 dx=0 dy=0 dh=0 dv=0
PairPos2: "'kern' Horizontal Kerning in Latin lookup 0 per glyph data 1" Oacute dx=0 dy=0 dh=-20 dv=0 dx=0 dy=0 dh=0 dv=0
PairPos2: "'kern' Horizontal Kerning in Latin lookup 0 per glyph data 1" Ograve dx=0 dy=0 dh=-20 dv=0 dx=0 dy=0 dh=0 dv=0
PairPos2: "'kern' Horizontal Kerning in Latin lookup 0 per glyph data 1" AE dx=0 dy=0 dh=-70 dv=0 dx=0 dy=0 dh=0 dv=0
PairPos2: "'kern' Horizontal Kerning in Latin lookup 0 per glyph data 1" Aring dx=0 dy=0 dh=-70 dv=0 dx=0 dy=0 dh=0 dv=0
PairPos2: "'kern' Horizontal Kerning in Latin lookup 0 per glyph data 1" Adieresis dx=0 dy=0 dh=-70 dv=0 dx=0 dy=0 dh=0 dv=0
PairPos2: "'kern' Horizontal Kerning in Latin lookup 0 per glyph data 1" Atilde dx=0 dy=0 dh=-70 dv=0 dx=0 dy=0 dh=0 dv=0
PairPos2: "'kern' Horizontal Kerning in Latin lookup 0 per glyph data 1" Acircumflex dx=0 dy=0 dh=-70 dv=0 dx=0 dy=0 dh=0 dv=0
PairPos2: "'kern' Horizontal Kerning in Latin lookup 0 per glyph data 1" Aacute dx=0 dy=0 dh=-70 dv=0 dx=0 dy=0 dh=0 dv=0
PairPos2: "'kern' Horizontal Kerning in Latin lookup 0 per glyph data 1" Agrave dx=0 dy=0 dh=-70 dv=0 dx=0 dy=0 dh=0 dv=0
PairPos2: "'kern' Horizontal Kerning in Latin lookup 0 per glyph data 1" cent dx=0 dy=0 dh=-20 dv=0 dx=0 dy=0 dh=0 dv=0
PairPos2: "'kern' Horizontal Kerning in Latin lookup 0 per glyph data 1" bar dx=0 dy=0 dh=-20 dv=0 dx=0 dy=0 dh=0 dv=0
PairPos2: "'kern' Horizontal Kerning in Latin lookup 0 per glyph data 1" u dx=0 dy=0 dh=-10 dv=0 dx=0 dy=0 dh=0 dv=0
PairPos2: "'kern' Horizontal Kerning in Latin lookup 0 per glyph data 1" t dx=0 dy=0 dh=-10 dv=0 dx=0 dy=0 dh=0 dv=0
PairPos2: "'kern' Horizontal Kerning in Latin lookup 0 per glyph data 1" s dx=0 dy=0 dh=-10 dv=0 dx=0 dy=0 dh=0 dv=0
PairPos2: "'kern' Horizontal Kerning in Latin lookup 0 per glyph data 1" r dx=0 dy=0 dh=-20 dv=0 dx=0 dy=0 dh=0 dv=0
PairPos2: "'kern' Horizontal Kerning in Latin lookup 0 per glyph data 1" p dx=0 dy=0 dh=-20 dv=0 dx=0 dy=0 dh=0 dv=0
PairPos2: "'kern' Horizontal Kerning in Latin lookup 0 per glyph data 1" o dx=0 dy=0 dh=-20 dv=0 dx=0 dy=0 dh=0 dv=0
PairPos2: "'kern' Horizontal Kerning in Latin lookup 0 per glyph data 1" n dx=0 dy=0 dh=-20 dv=0 dx=0 dy=0 dh=0 dv=0
PairPos2: "'kern' Horizontal Kerning in Latin lookup 0 per glyph data 1" m dx=0 dy=0 dh=-20 dv=0 dx=0 dy=0 dh=0 dv=0
PairPos2: "'kern' Horizontal Kerning in Latin lookup 0 per glyph data 1" l dx=0 dy=0 dh=-10 dv=0 dx=0 dy=0 dh=0 dv=0
PairPos2: "'kern' Horizontal Kerning in Latin lookup 0 per glyph data 1" k dx=0 dy=0 dh=-20 dv=0 dx=0 dy=0 dh=0 dv=0
PairPos2: "'kern' Horizontal Kerning in Latin lookup 0 per glyph data 1" j dx=0 dy=0 dh=-20 dv=0 dx=0 dy=0 dh=0 dv=0
PairPos2: "'kern' Horizontal Kerning in Latin lookup 0 per glyph data 1" i dx=0 dy=0 dh=-20 dv=0 dx=0 dy=0 dh=0 dv=0
PairPos2: "'kern' Horizontal Kerning in Latin lookup 0 per glyph data 1" h dx=0 dy=0 dh=-20 dv=0 dx=0 dy=0 dh=0 dv=0
PairPos2: "'kern' Horizontal Kerning in Latin lookup 0 per glyph data 1" f dx=0 dy=0 dh=-20 dv=0 dx=0 dy=0 dh=0 dv=0
PairPos2: "'kern' Horizontal Kerning in Latin lookup 0 per glyph data 1" e dx=0 dy=0 dh=-20 dv=0 dx=0 dy=0 dh=0 dv=0
PairPos2: "'kern' Horizontal Kerning in Latin lookup 0 per glyph data 1" c dx=0 dy=0 dh=-20 dv=0 dx=0 dy=0 dh=0 dv=0
PairPos2: "'kern' Horizontal Kerning in Latin lookup 0 per glyph data 1" b dx=0 dy=0 dh=-20 dv=0 dx=0 dy=0 dh=0 dv=0
PairPos2: "'kern' Horizontal Kerning in Latin lookup 0 per glyph data 1" a dx=0 dy=0 dh=-20 dv=0 dx=0 dy=0 dh=0 dv=0
PairPos2: "'kern' Horizontal Kerning in Latin lookup 0 per glyph data 1" bracketright dx=0 dy=0 dh=-20 dv=0 dx=0 dy=0 dh=0 dv=0
PairPos2: "'kern' Horizontal Kerning in Latin lookup 0 per glyph data 1" bracketleft dx=0 dy=0 dh=-20 dv=0 dx=0 dy=0 dh=0 dv=0
PairPos2: "'kern' Horizontal Kerning in Latin lookup 0 per glyph data 1" Q dx=0 dy=0 dh=-20 dv=0 dx=0 dy=0 dh=0 dv=0
PairPos2: "'kern' Horizontal Kerning in Latin lookup 0 per glyph data 1" O dx=0 dy=0 dh=-20 dv=0 dx=0 dy=0 dh=0 dv=0
PairPos2: "'kern' Horizontal Kerning in Latin lookup 0 per glyph data 1" A dx=0 dy=0 dh=-70 dv=0 dx=0 dy=0 dh=0 dv=0
PairPos2: "'kern' Horizontal Kerning in Latin lookup 0 per glyph data 1" parenright dx=0 dy=0 dh=-20 dv=0 dx=0 dy=0 dh=0 dv=0
PairPos2: "'kern' Horizontal Kerning in Latin lookup 0 per glyph data 1" parenleft dx=0 dy=0 dh=-20 dv=0 dx=0 dy=0 dh=0 dv=0
EndChar

StartChar: G
Encoding: 71 71 42
Width: 649
GlyphClass: 2
Flags: W
LayerCount: 2
Fore
SplineSet
399 -4 m 0,0,1
 212 -4 212 -4 122 102 c 0,2,3
 90 140 90 140 70 203 c 128,-1,4
 50 266 50 266 50 356 c 128,-1,5
 50 446 50 446 79.5 517.5 c 128,-1,6
 109 589 109 589 160 628 c 1,7,8
 259 701 259 701 399 701 c 0,9,10
 444 701 444 701 487 694.5 c 128,-1,11
 530 688 530 688 551 681 c 2,12,-1
 572 674 l 1,13,-1
 569 664 l 1,14,15
 491 691 491 691 399 691 c 0,16,17
 293 691 293 691 222 622 c 1,18,19
 168 571 168 571 146 472 c 0,20,21
 133 416 133 416 133 335 c 128,-1,22
 133 254 133 254 156 185.5 c 128,-1,23
 179 117 179 117 208.5 84 c 128,-1,24
 238 51 238 51 280 31.5 c 128,-1,25
 322 12 322 12 347 9 c 128,-1,26
 372 6 372 6 406.5 6 c 128,-1,27
 441 6 441 6 499 14 c 1,28,-1
 499 220 l 1,29,-1
 378 220 l 1,30,-1
 378 230 l 1,31,-1
 625 230 l 1,32,-1
 625 220 l 1,33,-1
 582 220 l 1,34,-1
 582 23 l 1,35,36
 506 -4 506 -4 399 -4 c 0,0,1
EndSplineSet
PairPos2: "'kern' Horizontal Kerning in Latin lookup 0 per glyph data 1" Ydieresis dx=0 dy=0 dh=-40 dv=0 dx=0 dy=0 dh=0 dv=0
PairPos2: "'kern' Horizontal Kerning in Latin lookup 0 per glyph data 1" dotlessi dx=0 dy=0 dh=-10 dv=0 dx=0 dy=0 dh=0 dv=0
PairPos2: "'kern' Horizontal Kerning in Latin lookup 0 per glyph data 1" thorn dx=0 dy=0 dh=-10 dv=0 dx=0 dy=0 dh=0 dv=0
PairPos2: "'kern' Horizontal Kerning in Latin lookup 0 per glyph data 1" udieresis dx=0 dy=0 dh=-20 dv=0 dx=0 dy=0 dh=0 dv=0
PairPos2: "'kern' Horizontal Kerning in Latin lookup 0 per glyph data 1" ucircumflex dx=0 dy=0 dh=-20 dv=0 dx=0 dy=0 dh=0 dv=0
PairPos2: "'kern' Horizontal Kerning in Latin lookup 0 per glyph data 1" uacute dx=0 dy=0 dh=-20 dv=0 dx=0 dy=0 dh=0 dv=0
PairPos2: "'kern' Horizontal Kerning in Latin lookup 0 per glyph data 1" ugrave dx=0 dy=0 dh=-20 dv=0 dx=0 dy=0 dh=0 dv=0
PairPos2: "'kern' Horizontal Kerning in Latin lookup 0 per glyph data 1" ntilde dx=0 dy=0 dh=-10 dv=0 dx=0 dy=0 dh=0 dv=0
PairPos2: "'kern' Horizontal Kerning in Latin lookup 0 per glyph data 1" idieresis dx=0 dy=0 dh=-10 dv=0 dx=0 dy=0 dh=0 dv=0
PairPos2: "'kern' Horizontal Kerning in Latin lookup 0 per glyph data 1" icircumflex dx=0 dy=0 dh=-10 dv=0 dx=0 dy=0 dh=0 dv=0
PairPos2: "'kern' Horizontal Kerning in Latin lookup 0 per glyph data 1" iacute dx=0 dy=0 dh=-10 dv=0 dx=0 dy=0 dh=0 dv=0
PairPos2: "'kern' Horizontal Kerning in Latin lookup 0 per glyph data 1" igrave dx=0 dy=0 dh=-10 dv=0 dx=0 dy=0 dh=0 dv=0
PairPos2: "'kern' Horizontal Kerning in Latin lookup 0 per glyph data 1" edieresis dx=0 dy=0 dh=-20 dv=0 dx=0 dy=0 dh=0 dv=0
PairPos2: "'kern' Horizontal Kerning in Latin lookup 0 per glyph data 1" ecircumflex dx=0 dy=0 dh=-20 dv=0 dx=0 dy=0 dh=0 dv=0
PairPos2: "'kern' Horizontal Kerning in Latin lookup 0 per glyph data 1" eacute dx=0 dy=0 dh=-20 dv=0 dx=0 dy=0 dh=0 dv=0
PairPos2: "'kern' Horizontal Kerning in Latin lookup 0 per glyph data 1" egrave dx=0 dy=0 dh=-20 dv=0 dx=0 dy=0 dh=0 dv=0
PairPos2: "'kern' Horizontal Kerning in Latin lookup 0 per glyph data 1" ccedilla dx=0 dy=0 dh=-20 dv=0 dx=0 dy=0 dh=0 dv=0
PairPos2: "'kern' Horizontal Kerning in Latin lookup 0 per glyph data 1" aring dx=0 dy=0 dh=-20 dv=0 dx=0 dy=0 dh=0 dv=0
PairPos2: "'kern' Horizontal Kerning in Latin lookup 0 per glyph data 1" adieresis dx=0 dy=0 dh=-20 dv=0 dx=0 dy=0 dh=0 dv=0
PairPos2: "'kern' Horizontal Kerning in Latin lookup 0 per glyph data 1" atilde dx=0 dy=0 dh=-20 dv=0 dx=0 dy=0 dh=0 dv=0
PairPos2: "'kern' Horizontal Kerning in Latin lookup 0 per glyph data 1" acircumflex dx=0 dy=0 dh=-20 dv=0 dx=0 dy=0 dh=0 dv=0
PairPos2: "'kern' Horizontal Kerning in Latin lookup 0 per glyph data 1" aacute dx=0 dy=0 dh=-20 dv=0 dx=0 dy=0 dh=0 dv=0
PairPos2: "'kern' Horizontal Kerning in Latin lookup 0 per glyph data 1" agrave dx=0 dy=0 dh=-20 dv=0 dx=0 dy=0 dh=0 dv=0
PairPos2: "'kern' Horizontal Kerning in Latin lookup 0 per glyph data 1" Yacute dx=0 dy=0 dh=-40 dv=0 dx=0 dy=0 dh=0 dv=0
PairPos2: "'kern' Horizontal Kerning in Latin lookup 0 per glyph data 1" cent dx=0 dy=0 dh=-20 dv=0 dx=0 dy=0 dh=0 dv=0
PairPos2: "'kern' Horizontal Kerning in Latin lookup 0 per glyph data 1" bar dx=0 dy=0 dh=-10 dv=0 dx=0 dy=0 dh=0 dv=0
PairPos2: "'kern' Horizontal Kerning in Latin lookup 0 per glyph data 1" y dx=0 dy=0 dh=-40 dv=0 dx=0 dy=0 dh=0 dv=0
PairPos2: "'kern' Horizontal Kerning in Latin lookup 0 per glyph data 1" w dx=0 dy=0 dh=-40 dv=0 dx=0 dy=0 dh=0 dv=0
PairPos2: "'kern' Horizontal Kerning in Latin lookup 0 per glyph data 1" v dx=0 dy=0 dh=-40 dv=0 dx=0 dy=0 dh=0 dv=0
PairPos2: "'kern' Horizontal Kerning in Latin lookup 0 per glyph data 1" u dx=0 dy=0 dh=-20 dv=0 dx=0 dy=0 dh=0 dv=0
PairPos2: "'kern' Horizontal Kerning in Latin lookup 0 per glyph data 1" t dx=0 dy=0 dh=-20 dv=0 dx=0 dy=0 dh=0 dv=0
PairPos2: "'kern' Horizontal Kerning in Latin lookup 0 per glyph data 1" s dx=0 dy=0 dh=-20 dv=0 dx=0 dy=0 dh=0 dv=0
PairPos2: "'kern' Horizontal Kerning in Latin lookup 0 per glyph data 1" r dx=0 dy=0 dh=-10 dv=0 dx=0 dy=0 dh=0 dv=0
PairPos2: "'kern' Horizontal Kerning in Latin lookup 0 per glyph data 1" q dx=0 dy=0 dh=-20 dv=0 dx=0 dy=0 dh=0 dv=0
PairPos2: "'kern' Horizontal Kerning in Latin lookup 0 per glyph data 1" p dx=0 dy=0 dh=-10 dv=0 dx=0 dy=0 dh=0 dv=0
PairPos2: "'kern' Horizontal Kerning in Latin lookup 0 per glyph data 1" n dx=0 dy=0 dh=-10 dv=0 dx=0 dy=0 dh=0 dv=0
PairPos2: "'kern' Horizontal Kerning in Latin lookup 0 per glyph data 1" m dx=0 dy=0 dh=-10 dv=0 dx=0 dy=0 dh=0 dv=0
PairPos2: "'kern' Horizontal Kerning in Latin lookup 0 per glyph data 1" l dx=0 dy=0 dh=-20 dv=0 dx=0 dy=0 dh=0 dv=0
PairPos2: "'kern' Horizontal Kerning in Latin lookup 0 per glyph data 1" k dx=0 dy=0 dh=-10 dv=0 dx=0 dy=0 dh=0 dv=0
PairPos2: "'kern' Horizontal Kerning in Latin lookup 0 per glyph data 1" j dx=0 dy=0 dh=-10 dv=0 dx=0 dy=0 dh=0 dv=0
PairPos2: "'kern' Horizontal Kerning in Latin lookup 0 per glyph data 1" i dx=0 dy=0 dh=-10 dv=0 dx=0 dy=0 dh=0 dv=0
PairPos2: "'kern' Horizontal Kerning in Latin lookup 0 per glyph data 1" h dx=0 dy=0 dh=-10 dv=0 dx=0 dy=0 dh=0 dv=0
PairPos2: "'kern' Horizontal Kerning in Latin lookup 0 per glyph data 1" g dx=0 dy=0 dh=-20 dv=0 dx=0 dy=0 dh=0 dv=0
PairPos2: "'kern' Horizontal Kerning in Latin lookup 0 per glyph data 1" f dx=0 dy=0 dh=-10 dv=0 dx=0 dy=0 dh=0 dv=0
PairPos2: "'kern' Horizontal Kerning in Latin lookup 0 per glyph data 1" e dx=0 dy=0 dh=-20 dv=0 dx=0 dy=0 dh=0 dv=0
PairPos2: "'kern' Horizontal Kerning in Latin lookup 0 per glyph data 1" d dx=0 dy=0 dh=-20 dv=0 dx=0 dy=0 dh=0 dv=0
PairPos2: "'kern' Horizontal Kerning in Latin lookup 0 per glyph data 1" c dx=0 dy=0 dh=-20 dv=0 dx=0 dy=0 dh=0 dv=0
PairPos2: "'kern' Horizontal Kerning in Latin lookup 0 per glyph data 1" b dx=0 dy=0 dh=-10 dv=0 dx=0 dy=0 dh=0 dv=0
PairPos2: "'kern' Horizontal Kerning in Latin lookup 0 per glyph data 1" a dx=0 dy=0 dh=-20 dv=0 dx=0 dy=0 dh=0 dv=0
PairPos2: "'kern' Horizontal Kerning in Latin lookup 0 per glyph data 1" bracketright dx=0 dy=0 dh=-10 dv=0 dx=0 dy=0 dh=0 dv=0
PairPos2: "'kern' Horizontal Kerning in Latin lookup 0 per glyph data 1" bracketleft dx=0 dy=0 dh=-10 dv=0 dx=0 dy=0 dh=0 dv=0
PairPos2: "'kern' Horizontal Kerning in Latin lookup 0 per glyph data 1" Y dx=0 dy=0 dh=-40 dv=0 dx=0 dy=0 dh=0 dv=0
PairPos2: "'kern' Horizontal Kerning in Latin lookup 0 per glyph data 1" T dx=0 dy=0 dh=-30 dv=0 dx=0 dy=0 dh=0 dv=0
PairPos2: "'kern' Horizontal Kerning in Latin lookup 0 per glyph data 1" S dx=0 dy=0 dh=-20 dv=0 dx=0 dy=0 dh=0 dv=0
PairPos2: "'kern' Horizontal Kerning in Latin lookup 0 per glyph data 1" parenright dx=0 dy=0 dh=-10 dv=0 dx=0 dy=0 dh=0 dv=0
PairPos2: "'kern' Horizontal Kerning in Latin lookup 0 per glyph data 1" parenleft dx=0 dy=0 dh=-10 dv=0 dx=0 dy=0 dh=0 dv=0
EndChar

StartChar: H
Encoding: 72 72 43
Width: 591
GlyphClass: 2
Flags: W
LayerCount: 2
Fore
SplineSet
133 0 m 1,0,-1
 50 0 l 1,1,-1
 50 700 l 1,2,-1
 133 700 l 1,3,-1
 133 378 l 1,4,-1
 458 378 l 1,5,-1
 458 700 l 1,6,-1
 541 700 l 1,7,-1
 541 0 l 1,8,-1
 458 0 l 1,9,-1
 458 368 l 1,10,-1
 133 368 l 1,11,-1
 133 0 l 1,0,-1
EndSplineSet
EndChar

StartChar: I
Encoding: 73 73 44
Width: 318
GlyphClass: 2
Flags: W
LayerCount: 2
Fore
SplineSet
70 690 m 1,0,-1
 70 700 l 1,1,-1
 248 700 l 1,2,-1
 248 690 l 1,3,-1
 199 690 l 1,4,-1
 199 10 l 1,5,-1
 248 10 l 1,6,-1
 248 0 l 1,7,-1
 70 0 l 1,8,-1
 70 10 l 1,9,-1
 116 10 l 1,10,-1
 116 690 l 1,11,-1
 70 690 l 1,0,-1
EndSplineSet
EndChar

StartChar: J
Encoding: 74 74 45
Width: 293
GlyphClass: 2
Flags: W
LayerCount: 2
Fore
SplineSet
45 690 m 1,0,-1
 45 700 l 1,1,-1
 223 700 l 1,2,-1
 223 132 l 2,3,4
 223 53 223 53 191 26.5 c 128,-1,5
 159 0 159 0 94.5 0 c 128,-1,6
 30 0 30 0 -20 19 c 1,7,-1
 -17 27 l 1,8,9
 31 8 31 8 82 8 c 0,10,11
 116 8 116 8 127.5 37 c 128,-1,12
 139 66 139 66 139 131 c 2,13,-1
 139 690 l 1,14,-1
 45 690 l 1,0,-1
EndSplineSet
EndChar

StartChar: K
Encoding: 75 75 46
Width: 601
GlyphClass: 2
Flags: W
LayerCount: 2
Fore
SplineSet
153 700 m 1,0,-1
 153 258 l 1,1,-1
 476 700 l 1,2,-1
 484 693 l 1,3,-1
 305 449 l 1,4,-1
 571 0 l 1,5,-1
 478 0 l 1,6,-1
 254 379 l 1,7,-1
 153 240 l 1,8,-1
 153 0 l 1,9,-1
 70 0 l 1,10,-1
 70 700 l 1,11,-1
 153 700 l 1,0,-1
EndSplineSet
PairPos2: "'kern' Horizontal Kerning in Latin lookup 0 per glyph data 1" OE dx=0 dy=0 dh=-50 dv=0 dx=0 dy=0 dh=0 dv=0
PairPos2: "'kern' Horizontal Kerning in Latin lookup 0 per glyph data 1" udieresis dx=0 dy=0 dh=-10 dv=0 dx=0 dy=0 dh=0 dv=0
PairPos2: "'kern' Horizontal Kerning in Latin lookup 0 per glyph data 1" ucircumflex dx=0 dy=0 dh=-10 dv=0 dx=0 dy=0 dh=0 dv=0
PairPos2: "'kern' Horizontal Kerning in Latin lookup 0 per glyph data 1" uacute dx=0 dy=0 dh=-10 dv=0 dx=0 dy=0 dh=0 dv=0
PairPos2: "'kern' Horizontal Kerning in Latin lookup 0 per glyph data 1" ugrave dx=0 dy=0 dh=-10 dv=0 dx=0 dy=0 dh=0 dv=0
PairPos2: "'kern' Horizontal Kerning in Latin lookup 0 per glyph data 1" odieresis dx=0 dy=0 dh=-20 dv=0 dx=0 dy=0 dh=0 dv=0
PairPos2: "'kern' Horizontal Kerning in Latin lookup 0 per glyph data 1" otilde dx=0 dy=0 dh=-20 dv=0 dx=0 dy=0 dh=0 dv=0
PairPos2: "'kern' Horizontal Kerning in Latin lookup 0 per glyph data 1" ocircumflex dx=0 dy=0 dh=-20 dv=0 dx=0 dy=0 dh=0 dv=0
PairPos2: "'kern' Horizontal Kerning in Latin lookup 0 per glyph data 1" oacute dx=0 dy=0 dh=-20 dv=0 dx=0 dy=0 dh=0 dv=0
PairPos2: "'kern' Horizontal Kerning in Latin lookup 0 per glyph data 1" ograve dx=0 dy=0 dh=-20 dv=0 dx=0 dy=0 dh=0 dv=0
PairPos2: "'kern' Horizontal Kerning in Latin lookup 0 per glyph data 1" eth dx=0 dy=0 dh=-20 dv=0 dx=0 dy=0 dh=0 dv=0
PairPos2: "'kern' Horizontal Kerning in Latin lookup 0 per glyph data 1" edieresis dx=0 dy=0 dh=-20 dv=0 dx=0 dy=0 dh=0 dv=0
PairPos2: "'kern' Horizontal Kerning in Latin lookup 0 per glyph data 1" ecircumflex dx=0 dy=0 dh=-20 dv=0 dx=0 dy=0 dh=0 dv=0
PairPos2: "'kern' Horizontal Kerning in Latin lookup 0 per glyph data 1" eacute dx=0 dy=0 dh=-20 dv=0 dx=0 dy=0 dh=0 dv=0
PairPos2: "'kern' Horizontal Kerning in Latin lookup 0 per glyph data 1" egrave dx=0 dy=0 dh=-20 dv=0 dx=0 dy=0 dh=0 dv=0
PairPos2: "'kern' Horizontal Kerning in Latin lookup 0 per glyph data 1" ccedilla dx=0 dy=0 dh=-20 dv=0 dx=0 dy=0 dh=0 dv=0
PairPos2: "'kern' Horizontal Kerning in Latin lookup 0 per glyph data 1" Thorn dx=0 dy=0 dh=-10 dv=0 dx=0 dy=0 dh=0 dv=0
PairPos2: "'kern' Horizontal Kerning in Latin lookup 0 per glyph data 1" Udieresis dx=0 dy=0 dh=-50 dv=0 dx=0 dy=0 dh=0 dv=0
PairPos2: "'kern' Horizontal Kerning in Latin lookup 0 per glyph data 1" Ucircumflex dx=0 dy=0 dh=-50 dv=0 dx=0 dy=0 dh=0 dv=0
PairPos2: "'kern' Horizontal Kerning in Latin lookup 0 per glyph data 1" Uacute dx=0 dy=0 dh=-50 dv=0 dx=0 dy=0 dh=0 dv=0
PairPos2: "'kern' Horizontal Kerning in Latin lookup 0 per glyph data 1" Ugrave dx=0 dy=0 dh=-50 dv=0 dx=0 dy=0 dh=0 dv=0
PairPos2: "'kern' Horizontal Kerning in Latin lookup 0 per glyph data 1" Odieresis dx=0 dy=0 dh=-50 dv=0 dx=0 dy=0 dh=0 dv=0
PairPos2: "'kern' Horizontal Kerning in Latin lookup 0 per glyph data 1" Otilde dx=0 dy=0 dh=-50 dv=0 dx=0 dy=0 dh=0 dv=0
PairPos2: "'kern' Horizontal Kerning in Latin lookup 0 per glyph data 1" Ocircumflex dx=0 dy=0 dh=-50 dv=0 dx=0 dy=0 dh=0 dv=0
PairPos2: "'kern' Horizontal Kerning in Latin lookup 0 per glyph data 1" Oacute dx=0 dy=0 dh=-50 dv=0 dx=0 dy=0 dh=0 dv=0
PairPos2: "'kern' Horizontal Kerning in Latin lookup 0 per glyph data 1" Ograve dx=0 dy=0 dh=-50 dv=0 dx=0 dy=0 dh=0 dv=0
PairPos2: "'kern' Horizontal Kerning in Latin lookup 0 per glyph data 1" Ntilde dx=0 dy=0 dh=-10 dv=0 dx=0 dy=0 dh=0 dv=0
PairPos2: "'kern' Horizontal Kerning in Latin lookup 0 per glyph data 1" Edieresis dx=0 dy=0 dh=-10 dv=0 dx=0 dy=0 dh=0 dv=0
PairPos2: "'kern' Horizontal Kerning in Latin lookup 0 per glyph data 1" Ecircumflex dx=0 dy=0 dh=-10 dv=0 dx=0 dy=0 dh=0 dv=0
PairPos2: "'kern' Horizontal Kerning in Latin lookup 0 per glyph data 1" Eacute dx=0 dy=0 dh=-10 dv=0 dx=0 dy=0 dh=0 dv=0
PairPos2: "'kern' Horizontal Kerning in Latin lookup 0 per glyph data 1" Egrave dx=0 dy=0 dh=-10 dv=0 dx=0 dy=0 dh=0 dv=0
PairPos2: "'kern' Horizontal Kerning in Latin lookup 0 per glyph data 1" Ccedilla dx=0 dy=0 dh=-30 dv=0 dx=0 dy=0 dh=0 dv=0
PairPos2: "'kern' Horizontal Kerning in Latin lookup 0 per glyph data 1" cent dx=0 dy=0 dh=-20 dv=0 dx=0 dy=0 dh=0 dv=0
PairPos2: "'kern' Horizontal Kerning in Latin lookup 0 per glyph data 1" y dx=0 dy=0 dh=-80 dv=0 dx=0 dy=0 dh=0 dv=0
PairPos2: "'kern' Horizontal Kerning in Latin lookup 0 per glyph data 1" w dx=0 dy=0 dh=-80 dv=0 dx=0 dy=0 dh=0 dv=0
PairPos2: "'kern' Horizontal Kerning in Latin lookup 0 per glyph data 1" v dx=0 dy=0 dh=-80 dv=0 dx=0 dy=0 dh=0 dv=0
PairPos2: "'kern' Horizontal Kerning in Latin lookup 0 per glyph data 1" t dx=0 dy=0 dh=-10 dv=0 dx=0 dy=0 dh=0 dv=0
PairPos2: "'kern' Horizontal Kerning in Latin lookup 0 per glyph data 1" o dx=0 dy=0 dh=-20 dv=0 dx=0 dy=0 dh=0 dv=0
PairPos2: "'kern' Horizontal Kerning in Latin lookup 0 per glyph data 1" l dx=0 dy=0 dh=-10 dv=0 dx=0 dy=0 dh=0 dv=0
PairPos2: "'kern' Horizontal Kerning in Latin lookup 0 per glyph data 1" e dx=0 dy=0 dh=-20 dv=0 dx=0 dy=0 dh=0 dv=0
PairPos2: "'kern' Horizontal Kerning in Latin lookup 0 per glyph data 1" c dx=0 dy=0 dh=-20 dv=0 dx=0 dy=0 dh=0 dv=0
PairPos2: "'kern' Horizontal Kerning in Latin lookup 0 per glyph data 1" W dx=0 dy=0 dh=-30 dv=0 dx=0 dy=0 dh=0 dv=0
PairPos2: "'kern' Horizontal Kerning in Latin lookup 0 per glyph data 1" U dx=0 dy=0 dh=-50 dv=0 dx=0 dy=0 dh=0 dv=0
PairPos2: "'kern' Horizontal Kerning in Latin lookup 0 per glyph data 1" R dx=0 dy=0 dh=-10 dv=0 dx=0 dy=0 dh=0 dv=0
PairPos2: "'kern' Horizontal Kerning in Latin lookup 0 per glyph data 1" Q dx=0 dy=0 dh=-50 dv=0 dx=0 dy=0 dh=0 dv=0
PairPos2: "'kern' Horizontal Kerning in Latin lookup 0 per glyph data 1" P dx=0 dy=0 dh=-10 dv=0 dx=0 dy=0 dh=0 dv=0
PairPos2: "'kern' Horizontal Kerning in Latin lookup 0 per glyph data 1" O dx=0 dy=0 dh=-50 dv=0 dx=0 dy=0 dh=0 dv=0
PairPos2: "'kern' Horizontal Kerning in Latin lookup 0 per glyph data 1" N dx=0 dy=0 dh=-10 dv=0 dx=0 dy=0 dh=0 dv=0
PairPos2: "'kern' Horizontal Kerning in Latin lookup 0 per glyph data 1" L dx=0 dy=0 dh=-10 dv=0 dx=0 dy=0 dh=0 dv=0
PairPos2: "'kern' Horizontal Kerning in Latin lookup 0 per glyph data 1" K dx=0 dy=0 dh=-10 dv=0 dx=0 dy=0 dh=0 dv=0
PairPos2: "'kern' Horizontal Kerning in Latin lookup 0 per glyph data 1" H dx=0 dy=0 dh=-10 dv=0 dx=0 dy=0 dh=0 dv=0
PairPos2: "'kern' Horizontal Kerning in Latin lookup 0 per glyph data 1" G dx=0 dy=0 dh=-30 dv=0 dx=0 dy=0 dh=0 dv=0
PairPos2: "'kern' Horizontal Kerning in Latin lookup 0 per glyph data 1" F dx=0 dy=0 dh=-10 dv=0 dx=0 dy=0 dh=0 dv=0
PairPos2: "'kern' Horizontal Kerning in Latin lookup 0 per glyph data 1" E dx=0 dy=0 dh=-10 dv=0 dx=0 dy=0 dh=0 dv=0
PairPos2: "'kern' Horizontal Kerning in Latin lookup 0 per glyph data 1" D dx=0 dy=0 dh=-10 dv=0 dx=0 dy=0 dh=0 dv=0
PairPos2: "'kern' Horizontal Kerning in Latin lookup 0 per glyph data 1" C dx=0 dy=0 dh=-30 dv=0 dx=0 dy=0 dh=0 dv=0
PairPos2: "'kern' Horizontal Kerning in Latin lookup 0 per glyph data 1" B dx=0 dy=0 dh=-10 dv=0 dx=0 dy=0 dh=0 dv=0
EndChar

StartChar: L
Encoding: 76 76 47
Width: 480
GlyphClass: 2
Flags: W
LayerCount: 2
Fore
SplineSet
450 0 m 1,0,-1
 70 0 l 1,1,-1
 70 700 l 1,2,-1
 153 700 l 1,3,-1
 153 10 l 1,4,-1
 450 10 l 1,5,-1
 450 0 l 1,0,-1
EndSplineSet
PairPos2: "'kern' Horizontal Kerning in Latin lookup 0 per glyph data 1" Ydieresis dx=0 dy=0 dh=-70 dv=0 dx=0 dy=0 dh=0 dv=0
PairPos2: "'kern' Horizontal Kerning in Latin lookup 0 per glyph data 1" OE dx=0 dy=0 dh=-50 dv=0 dx=0 dy=0 dh=0 dv=0
PairPos2: "'kern' Horizontal Kerning in Latin lookup 0 per glyph data 1" dotlessi dx=0 dy=0 dh=-10 dv=0 dx=0 dy=0 dh=0 dv=0
PairPos2: "'kern' Horizontal Kerning in Latin lookup 0 per glyph data 1" thorn dx=0 dy=0 dh=-10 dv=0 dx=0 dy=0 dh=0 dv=0
PairPos2: "'kern' Horizontal Kerning in Latin lookup 0 per glyph data 1" odieresis dx=0 dy=0 dh=-20 dv=0 dx=0 dy=0 dh=0 dv=0
PairPos2: "'kern' Horizontal Kerning in Latin lookup 0 per glyph data 1" otilde dx=0 dy=0 dh=-20 dv=0 dx=0 dy=0 dh=0 dv=0
PairPos2: "'kern' Horizontal Kerning in Latin lookup 0 per glyph data 1" ocircumflex dx=0 dy=0 dh=-20 dv=0 dx=0 dy=0 dh=0 dv=0
PairPos2: "'kern' Horizontal Kerning in Latin lookup 0 per glyph data 1" oacute dx=0 dy=0 dh=-20 dv=0 dx=0 dy=0 dh=0 dv=0
PairPos2: "'kern' Horizontal Kerning in Latin lookup 0 per glyph data 1" ograve dx=0 dy=0 dh=-20 dv=0 dx=0 dy=0 dh=0 dv=0
PairPos2: "'kern' Horizontal Kerning in Latin lookup 0 per glyph data 1" ntilde dx=0 dy=0 dh=-10 dv=0 dx=0 dy=0 dh=0 dv=0
PairPos2: "'kern' Horizontal Kerning in Latin lookup 0 per glyph data 1" eth dx=0 dy=0 dh=-20 dv=0 dx=0 dy=0 dh=0 dv=0
PairPos2: "'kern' Horizontal Kerning in Latin lookup 0 per glyph data 1" idieresis dx=0 dy=0 dh=-10 dv=0 dx=0 dy=0 dh=0 dv=0
PairPos2: "'kern' Horizontal Kerning in Latin lookup 0 per glyph data 1" icircumflex dx=0 dy=0 dh=-10 dv=0 dx=0 dy=0 dh=0 dv=0
PairPos2: "'kern' Horizontal Kerning in Latin lookup 0 per glyph data 1" iacute dx=0 dy=0 dh=-10 dv=0 dx=0 dy=0 dh=0 dv=0
PairPos2: "'kern' Horizontal Kerning in Latin lookup 0 per glyph data 1" igrave dx=0 dy=0 dh=-10 dv=0 dx=0 dy=0 dh=0 dv=0
PairPos2: "'kern' Horizontal Kerning in Latin lookup 0 per glyph data 1" edieresis dx=0 dy=0 dh=-20 dv=0 dx=0 dy=0 dh=0 dv=0
PairPos2: "'kern' Horizontal Kerning in Latin lookup 0 per glyph data 1" ecircumflex dx=0 dy=0 dh=-20 dv=0 dx=0 dy=0 dh=0 dv=0
PairPos2: "'kern' Horizontal Kerning in Latin lookup 0 per glyph data 1" eacute dx=0 dy=0 dh=-20 dv=0 dx=0 dy=0 dh=0 dv=0
PairPos2: "'kern' Horizontal Kerning in Latin lookup 0 per glyph data 1" egrave dx=0 dy=0 dh=-20 dv=0 dx=0 dy=0 dh=0 dv=0
PairPos2: "'kern' Horizontal Kerning in Latin lookup 0 per glyph data 1" ccedilla dx=0 dy=0 dh=-20 dv=0 dx=0 dy=0 dh=0 dv=0
PairPos2: "'kern' Horizontal Kerning in Latin lookup 0 per glyph data 1" aring dx=0 dy=0 dh=-10 dv=0 dx=0 dy=0 dh=0 dv=0
PairPos2: "'kern' Horizontal Kerning in Latin lookup 0 per glyph data 1" adieresis dx=0 dy=0 dh=-10 dv=0 dx=0 dy=0 dh=0 dv=0
PairPos2: "'kern' Horizontal Kerning in Latin lookup 0 per glyph data 1" atilde dx=0 dy=0 dh=-10 dv=0 dx=0 dy=0 dh=0 dv=0
PairPos2: "'kern' Horizontal Kerning in Latin lookup 0 per glyph data 1" acircumflex dx=0 dy=0 dh=-10 dv=0 dx=0 dy=0 dh=0 dv=0
PairPos2: "'kern' Horizontal Kerning in Latin lookup 0 per glyph data 1" aacute dx=0 dy=0 dh=-10 dv=0 dx=0 dy=0 dh=0 dv=0
PairPos2: "'kern' Horizontal Kerning in Latin lookup 0 per glyph data 1" agrave dx=0 dy=0 dh=-10 dv=0 dx=0 dy=0 dh=0 dv=0
PairPos2: "'kern' Horizontal Kerning in Latin lookup 0 per glyph data 1" Yacute dx=0 dy=0 dh=-70 dv=0 dx=0 dy=0 dh=0 dv=0
PairPos2: "'kern' Horizontal Kerning in Latin lookup 0 per glyph data 1" Udieresis dx=0 dy=0 dh=-30 dv=0 dx=0 dy=0 dh=0 dv=0
PairPos2: "'kern' Horizontal Kerning in Latin lookup 0 per glyph data 1" Ucircumflex dx=0 dy=0 dh=-30 dv=0 dx=0 dy=0 dh=0 dv=0
PairPos2: "'kern' Horizontal Kerning in Latin lookup 0 per glyph data 1" Uacute dx=0 dy=0 dh=-30 dv=0 dx=0 dy=0 dh=0 dv=0
PairPos2: "'kern' Horizontal Kerning in Latin lookup 0 per glyph data 1" Ugrave dx=0 dy=0 dh=-30 dv=0 dx=0 dy=0 dh=0 dv=0
PairPos2: "'kern' Horizontal Kerning in Latin lookup 0 per glyph data 1" Odieresis dx=0 dy=0 dh=-50 dv=0 dx=0 dy=0 dh=0 dv=0
PairPos2: "'kern' Horizontal Kerning in Latin lookup 0 per glyph data 1" Otilde dx=0 dy=0 dh=-50 dv=0 dx=0 dy=0 dh=0 dv=0
PairPos2: "'kern' Horizontal Kerning in Latin lookup 0 per glyph data 1" Ocircumflex dx=0 dy=0 dh=-50 dv=0 dx=0 dy=0 dh=0 dv=0
PairPos2: "'kern' Horizontal Kerning in Latin lookup 0 per glyph data 1" Oacute dx=0 dy=0 dh=-50 dv=0 dx=0 dy=0 dh=0 dv=0
PairPos2: "'kern' Horizontal Kerning in Latin lookup 0 per glyph data 1" Ograve dx=0 dy=0 dh=-50 dv=0 dx=0 dy=0 dh=0 dv=0
PairPos2: "'kern' Horizontal Kerning in Latin lookup 0 per glyph data 1" Ccedilla dx=0 dy=0 dh=-40 dv=0 dx=0 dy=0 dh=0 dv=0
PairPos2: "'kern' Horizontal Kerning in Latin lookup 0 per glyph data 1" cent dx=0 dy=0 dh=-20 dv=0 dx=0 dy=0 dh=0 dv=0
PairPos2: "'kern' Horizontal Kerning in Latin lookup 0 per glyph data 1" bar dx=0 dy=0 dh=-10 dv=0 dx=0 dy=0 dh=0 dv=0
PairPos2: "'kern' Horizontal Kerning in Latin lookup 0 per glyph data 1" y dx=0 dy=0 dh=-40 dv=0 dx=0 dy=0 dh=0 dv=0
PairPos2: "'kern' Horizontal Kerning in Latin lookup 0 per glyph data 1" w dx=0 dy=0 dh=-40 dv=0 dx=0 dy=0 dh=0 dv=0
PairPos2: "'kern' Horizontal Kerning in Latin lookup 0 per glyph data 1" v dx=0 dy=0 dh=-40 dv=0 dx=0 dy=0 dh=0 dv=0
PairPos2: "'kern' Horizontal Kerning in Latin lookup 0 per glyph data 1" u dx=0 dy=0 dh=-20 dv=0 dx=0 dy=0 dh=0 dv=0
PairPos2: "'kern' Horizontal Kerning in Latin lookup 0 per glyph data 1" r dx=0 dy=0 dh=-10 dv=0 dx=0 dy=0 dh=0 dv=0
PairPos2: "'kern' Horizontal Kerning in Latin lookup 0 per glyph data 1" p dx=0 dy=0 dh=-10 dv=0 dx=0 dy=0 dh=0 dv=0
PairPos2: "'kern' Horizontal Kerning in Latin lookup 0 per glyph data 1" o dx=0 dy=0 dh=-20 dv=0 dx=0 dy=0 dh=0 dv=0
PairPos2: "'kern' Horizontal Kerning in Latin lookup 0 per glyph data 1" n dx=0 dy=0 dh=-10 dv=0 dx=0 dy=0 dh=0 dv=0
PairPos2: "'kern' Horizontal Kerning in Latin lookup 0 per glyph data 1" m dx=0 dy=0 dh=-10 dv=0 dx=0 dy=0 dh=0 dv=0
PairPos2: "'kern' Horizontal Kerning in Latin lookup 0 per glyph data 1" k dx=0 dy=0 dh=-10 dv=0 dx=0 dy=0 dh=0 dv=0
PairPos2: "'kern' Horizontal Kerning in Latin lookup 0 per glyph data 1" j dx=0 dy=0 dh=-10 dv=0 dx=0 dy=0 dh=0 dv=0
PairPos2: "'kern' Horizontal Kerning in Latin lookup 0 per glyph data 1" i dx=0 dy=0 dh=-10 dv=0 dx=0 dy=0 dh=0 dv=0
PairPos2: "'kern' Horizontal Kerning in Latin lookup 0 per glyph data 1" h dx=0 dy=0 dh=-10 dv=0 dx=0 dy=0 dh=0 dv=0
PairPos2: "'kern' Horizontal Kerning in Latin lookup 0 per glyph data 1" f dx=0 dy=0 dh=-10 dv=0 dx=0 dy=0 dh=0 dv=0
PairPos2: "'kern' Horizontal Kerning in Latin lookup 0 per glyph data 1" e dx=0 dy=0 dh=-20 dv=0 dx=0 dy=0 dh=0 dv=0
PairPos2: "'kern' Horizontal Kerning in Latin lookup 0 per glyph data 1" c dx=0 dy=0 dh=-20 dv=0 dx=0 dy=0 dh=0 dv=0
PairPos2: "'kern' Horizontal Kerning in Latin lookup 0 per glyph data 1" b dx=0 dy=0 dh=-10 dv=0 dx=0 dy=0 dh=0 dv=0
PairPos2: "'kern' Horizontal Kerning in Latin lookup 0 per glyph data 1" a dx=0 dy=0 dh=-10 dv=0 dx=0 dy=0 dh=0 dv=0
PairPos2: "'kern' Horizontal Kerning in Latin lookup 0 per glyph data 1" bracketright dx=0 dy=0 dh=-10 dv=0 dx=0 dy=0 dh=0 dv=0
PairPos2: "'kern' Horizontal Kerning in Latin lookup 0 per glyph data 1" bracketleft dx=0 dy=0 dh=-10 dv=0 dx=0 dy=0 dh=0 dv=0
PairPos2: "'kern' Horizontal Kerning in Latin lookup 0 per glyph data 1" Y dx=0 dy=0 dh=-70 dv=0 dx=0 dy=0 dh=0 dv=0
PairPos2: "'kern' Horizontal Kerning in Latin lookup 0 per glyph data 1" W dx=0 dy=0 dh=-100 dv=0 dx=0 dy=0 dh=0 dv=0
PairPos2: "'kern' Horizontal Kerning in Latin lookup 0 per glyph data 1" V dx=0 dy=0 dh=-90 dv=0 dx=0 dy=0 dh=0 dv=0
PairPos2: "'kern' Horizontal Kerning in Latin lookup 0 per glyph data 1" U dx=0 dy=0 dh=-30 dv=0 dx=0 dy=0 dh=0 dv=0
PairPos2: "'kern' Horizontal Kerning in Latin lookup 0 per glyph data 1" T dx=0 dy=0 dh=-80 dv=0 dx=0 dy=0 dh=0 dv=0
PairPos2: "'kern' Horizontal Kerning in Latin lookup 0 per glyph data 1" Q dx=0 dy=0 dh=-50 dv=0 dx=0 dy=0 dh=0 dv=0
PairPos2: "'kern' Horizontal Kerning in Latin lookup 0 per glyph data 1" O dx=0 dy=0 dh=-50 dv=0 dx=0 dy=0 dh=0 dv=0
PairPos2: "'kern' Horizontal Kerning in Latin lookup 0 per glyph data 1" G dx=0 dy=0 dh=-40 dv=0 dx=0 dy=0 dh=0 dv=0
PairPos2: "'kern' Horizontal Kerning in Latin lookup 0 per glyph data 1" C dx=0 dy=0 dh=-40 dv=0 dx=0 dy=0 dh=0 dv=0
PairPos2: "'kern' Horizontal Kerning in Latin lookup 0 per glyph data 1" parenright dx=0 dy=0 dh=-10 dv=0 dx=0 dy=0 dh=0 dv=0
PairPos2: "'kern' Horizontal Kerning in Latin lookup 0 per glyph data 1" parenleft dx=0 dy=0 dh=-10 dv=0 dx=0 dy=0 dh=0 dv=0
EndChar

StartChar: M
Encoding: 77 77 48
Width: 794
GlyphClass: 2
Flags: W
LayerCount: 2
Fore
SplineSet
78 0 m 1,0,-1
 65 0 l 1,1,-1
 152 700 l 1,2,-1
 185 700 l 1,3,-1
 395 53 l 1,4,-1
 604 700 l 1,5,-1
 637 700 l 1,6,-1
 724 0 l 1,7,-1
 641 0 l 1,8,-1
 572 560 l 1,9,-1
 391 0 l 1,10,-1
 328 0 l 1,11,-1
 145 553 l 1,12,-1
 78 0 l 1,0,-1
EndSplineSet
PairPos2: "'kern' Horizontal Kerning in Latin lookup 0 per glyph data 1" OE dx=0 dy=0 dh=-20 dv=0 dx=0 dy=0 dh=0 dv=0
PairPos2: "'kern' Horizontal Kerning in Latin lookup 0 per glyph data 1" odieresis dx=0 dy=0 dh=-20 dv=0 dx=0 dy=0 dh=0 dv=0
PairPos2: "'kern' Horizontal Kerning in Latin lookup 0 per glyph data 1" otilde dx=0 dy=0 dh=-20 dv=0 dx=0 dy=0 dh=0 dv=0
PairPos2: "'kern' Horizontal Kerning in Latin lookup 0 per glyph data 1" ocircumflex dx=0 dy=0 dh=-20 dv=0 dx=0 dy=0 dh=0 dv=0
PairPos2: "'kern' Horizontal Kerning in Latin lookup 0 per glyph data 1" oacute dx=0 dy=0 dh=-20 dv=0 dx=0 dy=0 dh=0 dv=0
PairPos2: "'kern' Horizontal Kerning in Latin lookup 0 per glyph data 1" ograve dx=0 dy=0 dh=-20 dv=0 dx=0 dy=0 dh=0 dv=0
PairPos2: "'kern' Horizontal Kerning in Latin lookup 0 per glyph data 1" eth dx=0 dy=0 dh=-20 dv=0 dx=0 dy=0 dh=0 dv=0
PairPos2: "'kern' Horizontal Kerning in Latin lookup 0 per glyph data 1" edieresis dx=0 dy=0 dh=-10 dv=0 dx=0 dy=0 dh=0 dv=0
PairPos2: "'kern' Horizontal Kerning in Latin lookup 0 per glyph data 1" ecircumflex dx=0 dy=0 dh=-10 dv=0 dx=0 dy=0 dh=0 dv=0
PairPos2: "'kern' Horizontal Kerning in Latin lookup 0 per glyph data 1" eacute dx=0 dy=0 dh=-10 dv=0 dx=0 dy=0 dh=0 dv=0
PairPos2: "'kern' Horizontal Kerning in Latin lookup 0 per glyph data 1" egrave dx=0 dy=0 dh=-10 dv=0 dx=0 dy=0 dh=0 dv=0
PairPos2: "'kern' Horizontal Kerning in Latin lookup 0 per glyph data 1" ccedilla dx=0 dy=0 dh=-10 dv=0 dx=0 dy=0 dh=0 dv=0
PairPos2: "'kern' Horizontal Kerning in Latin lookup 0 per glyph data 1" Oslash dx=0 dy=0 dh=-20 dv=0 dx=0 dy=0 dh=0 dv=0
PairPos2: "'kern' Horizontal Kerning in Latin lookup 0 per glyph data 1" Odieresis dx=0 dy=0 dh=-20 dv=0 dx=0 dy=0 dh=0 dv=0
PairPos2: "'kern' Horizontal Kerning in Latin lookup 0 per glyph data 1" Otilde dx=0 dy=0 dh=-20 dv=0 dx=0 dy=0 dh=0 dv=0
PairPos2: "'kern' Horizontal Kerning in Latin lookup 0 per glyph data 1" Ocircumflex dx=0 dy=0 dh=-20 dv=0 dx=0 dy=0 dh=0 dv=0
PairPos2: "'kern' Horizontal Kerning in Latin lookup 0 per glyph data 1" Oacute dx=0 dy=0 dh=-20 dv=0 dx=0 dy=0 dh=0 dv=0
PairPos2: "'kern' Horizontal Kerning in Latin lookup 0 per glyph data 1" Ograve dx=0 dy=0 dh=-20 dv=0 dx=0 dy=0 dh=0 dv=0
PairPos2: "'kern' Horizontal Kerning in Latin lookup 0 per glyph data 1" Idieresis dx=0 dy=0 dh=-10 dv=0 dx=0 dy=0 dh=0 dv=0
PairPos2: "'kern' Horizontal Kerning in Latin lookup 0 per glyph data 1" Icircumflex dx=0 dy=0 dh=-10 dv=0 dx=0 dy=0 dh=0 dv=0
PairPos2: "'kern' Horizontal Kerning in Latin lookup 0 per glyph data 1" Iacute dx=0 dy=0 dh=-10 dv=0 dx=0 dy=0 dh=0 dv=0
PairPos2: "'kern' Horizontal Kerning in Latin lookup 0 per glyph data 1" Igrave dx=0 dy=0 dh=-10 dv=0 dx=0 dy=0 dh=0 dv=0
PairPos2: "'kern' Horizontal Kerning in Latin lookup 0 per glyph data 1" Ccedilla dx=0 dy=0 dh=-20 dv=0 dx=0 dy=0 dh=0 dv=0
PairPos2: "'kern' Horizontal Kerning in Latin lookup 0 per glyph data 1" cent dx=0 dy=0 dh=-10 dv=0 dx=0 dy=0 dh=0 dv=0
PairPos2: "'kern' Horizontal Kerning in Latin lookup 0 per glyph data 1" y dx=0 dy=0 dh=-30 dv=0 dx=0 dy=0 dh=0 dv=0
PairPos2: "'kern' Horizontal Kerning in Latin lookup 0 per glyph data 1" w dx=0 dy=0 dh=-30 dv=0 dx=0 dy=0 dh=0 dv=0
PairPos2: "'kern' Horizontal Kerning in Latin lookup 0 per glyph data 1" v dx=0 dy=0 dh=-30 dv=0 dx=0 dy=0 dh=0 dv=0
PairPos2: "'kern' Horizontal Kerning in Latin lookup 0 per glyph data 1" o dx=0 dy=0 dh=-20 dv=0 dx=0 dy=0 dh=0 dv=0
PairPos2: "'kern' Horizontal Kerning in Latin lookup 0 per glyph data 1" e dx=0 dy=0 dh=-10 dv=0 dx=0 dy=0 dh=0 dv=0
PairPos2: "'kern' Horizontal Kerning in Latin lookup 0 per glyph data 1" c dx=0 dy=0 dh=-10 dv=0 dx=0 dy=0 dh=0 dv=0
PairPos2: "'kern' Horizontal Kerning in Latin lookup 0 per glyph data 1" Q dx=0 dy=0 dh=-20 dv=0 dx=0 dy=0 dh=0 dv=0
PairPos2: "'kern' Horizontal Kerning in Latin lookup 0 per glyph data 1" O dx=0 dy=0 dh=-20 dv=0 dx=0 dy=0 dh=0 dv=0
PairPos2: "'kern' Horizontal Kerning in Latin lookup 0 per glyph data 1" I dx=0 dy=0 dh=-10 dv=0 dx=0 dy=0 dh=0 dv=0
PairPos2: "'kern' Horizontal Kerning in Latin lookup 0 per glyph data 1" G dx=0 dy=0 dh=-20 dv=0 dx=0 dy=0 dh=0 dv=0
PairPos2: "'kern' Horizontal Kerning in Latin lookup 0 per glyph data 1" C dx=0 dy=0 dh=-20 dv=0 dx=0 dy=0 dh=0 dv=0
EndChar

StartChar: N
Encoding: 78 78 49
Width: 593
GlyphClass: 2
Flags: W
LayerCount: 2
Fore
SplineSet
78 0 m 1,0,-1
 65 0 l 1,1,-1
 65 700 l 1,2,-1
 99 700 l 1,3,-1
 515 53 l 1,4,-1
 515 700 l 1,5,-1
 528 700 l 1,6,-1
 528 0 l 1,7,-1
 455 0 l 1,8,-1
 78 580 l 1,9,-1
 78 0 l 1,0,-1
EndSplineSet
EndChar

StartChar: O
Encoding: 79 79 50
Width: 720
GlyphClass: 2
Flags: W
LayerCount: 2
Fore
SplineSet
50 333 m 0,0,1
 50 515 50 515 138.5 609.5 c 128,-1,2
 227 704 227 704 366 704 c 128,-1,3
 505 704 505 704 587.5 622 c 128,-1,4
 670 540 670 540 670 360 c 128,-1,5
 670 180 670 180 582 88 c 128,-1,6
 494 -4 494 -4 347 -4 c 0,7,8
 220 -4 220 -4 139 69 c 0,9,10
 97 107 97 107 73.5 174.5 c 128,-1,11
 50 242 50 242 50 333 c 0,0,1
197.5 604 m 128,-1,13
 133 514 133 514 133 340 c 128,-1,14
 133 166 133 166 194 86 c 128,-1,15
 255 6 255 6 356.5 6 c 128,-1,16
 458 6 458 6 522.5 96.5 c 128,-1,17
 587 187 587 187 587 359.5 c 128,-1,18
 587 532 587 532 525.5 613 c 128,-1,19
 464 694 464 694 363 694 c 128,-1,12
 262 694 262 694 197.5 604 c 128,-1,13
EndSplineSet
EndChar

StartChar: P
Encoding: 80 80 51
Width: 572
GlyphClass: 2
Flags: W
LayerCount: 2
Fore
SplineSet
70 692 m 1,0,1
 186 700 186 700 274 700 c 0,2,3
 522 700 522 700 522 525 c 0,4,5
 522 444 522 444 480 383 c 0,6,7
 458 350 458 350 412 330.5 c 128,-1,8
 366 311 366 311 301 311 c 2,9,-1
 153 311 l 1,10,-1
 153 0 l 1,11,-1
 70 0 l 1,12,-1
 70 692 l 1,0,1
275 690 m 0,13,14
 217 690 217 690 153 683 c 1,15,-1
 153 321 l 1,16,-1
 301 321 l 1,17,18
 442 327 442 327 442 523 c 0,19,20
 442 603 442 603 400 646.5 c 128,-1,21
 358 690 358 690 275 690 c 0,13,14
EndSplineSet
PairPos2: "'kern' Horizontal Kerning in Latin lookup 0 per glyph data 1" OE dx=0 dy=0 dh=-20 dv=0 dx=0 dy=0 dh=0 dv=0
PairPos2: "'kern' Horizontal Kerning in Latin lookup 0 per glyph data 1" dotlessi dx=0 dy=0 dh=-10 dv=0 dx=0 dy=0 dh=0 dv=0
PairPos2: "'kern' Horizontal Kerning in Latin lookup 0 per glyph data 1" thorn dx=0 dy=0 dh=-10 dv=0 dx=0 dy=0 dh=0 dv=0
PairPos2: "'kern' Horizontal Kerning in Latin lookup 0 per glyph data 1" udieresis dx=0 dy=0 dh=-10 dv=0 dx=0 dy=0 dh=0 dv=0
PairPos2: "'kern' Horizontal Kerning in Latin lookup 0 per glyph data 1" ucircumflex dx=0 dy=0 dh=-10 dv=0 dx=0 dy=0 dh=0 dv=0
PairPos2: "'kern' Horizontal Kerning in Latin lookup 0 per glyph data 1" uacute dx=0 dy=0 dh=-10 dv=0 dx=0 dy=0 dh=0 dv=0
PairPos2: "'kern' Horizontal Kerning in Latin lookup 0 per glyph data 1" ugrave dx=0 dy=0 dh=-10 dv=0 dx=0 dy=0 dh=0 dv=0
PairPos2: "'kern' Horizontal Kerning in Latin lookup 0 per glyph data 1" odieresis dx=0 dy=0 dh=-20 dv=0 dx=0 dy=0 dh=0 dv=0
PairPos2: "'kern' Horizontal Kerning in Latin lookup 0 per glyph data 1" otilde dx=0 dy=0 dh=-20 dv=0 dx=0 dy=0 dh=0 dv=0
PairPos2: "'kern' Horizontal Kerning in Latin lookup 0 per glyph data 1" ocircumflex dx=0 dy=0 dh=-20 dv=0 dx=0 dy=0 dh=0 dv=0
PairPos2: "'kern' Horizontal Kerning in Latin lookup 0 per glyph data 1" oacute dx=0 dy=0 dh=-20 dv=0 dx=0 dy=0 dh=0 dv=0
PairPos2: "'kern' Horizontal Kerning in Latin lookup 0 per glyph data 1" ograve dx=0 dy=0 dh=-20 dv=0 dx=0 dy=0 dh=0 dv=0
PairPos2: "'kern' Horizontal Kerning in Latin lookup 0 per glyph data 1" ntilde dx=0 dy=0 dh=-10 dv=0 dx=0 dy=0 dh=0 dv=0
PairPos2: "'kern' Horizontal Kerning in Latin lookup 0 per glyph data 1" eth dx=0 dy=0 dh=-20 dv=0 dx=0 dy=0 dh=0 dv=0
PairPos2: "'kern' Horizontal Kerning in Latin lookup 0 per glyph data 1" idieresis dx=0 dy=0 dh=-10 dv=0 dx=0 dy=0 dh=0 dv=0
PairPos2: "'kern' Horizontal Kerning in Latin lookup 0 per glyph data 1" icircumflex dx=0 dy=0 dh=-10 dv=0 dx=0 dy=0 dh=0 dv=0
PairPos2: "'kern' Horizontal Kerning in Latin lookup 0 per glyph data 1" iacute dx=0 dy=0 dh=-10 dv=0 dx=0 dy=0 dh=0 dv=0
PairPos2: "'kern' Horizontal Kerning in Latin lookup 0 per glyph data 1" igrave dx=0 dy=0 dh=-10 dv=0 dx=0 dy=0 dh=0 dv=0
PairPos2: "'kern' Horizontal Kerning in Latin lookup 0 per glyph data 1" edieresis dx=0 dy=0 dh=-20 dv=0 dx=0 dy=0 dh=0 dv=0
PairPos2: "'kern' Horizontal Kerning in Latin lookup 0 per glyph data 1" ecircumflex dx=0 dy=0 dh=-20 dv=0 dx=0 dy=0 dh=0 dv=0
PairPos2: "'kern' Horizontal Kerning in Latin lookup 0 per glyph data 1" eacute dx=0 dy=0 dh=-20 dv=0 dx=0 dy=0 dh=0 dv=0
PairPos2: "'kern' Horizontal Kerning in Latin lookup 0 per glyph data 1" egrave dx=0 dy=0 dh=-20 dv=0 dx=0 dy=0 dh=0 dv=0
PairPos2: "'kern' Horizontal Kerning in Latin lookup 0 per glyph data 1" ccedilla dx=0 dy=0 dh=-20 dv=0 dx=0 dy=0 dh=0 dv=0
PairPos2: "'kern' Horizontal Kerning in Latin lookup 0 per glyph data 1" aring dx=0 dy=0 dh=-20 dv=0 dx=0 dy=0 dh=0 dv=0
PairPos2: "'kern' Horizontal Kerning in Latin lookup 0 per glyph data 1" adieresis dx=0 dy=0 dh=-20 dv=0 dx=0 dy=0 dh=0 dv=0
PairPos2: "'kern' Horizontal Kerning in Latin lookup 0 per glyph data 1" atilde dx=0 dy=0 dh=-20 dv=0 dx=0 dy=0 dh=0 dv=0
PairPos2: "'kern' Horizontal Kerning in Latin lookup 0 per glyph data 1" acircumflex dx=0 dy=0 dh=-20 dv=0 dx=0 dy=0 dh=0 dv=0
PairPos2: "'kern' Horizontal Kerning in Latin lookup 0 per glyph data 1" aacute dx=0 dy=0 dh=-20 dv=0 dx=0 dy=0 dh=0 dv=0
PairPos2: "'kern' Horizontal Kerning in Latin lookup 0 per glyph data 1" agrave dx=0 dy=0 dh=-20 dv=0 dx=0 dy=0 dh=0 dv=0
PairPos2: "'kern' Horizontal Kerning in Latin lookup 0 per glyph data 1" Thorn dx=0 dy=0 dh=-20 dv=0 dx=0 dy=0 dh=0 dv=0
PairPos2: "'kern' Horizontal Kerning in Latin lookup 0 per glyph data 1" Odieresis dx=0 dy=0 dh=-20 dv=0 dx=0 dy=0 dh=0 dv=0
PairPos2: "'kern' Horizontal Kerning in Latin lookup 0 per glyph data 1" Otilde dx=0 dy=0 dh=-20 dv=0 dx=0 dy=0 dh=0 dv=0
PairPos2: "'kern' Horizontal Kerning in Latin lookup 0 per glyph data 1" Ocircumflex dx=0 dy=0 dh=-20 dv=0 dx=0 dy=0 dh=0 dv=0
PairPos2: "'kern' Horizontal Kerning in Latin lookup 0 per glyph data 1" Oacute dx=0 dy=0 dh=-20 dv=0 dx=0 dy=0 dh=0 dv=0
PairPos2: "'kern' Horizontal Kerning in Latin lookup 0 per glyph data 1" Ograve dx=0 dy=0 dh=-20 dv=0 dx=0 dy=0 dh=0 dv=0
PairPos2: "'kern' Horizontal Kerning in Latin lookup 0 per glyph data 1" Ntilde dx=0 dy=0 dh=-20 dv=0 dx=0 dy=0 dh=0 dv=0
PairPos2: "'kern' Horizontal Kerning in Latin lookup 0 per glyph data 1" Idieresis dx=0 dy=0 dh=-30 dv=0 dx=0 dy=0 dh=0 dv=0
PairPos2: "'kern' Horizontal Kerning in Latin lookup 0 per glyph data 1" Icircumflex dx=0 dy=0 dh=-30 dv=0 dx=0 dy=0 dh=0 dv=0
PairPos2: "'kern' Horizontal Kerning in Latin lookup 0 per glyph data 1" Iacute dx=0 dy=0 dh=-30 dv=0 dx=0 dy=0 dh=0 dv=0
PairPos2: "'kern' Horizontal Kerning in Latin lookup 0 per glyph data 1" Igrave dx=0 dy=0 dh=-30 dv=0 dx=0 dy=0 dh=0 dv=0
PairPos2: "'kern' Horizontal Kerning in Latin lookup 0 per glyph data 1" Edieresis dx=0 dy=0 dh=-20 dv=0 dx=0 dy=0 dh=0 dv=0
PairPos2: "'kern' Horizontal Kerning in Latin lookup 0 per glyph data 1" Ecircumflex dx=0 dy=0 dh=-20 dv=0 dx=0 dy=0 dh=0 dv=0
PairPos2: "'kern' Horizontal Kerning in Latin lookup 0 per glyph data 1" Eacute dx=0 dy=0 dh=-20 dv=0 dx=0 dy=0 dh=0 dv=0
PairPos2: "'kern' Horizontal Kerning in Latin lookup 0 per glyph data 1" Egrave dx=0 dy=0 dh=-20 dv=0 dx=0 dy=0 dh=0 dv=0
PairPos2: "'kern' Horizontal Kerning in Latin lookup 0 per glyph data 1" AE dx=0 dy=0 dh=-130 dv=0 dx=0 dy=0 dh=0 dv=0
PairPos2: "'kern' Horizontal Kerning in Latin lookup 0 per glyph data 1" Aring dx=0 dy=0 dh=-130 dv=0 dx=0 dy=0 dh=0 dv=0
PairPos2: "'kern' Horizontal Kerning in Latin lookup 0 per glyph data 1" Adieresis dx=0 dy=0 dh=-130 dv=0 dx=0 dy=0 dh=0 dv=0
PairPos2: "'kern' Horizontal Kerning in Latin lookup 0 per glyph data 1" Atilde dx=0 dy=0 dh=-130 dv=0 dx=0 dy=0 dh=0 dv=0
PairPos2: "'kern' Horizontal Kerning in Latin lookup 0 per glyph data 1" Acircumflex dx=0 dy=0 dh=-130 dv=0 dx=0 dy=0 dh=0 dv=0
PairPos2: "'kern' Horizontal Kerning in Latin lookup 0 per glyph data 1" Aacute dx=0 dy=0 dh=-130 dv=0 dx=0 dy=0 dh=0 dv=0
PairPos2: "'kern' Horizontal Kerning in Latin lookup 0 per glyph data 1" Agrave dx=0 dy=0 dh=-130 dv=0 dx=0 dy=0 dh=0 dv=0
PairPos2: "'kern' Horizontal Kerning in Latin lookup 0 per glyph data 1" cent dx=0 dy=0 dh=-20 dv=0 dx=0 dy=0 dh=0 dv=0
PairPos2: "'kern' Horizontal Kerning in Latin lookup 0 per glyph data 1" bar dx=0 dy=0 dh=-10 dv=0 dx=0 dy=0 dh=0 dv=0
PairPos2: "'kern' Horizontal Kerning in Latin lookup 0 per glyph data 1" y dx=0 dy=0 dh=-10 dv=0 dx=0 dy=0 dh=0 dv=0
PairPos2: "'kern' Horizontal Kerning in Latin lookup 0 per glyph data 1" w dx=0 dy=0 dh=-10 dv=0 dx=0 dy=0 dh=0 dv=0
PairPos2: "'kern' Horizontal Kerning in Latin lookup 0 per glyph data 1" v dx=0 dy=0 dh=-10 dv=0 dx=0 dy=0 dh=0 dv=0
PairPos2: "'kern' Horizontal Kerning in Latin lookup 0 per glyph data 1" t dx=0 dy=0 dh=-10 dv=0 dx=0 dy=0 dh=0 dv=0
PairPos2: "'kern' Horizontal Kerning in Latin lookup 0 per glyph data 1" r dx=0 dy=0 dh=-10 dv=0 dx=0 dy=0 dh=0 dv=0
PairPos2: "'kern' Horizontal Kerning in Latin lookup 0 per glyph data 1" q dx=0 dy=0 dh=-20 dv=0 dx=0 dy=0 dh=0 dv=0
PairPos2: "'kern' Horizontal Kerning in Latin lookup 0 per glyph data 1" p dx=0 dy=0 dh=-10 dv=0 dx=0 dy=0 dh=0 dv=0
PairPos2: "'kern' Horizontal Kerning in Latin lookup 0 per glyph data 1" o dx=0 dy=0 dh=-20 dv=0 dx=0 dy=0 dh=0 dv=0
PairPos2: "'kern' Horizontal Kerning in Latin lookup 0 per glyph data 1" n dx=0 dy=0 dh=-10 dv=0 dx=0 dy=0 dh=0 dv=0
PairPos2: "'kern' Horizontal Kerning in Latin lookup 0 per glyph data 1" m dx=0 dy=0 dh=-10 dv=0 dx=0 dy=0 dh=0 dv=0
PairPos2: "'kern' Horizontal Kerning in Latin lookup 0 per glyph data 1" l dx=0 dy=0 dh=-10 dv=0 dx=0 dy=0 dh=0 dv=0
PairPos2: "'kern' Horizontal Kerning in Latin lookup 0 per glyph data 1" k dx=0 dy=0 dh=-10 dv=0 dx=0 dy=0 dh=0 dv=0
PairPos2: "'kern' Horizontal Kerning in Latin lookup 0 per glyph data 1" j dx=0 dy=0 dh=-10 dv=0 dx=0 dy=0 dh=0 dv=0
PairPos2: "'kern' Horizontal Kerning in Latin lookup 0 per glyph data 1" i dx=0 dy=0 dh=-10 dv=0 dx=0 dy=0 dh=0 dv=0
PairPos2: "'kern' Horizontal Kerning in Latin lookup 0 per glyph data 1" h dx=0 dy=0 dh=-10 dv=0 dx=0 dy=0 dh=0 dv=0
PairPos2: "'kern' Horizontal Kerning in Latin lookup 0 per glyph data 1" g dx=0 dy=0 dh=-20 dv=0 dx=0 dy=0 dh=0 dv=0
PairPos2: "'kern' Horizontal Kerning in Latin lookup 0 per glyph data 1" f dx=0 dy=0 dh=-10 dv=0 dx=0 dy=0 dh=0 dv=0
PairPos2: "'kern' Horizontal Kerning in Latin lookup 0 per glyph data 1" e dx=0 dy=0 dh=-20 dv=0 dx=0 dy=0 dh=0 dv=0
PairPos2: "'kern' Horizontal Kerning in Latin lookup 0 per glyph data 1" d dx=0 dy=0 dh=-20 dv=0 dx=0 dy=0 dh=0 dv=0
PairPos2: "'kern' Horizontal Kerning in Latin lookup 0 per glyph data 1" c dx=0 dy=0 dh=-20 dv=0 dx=0 dy=0 dh=0 dv=0
PairPos2: "'kern' Horizontal Kerning in Latin lookup 0 per glyph data 1" b dx=0 dy=0 dh=-10 dv=0 dx=0 dy=0 dh=0 dv=0
PairPos2: "'kern' Horizontal Kerning in Latin lookup 0 per glyph data 1" a dx=0 dy=0 dh=-20 dv=0 dx=0 dy=0 dh=0 dv=0
PairPos2: "'kern' Horizontal Kerning in Latin lookup 0 per glyph data 1" bracketright dx=0 dy=0 dh=-10 dv=0 dx=0 dy=0 dh=0 dv=0
PairPos2: "'kern' Horizontal Kerning in Latin lookup 0 per glyph data 1" bracketleft dx=0 dy=0 dh=-10 dv=0 dx=0 dy=0 dh=0 dv=0
PairPos2: "'kern' Horizontal Kerning in Latin lookup 0 per glyph data 1" T dx=0 dy=0 dh=-30 dv=0 dx=0 dy=0 dh=0 dv=0
PairPos2: "'kern' Horizontal Kerning in Latin lookup 0 per glyph data 1" R dx=0 dy=0 dh=-20 dv=0 dx=0 dy=0 dh=0 dv=0
PairPos2: "'kern' Horizontal Kerning in Latin lookup 0 per glyph data 1" Q dx=0 dy=0 dh=-20 dv=0 dx=0 dy=0 dh=0 dv=0
PairPos2: "'kern' Horizontal Kerning in Latin lookup 0 per glyph data 1" P dx=0 dy=0 dh=-20 dv=0 dx=0 dy=0 dh=0 dv=0
PairPos2: "'kern' Horizontal Kerning in Latin lookup 0 per glyph data 1" O dx=0 dy=0 dh=-20 dv=0 dx=0 dy=0 dh=0 dv=0
PairPos2: "'kern' Horizontal Kerning in Latin lookup 0 per glyph data 1" N dx=0 dy=0 dh=-20 dv=0 dx=0 dy=0 dh=0 dv=0
PairPos2: "'kern' Horizontal Kerning in Latin lookup 0 per glyph data 1" L dx=0 dy=0 dh=-20 dv=0 dx=0 dy=0 dh=0 dv=0
PairPos2: "'kern' Horizontal Kerning in Latin lookup 0 per glyph data 1" K dx=0 dy=0 dh=-20 dv=0 dx=0 dy=0 dh=0 dv=0
PairPos2: "'kern' Horizontal Kerning in Latin lookup 0 per glyph data 1" I dx=0 dy=0 dh=-30 dv=0 dx=0 dy=0 dh=0 dv=0
PairPos2: "'kern' Horizontal Kerning in Latin lookup 0 per glyph data 1" H dx=0 dy=0 dh=-20 dv=0 dx=0 dy=0 dh=0 dv=0
PairPos2: "'kern' Horizontal Kerning in Latin lookup 0 per glyph data 1" F dx=0 dy=0 dh=-20 dv=0 dx=0 dy=0 dh=0 dv=0
PairPos2: "'kern' Horizontal Kerning in Latin lookup 0 per glyph data 1" E dx=0 dy=0 dh=-20 dv=0 dx=0 dy=0 dh=0 dv=0
PairPos2: "'kern' Horizontal Kerning in Latin lookup 0 per glyph data 1" D dx=0 dy=0 dh=-20 dv=0 dx=0 dy=0 dh=0 dv=0
PairPos2: "'kern' Horizontal Kerning in Latin lookup 0 per glyph data 1" B dx=0 dy=0 dh=-20 dv=0 dx=0 dy=0 dh=0 dv=0
PairPos2: "'kern' Horizontal Kerning in Latin lookup 0 per glyph data 1" A dx=0 dy=0 dh=-130 dv=0 dx=0 dy=0 dh=0 dv=0
PairPos2: "'kern' Horizontal Kerning in Latin lookup 0 per glyph data 1" parenright dx=0 dy=0 dh=-10 dv=0 dx=0 dy=0 dh=0 dv=0
PairPos2: "'kern' Horizontal Kerning in Latin lookup 0 per glyph data 1" parenleft dx=0 dy=0 dh=-10 dv=0 dx=0 dy=0 dh=0 dv=0
EndChar

StartChar: Q
Encoding: 81 81 52
Width: 720
GlyphClass: 2
Flags: W
LayerCount: 2
Fore
SplineSet
50 348 m 0,0,1
 50 511 50 511 138 607.5 c 128,-1,2
 226 704 226 704 360 704 c 0,3,4
 498 704 498 704 580 632 c 1,5,6
 670 551 670 551 670 348 c 0,7,8
 670 202 670 202 598.5 110 c 128,-1,9
 527 18 527 18 412 0 c 1,10,11
 475 -14 475 -14 564 -84 c 0,12,13
 598 -111 598 -111 638 -138 c 0,14,15
 728 -198 728 -198 857 -198 c 1,16,-1
 857 -208 l 1,17,18
 675 -208 675 -208 574 -168 c 1,19,20
 489 -133 489 -133 451 -84 c 0,21,22
 434 -62 434 -62 420.5 -44.5 c 128,-1,23
 407 -27 407 -27 393 -15.5 c 128,-1,24
 379 -4 379 -4 360 -4 c 0,25,26
 290 -4 290 -4 237 12 c 128,-1,27
 184 28 184 28 140 66 c 0,28,29
 50 145 50 145 50 348 c 0,0,1
133 350 m 0,30,31
 133 6 133 6 360 6 c 0,32,33
 458 6 458 6 522.5 98 c 128,-1,34
 587 190 587 190 587 350 c 0,35,36
 587 694 587 694 360 694 c 0,37,38
 262 694 262 694 197.5 602 c 128,-1,39
 133 510 133 510 133 350 c 0,30,31
EndSplineSet
EndChar

StartChar: R
Encoding: 82 82 53
Width: 601
GlyphClass: 2
Flags: W
LayerCount: 2
Fore
SplineSet
70 692 m 1,0,1
 186 700 186 700 275 700 c 0,2,3
 522 700 522 700 522 535 c 0,4,5
 522 465 522 465 488 410 c 128,-1,6
 454 355 454 355 371 337 c 1,7,-1
 571 0 l 1,8,-1
 478 0 l 1,9,-1
 282 331 l 1,10,-1
 153 331 l 1,11,-1
 153 0 l 1,12,-1
 70 0 l 1,13,-1
 70 692 l 1,0,1
275 690 m 0,14,15
 217 690 217 690 153 683 c 1,16,-1
 153 341 l 1,17,-1
 301 341 l 1,18,19
 442 347 442 347 442 533 c 0,20,21
 442 609 442 609 400 649.5 c 128,-1,22
 358 690 358 690 275 690 c 0,14,15
EndSplineSet
PairPos2: "'kern' Horizontal Kerning in Latin lookup 0 per glyph data 1" Ydieresis dx=0 dy=0 dh=-20 dv=0 dx=0 dy=0 dh=0 dv=0
PairPos2: "'kern' Horizontal Kerning in Latin lookup 0 per glyph data 1" OE dx=0 dy=0 dh=-30 dv=0 dx=0 dy=0 dh=0 dv=0
PairPos2: "'kern' Horizontal Kerning in Latin lookup 0 per glyph data 1" odieresis dx=0 dy=0 dh=-10 dv=0 dx=0 dy=0 dh=0 dv=0
PairPos2: "'kern' Horizontal Kerning in Latin lookup 0 per glyph data 1" otilde dx=0 dy=0 dh=-10 dv=0 dx=0 dy=0 dh=0 dv=0
PairPos2: "'kern' Horizontal Kerning in Latin lookup 0 per glyph data 1" ocircumflex dx=0 dy=0 dh=-10 dv=0 dx=0 dy=0 dh=0 dv=0
PairPos2: "'kern' Horizontal Kerning in Latin lookup 0 per glyph data 1" oacute dx=0 dy=0 dh=-10 dv=0 dx=0 dy=0 dh=0 dv=0
PairPos2: "'kern' Horizontal Kerning in Latin lookup 0 per glyph data 1" ograve dx=0 dy=0 dh=-10 dv=0 dx=0 dy=0 dh=0 dv=0
PairPos2: "'kern' Horizontal Kerning in Latin lookup 0 per glyph data 1" eth dx=0 dy=0 dh=-10 dv=0 dx=0 dy=0 dh=0 dv=0
PairPos2: "'kern' Horizontal Kerning in Latin lookup 0 per glyph data 1" Yacute dx=0 dy=0 dh=-20 dv=0 dx=0 dy=0 dh=0 dv=0
PairPos2: "'kern' Horizontal Kerning in Latin lookup 0 per glyph data 1" Udieresis dx=0 dy=0 dh=-20 dv=0 dx=0 dy=0 dh=0 dv=0
PairPos2: "'kern' Horizontal Kerning in Latin lookup 0 per glyph data 1" Ucircumflex dx=0 dy=0 dh=-20 dv=0 dx=0 dy=0 dh=0 dv=0
PairPos2: "'kern' Horizontal Kerning in Latin lookup 0 per glyph data 1" Uacute dx=0 dy=0 dh=-20 dv=0 dx=0 dy=0 dh=0 dv=0
PairPos2: "'kern' Horizontal Kerning in Latin lookup 0 per glyph data 1" Ugrave dx=0 dy=0 dh=-20 dv=0 dx=0 dy=0 dh=0 dv=0
PairPos2: "'kern' Horizontal Kerning in Latin lookup 0 per glyph data 1" Oslash dx=0 dy=0 dh=-30 dv=0 dx=0 dy=0 dh=0 dv=0
PairPos2: "'kern' Horizontal Kerning in Latin lookup 0 per glyph data 1" Odieresis dx=0 dy=0 dh=-30 dv=0 dx=0 dy=0 dh=0 dv=0
PairPos2: "'kern' Horizontal Kerning in Latin lookup 0 per glyph data 1" Otilde dx=0 dy=0 dh=-30 dv=0 dx=0 dy=0 dh=0 dv=0
PairPos2: "'kern' Horizontal Kerning in Latin lookup 0 per glyph data 1" Ocircumflex dx=0 dy=0 dh=-30 dv=0 dx=0 dy=0 dh=0 dv=0
PairPos2: "'kern' Horizontal Kerning in Latin lookup 0 per glyph data 1" Oacute dx=0 dy=0 dh=-30 dv=0 dx=0 dy=0 dh=0 dv=0
PairPos2: "'kern' Horizontal Kerning in Latin lookup 0 per glyph data 1" Ograve dx=0 dy=0 dh=-30 dv=0 dx=0 dy=0 dh=0 dv=0
PairPos2: "'kern' Horizontal Kerning in Latin lookup 0 per glyph data 1" Idieresis dx=0 dy=0 dh=-20 dv=0 dx=0 dy=0 dh=0 dv=0
PairPos2: "'kern' Horizontal Kerning in Latin lookup 0 per glyph data 1" Icircumflex dx=0 dy=0 dh=-20 dv=0 dx=0 dy=0 dh=0 dv=0
PairPos2: "'kern' Horizontal Kerning in Latin lookup 0 per glyph data 1" Iacute dx=0 dy=0 dh=-20 dv=0 dx=0 dy=0 dh=0 dv=0
PairPos2: "'kern' Horizontal Kerning in Latin lookup 0 per glyph data 1" Igrave dx=0 dy=0 dh=-20 dv=0 dx=0 dy=0 dh=0 dv=0
PairPos2: "'kern' Horizontal Kerning in Latin lookup 0 per glyph data 1" Ccedilla dx=0 dy=0 dh=-30 dv=0 dx=0 dy=0 dh=0 dv=0
PairPos2: "'kern' Horizontal Kerning in Latin lookup 0 per glyph data 1" y dx=0 dy=0 dh=-10 dv=0 dx=0 dy=0 dh=0 dv=0
PairPos2: "'kern' Horizontal Kerning in Latin lookup 0 per glyph data 1" w dx=0 dy=0 dh=-10 dv=0 dx=0 dy=0 dh=0 dv=0
PairPos2: "'kern' Horizontal Kerning in Latin lookup 0 per glyph data 1" v dx=0 dy=0 dh=-10 dv=0 dx=0 dy=0 dh=0 dv=0
PairPos2: "'kern' Horizontal Kerning in Latin lookup 0 per glyph data 1" s dx=0 dy=0 dh=-10 dv=0 dx=0 dy=0 dh=0 dv=0
PairPos2: "'kern' Horizontal Kerning in Latin lookup 0 per glyph data 1" o dx=0 dy=0 dh=-10 dv=0 dx=0 dy=0 dh=0 dv=0
PairPos2: "'kern' Horizontal Kerning in Latin lookup 0 per glyph data 1" Y dx=0 dy=0 dh=-20 dv=0 dx=0 dy=0 dh=0 dv=0
PairPos2: "'kern' Horizontal Kerning in Latin lookup 0 per glyph data 1" W dx=0 dy=0 dh=-40 dv=0 dx=0 dy=0 dh=0 dv=0
PairPos2: "'kern' Horizontal Kerning in Latin lookup 0 per glyph data 1" V dx=0 dy=0 dh=-30 dv=0 dx=0 dy=0 dh=0 dv=0
PairPos2: "'kern' Horizontal Kerning in Latin lookup 0 per glyph data 1" U dx=0 dy=0 dh=-20 dv=0 dx=0 dy=0 dh=0 dv=0
PairPos2: "'kern' Horizontal Kerning in Latin lookup 0 per glyph data 1" T dx=0 dy=0 dh=-20 dv=0 dx=0 dy=0 dh=0 dv=0
PairPos2: "'kern' Horizontal Kerning in Latin lookup 0 per glyph data 1" Q dx=0 dy=0 dh=-30 dv=0 dx=0 dy=0 dh=0 dv=0
PairPos2: "'kern' Horizontal Kerning in Latin lookup 0 per glyph data 1" O dx=0 dy=0 dh=-30 dv=0 dx=0 dy=0 dh=0 dv=0
PairPos2: "'kern' Horizontal Kerning in Latin lookup 0 per glyph data 1" I dx=0 dy=0 dh=-20 dv=0 dx=0 dy=0 dh=0 dv=0
PairPos2: "'kern' Horizontal Kerning in Latin lookup 0 per glyph data 1" G dx=0 dy=0 dh=-30 dv=0 dx=0 dy=0 dh=0 dv=0
PairPos2: "'kern' Horizontal Kerning in Latin lookup 0 per glyph data 1" C dx=0 dy=0 dh=-30 dv=0 dx=0 dy=0 dh=0 dv=0
EndChar

StartChar: S
Encoding: 83 83 54
Width: 515
GlyphClass: 2
Flags: W
LayerCount: 2
Fore
SplineSet
439 658 m 1,0,1
 348 693 348 693 267.5 693 c 128,-1,2
 187 693 187 693 142 659 c 128,-1,3
 97 625 97 625 97 565 c 0,4,5
 97 492 97 492 173 452 c 0,6,7
 207 435 207 435 247.5 420.5 c 128,-1,8
 288 406 288 406 329 388 c 128,-1,9
 370 370 370 370 404 347 c 128,-1,10
 438 324 438 324 459 283.5 c 128,-1,11
 480 243 480 243 480 180.5 c 128,-1,12
 480 118 480 118 445 74 c 128,-1,13
 410 30 410 30 360.5 14.5 c 128,-1,14
 311 -1 311 -1 245 -1 c 0,15,16
 122 -1 122 -1 35 60 c 1,17,-1
 40 68 l 1,18,19
 73 42 73 42 125.5 25.5 c 128,-1,20
 178 9 178 9 233 9 c 0,21,22
 314 9 314 9 371.5 46.5 c 128,-1,23
 429 84 429 84 429 157 c 0,24,25
 429 237 429 237 353 282 c 0,26,27
 319 302 319 302 278.5 319 c 128,-1,28
 238 336 238 336 197 354.5 c 128,-1,29
 156 373 156 373 122 396 c 0,30,31
 46 446 46 446 46 538 c 0,32,33
 46 611 46 611 95 656.5 c 128,-1,34
 144 702 144 702 242.5 702 c 128,-1,35
 341 702 341 702 443 668 c 1,36,-1
 439 658 l 1,0,1
EndSplineSet
PairPos2: "'kern' Horizontal Kerning in Latin lookup 0 per glyph data 1" y dx=0 dy=0 dh=-20 dv=0 dx=0 dy=0 dh=0 dv=0
PairPos2: "'kern' Horizontal Kerning in Latin lookup 0 per glyph data 1" w dx=0 dy=0 dh=-20 dv=0 dx=0 dy=0 dh=0 dv=0
PairPos2: "'kern' Horizontal Kerning in Latin lookup 0 per glyph data 1" v dx=0 dy=0 dh=-20 dv=0 dx=0 dy=0 dh=0 dv=0
PairPos2: "'kern' Horizontal Kerning in Latin lookup 0 per glyph data 1" V dx=0 dy=0 dh=-10 dv=0 dx=0 dy=0 dh=0 dv=0
PairPos2: "'kern' Horizontal Kerning in Latin lookup 0 per glyph data 1" T dx=0 dy=0 dh=-10 dv=0 dx=0 dy=0 dh=0 dv=0
EndChar

StartChar: T
Encoding: 84 84 55
Width: 490
GlyphClass: 2
Flags: W
LayerCount: 2
Fore
SplineSet
286 0 m 1,0,-1
 203 0 l 1,1,-1
 203 690 l 1,2,-1
 30 690 l 1,3,-1
 30 700 l 1,4,-1
 460 700 l 1,5,-1
 460 690 l 1,6,-1
 286 690 l 1,7,-1
 286 0 l 1,0,-1
EndSplineSet
PairPos2: "'kern' Horizontal Kerning in Latin lookup 0 per glyph data 1" ellipsis dx=0 dy=0 dh=-70 dv=0 dx=0 dy=0 dh=0 dv=0
PairPos2: "'kern' Horizontal Kerning in Latin lookup 0 per glyph data 1" OE dx=0 dy=0 dh=-60 dv=0 dx=0 dy=0 dh=0 dv=0
PairPos2: "'kern' Horizontal Kerning in Latin lookup 0 per glyph data 1" dotlessi dx=0 dy=0 dh=-20 dv=0 dx=0 dy=0 dh=0 dv=0
PairPos2: "'kern' Horizontal Kerning in Latin lookup 0 per glyph data 1" thorn dx=0 dy=0 dh=-20 dv=0 dx=0 dy=0 dh=0 dv=0
PairPos2: "'kern' Horizontal Kerning in Latin lookup 0 per glyph data 1" odieresis dx=0 dy=0 dh=-50 dv=0 dx=0 dy=0 dh=0 dv=0
PairPos2: "'kern' Horizontal Kerning in Latin lookup 0 per glyph data 1" otilde dx=0 dy=0 dh=-50 dv=0 dx=0 dy=0 dh=0 dv=0
PairPos2: "'kern' Horizontal Kerning in Latin lookup 0 per glyph data 1" ocircumflex dx=0 dy=0 dh=-50 dv=0 dx=0 dy=0 dh=0 dv=0
PairPos2: "'kern' Horizontal Kerning in Latin lookup 0 per glyph data 1" oacute dx=0 dy=0 dh=-50 dv=0 dx=0 dy=0 dh=0 dv=0
PairPos2: "'kern' Horizontal Kerning in Latin lookup 0 per glyph data 1" ograve dx=0 dy=0 dh=-50 dv=0 dx=0 dy=0 dh=0 dv=0
PairPos2: "'kern' Horizontal Kerning in Latin lookup 0 per glyph data 1" ntilde dx=0 dy=0 dh=-20 dv=0 dx=0 dy=0 dh=0 dv=0
PairPos2: "'kern' Horizontal Kerning in Latin lookup 0 per glyph data 1" eth dx=0 dy=0 dh=-50 dv=0 dx=0 dy=0 dh=0 dv=0
PairPos2: "'kern' Horizontal Kerning in Latin lookup 0 per glyph data 1" idieresis dx=0 dy=0 dh=-20 dv=0 dx=0 dy=0 dh=0 dv=0
PairPos2: "'kern' Horizontal Kerning in Latin lookup 0 per glyph data 1" icircumflex dx=0 dy=0 dh=-20 dv=0 dx=0 dy=0 dh=0 dv=0
PairPos2: "'kern' Horizontal Kerning in Latin lookup 0 per glyph data 1" iacute dx=0 dy=0 dh=-20 dv=0 dx=0 dy=0 dh=0 dv=0
PairPos2: "'kern' Horizontal Kerning in Latin lookup 0 per glyph data 1" igrave dx=0 dy=0 dh=-20 dv=0 dx=0 dy=0 dh=0 dv=0
PairPos2: "'kern' Horizontal Kerning in Latin lookup 0 per glyph data 1" edieresis dx=0 dy=0 dh=-50 dv=0 dx=0 dy=0 dh=0 dv=0
PairPos2: "'kern' Horizontal Kerning in Latin lookup 0 per glyph data 1" ecircumflex dx=0 dy=0 dh=-50 dv=0 dx=0 dy=0 dh=0 dv=0
PairPos2: "'kern' Horizontal Kerning in Latin lookup 0 per glyph data 1" eacute dx=0 dy=0 dh=-50 dv=0 dx=0 dy=0 dh=0 dv=0
PairPos2: "'kern' Horizontal Kerning in Latin lookup 0 per glyph data 1" egrave dx=0 dy=0 dh=-50 dv=0 dx=0 dy=0 dh=0 dv=0
PairPos2: "'kern' Horizontal Kerning in Latin lookup 0 per glyph data 1" ccedilla dx=0 dy=0 dh=-50 dv=0 dx=0 dy=0 dh=0 dv=0
PairPos2: "'kern' Horizontal Kerning in Latin lookup 0 per glyph data 1" Odieresis dx=0 dy=0 dh=-60 dv=0 dx=0 dy=0 dh=0 dv=0
PairPos2: "'kern' Horizontal Kerning in Latin lookup 0 per glyph data 1" Otilde dx=0 dy=0 dh=-60 dv=0 dx=0 dy=0 dh=0 dv=0
PairPos2: "'kern' Horizontal Kerning in Latin lookup 0 per glyph data 1" Ocircumflex dx=0 dy=0 dh=-60 dv=0 dx=0 dy=0 dh=0 dv=0
PairPos2: "'kern' Horizontal Kerning in Latin lookup 0 per glyph data 1" Oacute dx=0 dy=0 dh=-60 dv=0 dx=0 dy=0 dh=0 dv=0
PairPos2: "'kern' Horizontal Kerning in Latin lookup 0 per glyph data 1" Ograve dx=0 dy=0 dh=-60 dv=0 dx=0 dy=0 dh=0 dv=0
PairPos2: "'kern' Horizontal Kerning in Latin lookup 0 per glyph data 1" AE dx=0 dy=0 dh=-80 dv=0 dx=0 dy=0 dh=0 dv=0
PairPos2: "'kern' Horizontal Kerning in Latin lookup 0 per glyph data 1" Aring dx=0 dy=0 dh=-80 dv=0 dx=0 dy=0 dh=0 dv=0
PairPos2: "'kern' Horizontal Kerning in Latin lookup 0 per glyph data 1" Adieresis dx=0 dy=0 dh=-80 dv=0 dx=0 dy=0 dh=0 dv=0
PairPos2: "'kern' Horizontal Kerning in Latin lookup 0 per glyph data 1" Atilde dx=0 dy=0 dh=-80 dv=0 dx=0 dy=0 dh=0 dv=0
PairPos2: "'kern' Horizontal Kerning in Latin lookup 0 per glyph data 1" Acircumflex dx=0 dy=0 dh=-80 dv=0 dx=0 dy=0 dh=0 dv=0
PairPos2: "'kern' Horizontal Kerning in Latin lookup 0 per glyph data 1" Aacute dx=0 dy=0 dh=-80 dv=0 dx=0 dy=0 dh=0 dv=0
PairPos2: "'kern' Horizontal Kerning in Latin lookup 0 per glyph data 1" Agrave dx=0 dy=0 dh=-80 dv=0 dx=0 dy=0 dh=0 dv=0
PairPos2: "'kern' Horizontal Kerning in Latin lookup 0 per glyph data 1" cent dx=0 dy=0 dh=-50 dv=0 dx=0 dy=0 dh=0 dv=0
PairPos2: "'kern' Horizontal Kerning in Latin lookup 0 per glyph data 1" bar dx=0 dy=0 dh=-20 dv=0 dx=0 dy=0 dh=0 dv=0
PairPos2: "'kern' Horizontal Kerning in Latin lookup 0 per glyph data 1" z dx=0 dy=0 dh=-50 dv=0 dx=0 dy=0 dh=0 dv=0
PairPos2: "'kern' Horizontal Kerning in Latin lookup 0 per glyph data 1" y dx=0 dy=0 dh=-50 dv=0 dx=0 dy=0 dh=0 dv=0
PairPos2: "'kern' Horizontal Kerning in Latin lookup 0 per glyph data 1" x dx=0 dy=0 dh=-40 dv=0 dx=0 dy=0 dh=0 dv=0
PairPos2: "'kern' Horizontal Kerning in Latin lookup 0 per glyph data 1" w dx=0 dy=0 dh=-50 dv=0 dx=0 dy=0 dh=0 dv=0
PairPos2: "'kern' Horizontal Kerning in Latin lookup 0 per glyph data 1" v dx=0 dy=0 dh=-50 dv=0 dx=0 dy=0 dh=0 dv=0
PairPos2: "'kern' Horizontal Kerning in Latin lookup 0 per glyph data 1" u dx=0 dy=0 dh=-50 dv=0 dx=0 dy=0 dh=0 dv=0
PairPos2: "'kern' Horizontal Kerning in Latin lookup 0 per glyph data 1" r dx=0 dy=0 dh=-20 dv=0 dx=0 dy=0 dh=0 dv=0
PairPos2: "'kern' Horizontal Kerning in Latin lookup 0 per glyph data 1" q dx=0 dy=0 dh=-50 dv=0 dx=0 dy=0 dh=0 dv=0
PairPos2: "'kern' Horizontal Kerning in Latin lookup 0 per glyph data 1" p dx=0 dy=0 dh=-20 dv=0 dx=0 dy=0 dh=0 dv=0
PairPos2: "'kern' Horizontal Kerning in Latin lookup 0 per glyph data 1" o dx=0 dy=0 dh=-50 dv=0 dx=0 dy=0 dh=0 dv=0
PairPos2: "'kern' Horizontal Kerning in Latin lookup 0 per glyph data 1" n dx=0 dy=0 dh=-20 dv=0 dx=0 dy=0 dh=0 dv=0
PairPos2: "'kern' Horizontal Kerning in Latin lookup 0 per glyph data 1" m dx=0 dy=0 dh=-20 dv=0 dx=0 dy=0 dh=0 dv=0
PairPos2: "'kern' Horizontal Kerning in Latin lookup 0 per glyph data 1" k dx=0 dy=0 dh=-20 dv=0 dx=0 dy=0 dh=0 dv=0
PairPos2: "'kern' Horizontal Kerning in Latin lookup 0 per glyph data 1" j dx=0 dy=0 dh=-20 dv=0 dx=0 dy=0 dh=0 dv=0
PairPos2: "'kern' Horizontal Kerning in Latin lookup 0 per glyph data 1" i dx=0 dy=0 dh=-20 dv=0 dx=0 dy=0 dh=0 dv=0
PairPos2: "'kern' Horizontal Kerning in Latin lookup 0 per glyph data 1" h dx=0 dy=0 dh=-20 dv=0 dx=0 dy=0 dh=0 dv=0
PairPos2: "'kern' Horizontal Kerning in Latin lookup 0 per glyph data 1" g dx=0 dy=0 dh=-50 dv=0 dx=0 dy=0 dh=0 dv=0
PairPos2: "'kern' Horizontal Kerning in Latin lookup 0 per glyph data 1" f dx=0 dy=0 dh=-20 dv=0 dx=0 dy=0 dh=0 dv=0
PairPos2: "'kern' Horizontal Kerning in Latin lookup 0 per glyph data 1" e dx=0 dy=0 dh=-50 dv=0 dx=0 dy=0 dh=0 dv=0
PairPos2: "'kern' Horizontal Kerning in Latin lookup 0 per glyph data 1" d dx=0 dy=0 dh=-50 dv=0 dx=0 dy=0 dh=0 dv=0
PairPos2: "'kern' Horizontal Kerning in Latin lookup 0 per glyph data 1" c dx=0 dy=0 dh=-50 dv=0 dx=0 dy=0 dh=0 dv=0
PairPos2: "'kern' Horizontal Kerning in Latin lookup 0 per glyph data 1" b dx=0 dy=0 dh=-20 dv=0 dx=0 dy=0 dh=0 dv=0
PairPos2: "'kern' Horizontal Kerning in Latin lookup 0 per glyph data 1" bracketright dx=0 dy=0 dh=-20 dv=0 dx=0 dy=0 dh=0 dv=0
PairPos2: "'kern' Horizontal Kerning in Latin lookup 0 per glyph data 1" bracketleft dx=0 dy=0 dh=-20 dv=0 dx=0 dy=0 dh=0 dv=0
PairPos2: "'kern' Horizontal Kerning in Latin lookup 0 per glyph data 1" Q dx=0 dy=0 dh=-60 dv=0 dx=0 dy=0 dh=0 dv=0
PairPos2: "'kern' Horizontal Kerning in Latin lookup 0 per glyph data 1" O dx=0 dy=0 dh=-60 dv=0 dx=0 dy=0 dh=0 dv=0
PairPos2: "'kern' Horizontal Kerning in Latin lookup 0 per glyph data 1" M dx=0 dy=0 dh=-40 dv=0 dx=0 dy=0 dh=0 dv=0
PairPos2: "'kern' Horizontal Kerning in Latin lookup 0 per glyph data 1" A dx=0 dy=0 dh=-80 dv=0 dx=0 dy=0 dh=0 dv=0
PairPos2: "'kern' Horizontal Kerning in Latin lookup 0 per glyph data 1" period dx=0 dy=0 dh=-70 dv=0 dx=0 dy=0 dh=0 dv=0
PairPos2: "'kern' Horizontal Kerning in Latin lookup 0 per glyph data 1" parenright dx=0 dy=0 dh=-20 dv=0 dx=0 dy=0 dh=0 dv=0
PairPos2: "'kern' Horizontal Kerning in Latin lookup 0 per glyph data 1" parenleft dx=0 dy=0 dh=-20 dv=0 dx=0 dy=0 dh=0 dv=0
EndChar

StartChar: U
Encoding: 85 85 56
Width: 629
GlyphClass: 2
Flags: W
LayerCount: 2
Fore
SplineSet
551 700 m 1,0,-1
 564 700 l 1,1,-1
 564 300 l 2,2,3
 564 143 564 143 502 69.5 c 128,-1,4
 440 -4 440 -4 340 -4 c 0,5,6
 277 -4 277 -4 233 7.5 c 128,-1,7
 189 19 189 19 150 50 c 0,8,9
 70 112 70 112 70 300 c 2,10,-1
 70 700 l 1,11,-1
 153 700 l 1,12,-1
 153 301 l 2,13,14
 153 119 153 119 208 58 c 0,15,16
 236 28 236 28 266.5 17 c 128,-1,17
 297 6 297 6 340 6 c 0,18,19
 436 6 436 6 493.5 76.5 c 128,-1,20
 551 147 551 147 551 301 c 2,21,-1
 551 700 l 1,0,-1
EndSplineSet
EndChar

StartChar: V
Encoding: 86 86 57
Width: 590
GlyphClass: 2
Flags: W
LayerCount: 2
Fore
SplineSet
541 700 m 1,0,1
 560 681 560 681 560 651 c 0,2,3
 560 626 560 626 549 600 c 2,4,-1
 293 0 l 1,5,-1
 282 -5 l 1,6,-1
 30 700 l 1,7,-1
 115 700 l 1,8,-1
 324 108 l 1,9,-1
 537 600 l 2,10,11
 548 625 548 625 548 652 c 128,-1,12
 548 679 548 679 533 694 c 1,13,-1
 541 700 l 1,0,1
EndSplineSet
PairPos2: "'kern' Horizontal Kerning in Latin lookup 0 per glyph data 1" OE dx=0 dy=0 dh=-20 dv=0 dx=0 dy=0 dh=0 dv=0
PairPos2: "'kern' Horizontal Kerning in Latin lookup 0 per glyph data 1" odieresis dx=0 dy=0 dh=-50 dv=0 dx=0 dy=0 dh=0 dv=0
PairPos2: "'kern' Horizontal Kerning in Latin lookup 0 per glyph data 1" otilde dx=0 dy=0 dh=-50 dv=0 dx=0 dy=0 dh=0 dv=0
PairPos2: "'kern' Horizontal Kerning in Latin lookup 0 per glyph data 1" ocircumflex dx=0 dy=0 dh=-50 dv=0 dx=0 dy=0 dh=0 dv=0
PairPos2: "'kern' Horizontal Kerning in Latin lookup 0 per glyph data 1" oacute dx=0 dy=0 dh=-50 dv=0 dx=0 dy=0 dh=0 dv=0
PairPos2: "'kern' Horizontal Kerning in Latin lookup 0 per glyph data 1" ograve dx=0 dy=0 dh=-50 dv=0 dx=0 dy=0 dh=0 dv=0
PairPos2: "'kern' Horizontal Kerning in Latin lookup 0 per glyph data 1" eth dx=0 dy=0 dh=-50 dv=0 dx=0 dy=0 dh=0 dv=0
PairPos2: "'kern' Horizontal Kerning in Latin lookup 0 per glyph data 1" edieresis dx=0 dy=0 dh=-50 dv=0 dx=0 dy=0 dh=0 dv=0
PairPos2: "'kern' Horizontal Kerning in Latin lookup 0 per glyph data 1" ecircumflex dx=0 dy=0 dh=-50 dv=0 dx=0 dy=0 dh=0 dv=0
PairPos2: "'kern' Horizontal Kerning in Latin lookup 0 per glyph data 1" eacute dx=0 dy=0 dh=-50 dv=0 dx=0 dy=0 dh=0 dv=0
PairPos2: "'kern' Horizontal Kerning in Latin lookup 0 per glyph data 1" egrave dx=0 dy=0 dh=-50 dv=0 dx=0 dy=0 dh=0 dv=0
PairPos2: "'kern' Horizontal Kerning in Latin lookup 0 per glyph data 1" ccedilla dx=0 dy=0 dh=-50 dv=0 dx=0 dy=0 dh=0 dv=0
PairPos2: "'kern' Horizontal Kerning in Latin lookup 0 per glyph data 1" aring dx=0 dy=0 dh=-30 dv=0 dx=0 dy=0 dh=0 dv=0
PairPos2: "'kern' Horizontal Kerning in Latin lookup 0 per glyph data 1" adieresis dx=0 dy=0 dh=-30 dv=0 dx=0 dy=0 dh=0 dv=0
PairPos2: "'kern' Horizontal Kerning in Latin lookup 0 per glyph data 1" atilde dx=0 dy=0 dh=-30 dv=0 dx=0 dy=0 dh=0 dv=0
PairPos2: "'kern' Horizontal Kerning in Latin lookup 0 per glyph data 1" acircumflex dx=0 dy=0 dh=-30 dv=0 dx=0 dy=0 dh=0 dv=0
PairPos2: "'kern' Horizontal Kerning in Latin lookup 0 per glyph data 1" aacute dx=0 dy=0 dh=-30 dv=0 dx=0 dy=0 dh=0 dv=0
PairPos2: "'kern' Horizontal Kerning in Latin lookup 0 per glyph data 1" agrave dx=0 dy=0 dh=-30 dv=0 dx=0 dy=0 dh=0 dv=0
PairPos2: "'kern' Horizontal Kerning in Latin lookup 0 per glyph data 1" Odieresis dx=0 dy=0 dh=-20 dv=0 dx=0 dy=0 dh=0 dv=0
PairPos2: "'kern' Horizontal Kerning in Latin lookup 0 per glyph data 1" Otilde dx=0 dy=0 dh=-20 dv=0 dx=0 dy=0 dh=0 dv=0
PairPos2: "'kern' Horizontal Kerning in Latin lookup 0 per glyph data 1" Ocircumflex dx=0 dy=0 dh=-20 dv=0 dx=0 dy=0 dh=0 dv=0
PairPos2: "'kern' Horizontal Kerning in Latin lookup 0 per glyph data 1" Oacute dx=0 dy=0 dh=-20 dv=0 dx=0 dy=0 dh=0 dv=0
PairPos2: "'kern' Horizontal Kerning in Latin lookup 0 per glyph data 1" Ograve dx=0 dy=0 dh=-20 dv=0 dx=0 dy=0 dh=0 dv=0
PairPos2: "'kern' Horizontal Kerning in Latin lookup 0 per glyph data 1" AE dx=0 dy=0 dh=-90 dv=0 dx=0 dy=0 dh=0 dv=0
PairPos2: "'kern' Horizontal Kerning in Latin lookup 0 per glyph data 1" Aring dx=0 dy=0 dh=-90 dv=0 dx=0 dy=0 dh=0 dv=0
PairPos2: "'kern' Horizontal Kerning in Latin lookup 0 per glyph data 1" Adieresis dx=0 dy=0 dh=-90 dv=0 dx=0 dy=0 dh=0 dv=0
PairPos2: "'kern' Horizontal Kerning in Latin lookup 0 per glyph data 1" Atilde dx=0 dy=0 dh=-90 dv=0 dx=0 dy=0 dh=0 dv=0
PairPos2: "'kern' Horizontal Kerning in Latin lookup 0 per glyph data 1" Acircumflex dx=0 dy=0 dh=-90 dv=0 dx=0 dy=0 dh=0 dv=0
PairPos2: "'kern' Horizontal Kerning in Latin lookup 0 per glyph data 1" Aacute dx=0 dy=0 dh=-90 dv=0 dx=0 dy=0 dh=0 dv=0
PairPos2: "'kern' Horizontal Kerning in Latin lookup 0 per glyph data 1" Agrave dx=0 dy=0 dh=-90 dv=0 dx=0 dy=0 dh=0 dv=0
PairPos2: "'kern' Horizontal Kerning in Latin lookup 0 per glyph data 1" cent dx=0 dy=0 dh=-50 dv=0 dx=0 dy=0 dh=0 dv=0
PairPos2: "'kern' Horizontal Kerning in Latin lookup 0 per glyph data 1" s dx=0 dy=0 dh=-30 dv=0 dx=0 dy=0 dh=0 dv=0
PairPos2: "'kern' Horizontal Kerning in Latin lookup 0 per glyph data 1" o dx=0 dy=0 dh=-50 dv=0 dx=0 dy=0 dh=0 dv=0
PairPos2: "'kern' Horizontal Kerning in Latin lookup 0 per glyph data 1" e dx=0 dy=0 dh=-50 dv=0 dx=0 dy=0 dh=0 dv=0
PairPos2: "'kern' Horizontal Kerning in Latin lookup 0 per glyph data 1" c dx=0 dy=0 dh=-50 dv=0 dx=0 dy=0 dh=0 dv=0
PairPos2: "'kern' Horizontal Kerning in Latin lookup 0 per glyph data 1" a dx=0 dy=0 dh=-30 dv=0 dx=0 dy=0 dh=0 dv=0
PairPos2: "'kern' Horizontal Kerning in Latin lookup 0 per glyph data 1" Q dx=0 dy=0 dh=-20 dv=0 dx=0 dy=0 dh=0 dv=0
PairPos2: "'kern' Horizontal Kerning in Latin lookup 0 per glyph data 1" O dx=0 dy=0 dh=-20 dv=0 dx=0 dy=0 dh=0 dv=0
PairPos2: "'kern' Horizontal Kerning in Latin lookup 0 per glyph data 1" A dx=0 dy=0 dh=-90 dv=0 dx=0 dy=0 dh=0 dv=0
EndChar

StartChar: W
Encoding: 87 87 58
Width: 846
GlyphClass: 2
Flags: W
LayerCount: 2
Fore
SplineSet
797 700 m 1,0,1
 816 681 816 681 816 651 c 0,2,3
 816 626 816 626 805 600 c 2,4,-1
 569 0 l 1,5,-1
 558 -5 l 1,6,-1
 426 414 l 1,7,-1
 263 0 l 1,8,-1
 252 -5 l 1,9,-1
 30 700 l 1,10,-1
 115 700 l 1,11,-1
 294 108 l 1,12,-1
 421 430 l 1,13,-1
 336 700 l 1,14,-1
 421 700 l 1,15,-1
 600 108 l 1,16,-1
 793 600 l 1,17,18
 804 625 804 625 804 652 c 128,-1,19
 804 679 804 679 789 694 c 1,20,-1
 797 700 l 1,0,1
EndSplineSet
PairPos2: "'kern' Horizontal Kerning in Latin lookup 0 per glyph data 1" OE dx=0 dy=0 dh=-30 dv=0 dx=0 dy=0 dh=0 dv=0
PairPos2: "'kern' Horizontal Kerning in Latin lookup 0 per glyph data 1" odieresis dx=0 dy=0 dh=-50 dv=0 dx=0 dy=0 dh=0 dv=0
PairPos2: "'kern' Horizontal Kerning in Latin lookup 0 per glyph data 1" otilde dx=0 dy=0 dh=-50 dv=0 dx=0 dy=0 dh=0 dv=0
PairPos2: "'kern' Horizontal Kerning in Latin lookup 0 per glyph data 1" ocircumflex dx=0 dy=0 dh=-50 dv=0 dx=0 dy=0 dh=0 dv=0
PairPos2: "'kern' Horizontal Kerning in Latin lookup 0 per glyph data 1" oacute dx=0 dy=0 dh=-50 dv=0 dx=0 dy=0 dh=0 dv=0
PairPos2: "'kern' Horizontal Kerning in Latin lookup 0 per glyph data 1" ograve dx=0 dy=0 dh=-50 dv=0 dx=0 dy=0 dh=0 dv=0
PairPos2: "'kern' Horizontal Kerning in Latin lookup 0 per glyph data 1" eth dx=0 dy=0 dh=-50 dv=0 dx=0 dy=0 dh=0 dv=0
PairPos2: "'kern' Horizontal Kerning in Latin lookup 0 per glyph data 1" edieresis dx=0 dy=0 dh=-40 dv=0 dx=0 dy=0 dh=0 dv=0
PairPos2: "'kern' Horizontal Kerning in Latin lookup 0 per glyph data 1" ecircumflex dx=0 dy=0 dh=-40 dv=0 dx=0 dy=0 dh=0 dv=0
PairPos2: "'kern' Horizontal Kerning in Latin lookup 0 per glyph data 1" eacute dx=0 dy=0 dh=-40 dv=0 dx=0 dy=0 dh=0 dv=0
PairPos2: "'kern' Horizontal Kerning in Latin lookup 0 per glyph data 1" egrave dx=0 dy=0 dh=-40 dv=0 dx=0 dy=0 dh=0 dv=0
PairPos2: "'kern' Horizontal Kerning in Latin lookup 0 per glyph data 1" ccedilla dx=0 dy=0 dh=-40 dv=0 dx=0 dy=0 dh=0 dv=0
PairPos2: "'kern' Horizontal Kerning in Latin lookup 0 per glyph data 1" aring dx=0 dy=0 dh=-30 dv=0 dx=0 dy=0 dh=0 dv=0
PairPos2: "'kern' Horizontal Kerning in Latin lookup 0 per glyph data 1" adieresis dx=0 dy=0 dh=-30 dv=0 dx=0 dy=0 dh=0 dv=0
PairPos2: "'kern' Horizontal Kerning in Latin lookup 0 per glyph data 1" atilde dx=0 dy=0 dh=-30 dv=0 dx=0 dy=0 dh=0 dv=0
PairPos2: "'kern' Horizontal Kerning in Latin lookup 0 per glyph data 1" acircumflex dx=0 dy=0 dh=-30 dv=0 dx=0 dy=0 dh=0 dv=0
PairPos2: "'kern' Horizontal Kerning in Latin lookup 0 per glyph data 1" aacute dx=0 dy=0 dh=-30 dv=0 dx=0 dy=0 dh=0 dv=0
PairPos2: "'kern' Horizontal Kerning in Latin lookup 0 per glyph data 1" agrave dx=0 dy=0 dh=-30 dv=0 dx=0 dy=0 dh=0 dv=0
PairPos2: "'kern' Horizontal Kerning in Latin lookup 0 per glyph data 1" Odieresis dx=0 dy=0 dh=-30 dv=0 dx=0 dy=0 dh=0 dv=0
PairPos2: "'kern' Horizontal Kerning in Latin lookup 0 per glyph data 1" Otilde dx=0 dy=0 dh=-30 dv=0 dx=0 dy=0 dh=0 dv=0
PairPos2: "'kern' Horizontal Kerning in Latin lookup 0 per glyph data 1" Ocircumflex dx=0 dy=0 dh=-30 dv=0 dx=0 dy=0 dh=0 dv=0
PairPos2: "'kern' Horizontal Kerning in Latin lookup 0 per glyph data 1" Oacute dx=0 dy=0 dh=-30 dv=0 dx=0 dy=0 dh=0 dv=0
PairPos2: "'kern' Horizontal Kerning in Latin lookup 0 per glyph data 1" Ograve dx=0 dy=0 dh=-30 dv=0 dx=0 dy=0 dh=0 dv=0
PairPos2: "'kern' Horizontal Kerning in Latin lookup 0 per glyph data 1" Ccedilla dx=0 dy=0 dh=-40 dv=0 dx=0 dy=0 dh=0 dv=0
PairPos2: "'kern' Horizontal Kerning in Latin lookup 0 per glyph data 1" AE dx=0 dy=0 dh=-90 dv=0 dx=0 dy=0 dh=0 dv=0
PairPos2: "'kern' Horizontal Kerning in Latin lookup 0 per glyph data 1" Aring dx=0 dy=0 dh=-90 dv=0 dx=0 dy=0 dh=0 dv=0
PairPos2: "'kern' Horizontal Kerning in Latin lookup 0 per glyph data 1" Adieresis dx=0 dy=0 dh=-90 dv=0 dx=0 dy=0 dh=0 dv=0
PairPos2: "'kern' Horizontal Kerning in Latin lookup 0 per glyph data 1" Atilde dx=0 dy=0 dh=-90 dv=0 dx=0 dy=0 dh=0 dv=0
PairPos2: "'kern' Horizontal Kerning in Latin lookup 0 per glyph data 1" Acircumflex dx=0 dy=0 dh=-90 dv=0 dx=0 dy=0 dh=0 dv=0
PairPos2: "'kern' Horizontal Kerning in Latin lookup 0 per glyph data 1" Aacute dx=0 dy=0 dh=-90 dv=0 dx=0 dy=0 dh=0 dv=0
PairPos2: "'kern' Horizontal Kerning in Latin lookup 0 per glyph data 1" Agrave dx=0 dy=0 dh=-90 dv=0 dx=0 dy=0 dh=0 dv=0
PairPos2: "'kern' Horizontal Kerning in Latin lookup 0 per glyph data 1" cent dx=0 dy=0 dh=-40 dv=0 dx=0 dy=0 dh=0 dv=0
PairPos2: "'kern' Horizontal Kerning in Latin lookup 0 per glyph data 1" y dx=0 dy=0 dh=-30 dv=0 dx=0 dy=0 dh=0 dv=0
PairPos2: "'kern' Horizontal Kerning in Latin lookup 0 per glyph data 1" w dx=0 dy=0 dh=-30 dv=0 dx=0 dy=0 dh=0 dv=0
PairPos2: "'kern' Horizontal Kerning in Latin lookup 0 per glyph data 1" v dx=0 dy=0 dh=-30 dv=0 dx=0 dy=0 dh=0 dv=0
PairPos2: "'kern' Horizontal Kerning in Latin lookup 0 per glyph data 1" u dx=0 dy=0 dh=-20 dv=0 dx=0 dy=0 dh=0 dv=0
PairPos2: "'kern' Horizontal Kerning in Latin lookup 0 per glyph data 1" o dx=0 dy=0 dh=-50 dv=0 dx=0 dy=0 dh=0 dv=0
PairPos2: "'kern' Horizontal Kerning in Latin lookup 0 per glyph data 1" e dx=0 dy=0 dh=-40 dv=0 dx=0 dy=0 dh=0 dv=0
PairPos2: "'kern' Horizontal Kerning in Latin lookup 0 per glyph data 1" c dx=0 dy=0 dh=-40 dv=0 dx=0 dy=0 dh=0 dv=0
PairPos2: "'kern' Horizontal Kerning in Latin lookup 0 per glyph data 1" a dx=0 dy=0 dh=-30 dv=0 dx=0 dy=0 dh=0 dv=0
PairPos2: "'kern' Horizontal Kerning in Latin lookup 0 per glyph data 1" Q dx=0 dy=0 dh=-30 dv=0 dx=0 dy=0 dh=0 dv=0
PairPos2: "'kern' Horizontal Kerning in Latin lookup 0 per glyph data 1" O dx=0 dy=0 dh=-30 dv=0 dx=0 dy=0 dh=0 dv=0
PairPos2: "'kern' Horizontal Kerning in Latin lookup 0 per glyph data 1" G dx=0 dy=0 dh=-40 dv=0 dx=0 dy=0 dh=0 dv=0
PairPos2: "'kern' Horizontal Kerning in Latin lookup 0 per glyph data 1" C dx=0 dy=0 dh=-40 dv=0 dx=0 dy=0 dh=0 dv=0
PairPos2: "'kern' Horizontal Kerning in Latin lookup 0 per glyph data 1" A dx=0 dy=0 dh=-90 dv=0 dx=0 dy=0 dh=0 dv=0
EndChar

StartChar: X
Encoding: 88 88 59
Width: 551
GlyphClass: 2
Flags: W
LayerCount: 2
Fore
SplineSet
60 0 m 1,0,-1
 47 0 l 1,1,-1
 228 358 l 1,2,-1
 30 700 l 1,3,-1
 114 700 l 1,4,-1
 286 404 l 1,5,-1
 436 700 l 1,6,-1
 448 700 l 1,7,-1
 293 392 l 1,8,-1
 521 0 l 1,9,-1
 437 0 l 1,10,-1
 235 347 l 1,11,-1
 60 0 l 1,0,-1
EndSplineSet
PairPos2: "'kern' Horizontal Kerning in Latin lookup 0 per glyph data 1" edieresis dx=0 dy=0 dh=-30 dv=0 dx=0 dy=0 dh=0 dv=0
PairPos2: "'kern' Horizontal Kerning in Latin lookup 0 per glyph data 1" ecircumflex dx=0 dy=0 dh=-30 dv=0 dx=0 dy=0 dh=0 dv=0
PairPos2: "'kern' Horizontal Kerning in Latin lookup 0 per glyph data 1" eacute dx=0 dy=0 dh=-30 dv=0 dx=0 dy=0 dh=0 dv=0
PairPos2: "'kern' Horizontal Kerning in Latin lookup 0 per glyph data 1" egrave dx=0 dy=0 dh=-30 dv=0 dx=0 dy=0 dh=0 dv=0
PairPos2: "'kern' Horizontal Kerning in Latin lookup 0 per glyph data 1" ccedilla dx=0 dy=0 dh=-30 dv=0 dx=0 dy=0 dh=0 dv=0
PairPos2: "'kern' Horizontal Kerning in Latin lookup 0 per glyph data 1" Udieresis dx=0 dy=0 dh=-30 dv=0 dx=0 dy=0 dh=0 dv=0
PairPos2: "'kern' Horizontal Kerning in Latin lookup 0 per glyph data 1" Ucircumflex dx=0 dy=0 dh=-30 dv=0 dx=0 dy=0 dh=0 dv=0
PairPos2: "'kern' Horizontal Kerning in Latin lookup 0 per glyph data 1" Uacute dx=0 dy=0 dh=-30 dv=0 dx=0 dy=0 dh=0 dv=0
PairPos2: "'kern' Horizontal Kerning in Latin lookup 0 per glyph data 1" Ugrave dx=0 dy=0 dh=-30 dv=0 dx=0 dy=0 dh=0 dv=0
PairPos2: "'kern' Horizontal Kerning in Latin lookup 0 per glyph data 1" cent dx=0 dy=0 dh=-30 dv=0 dx=0 dy=0 dh=0 dv=0
PairPos2: "'kern' Horizontal Kerning in Latin lookup 0 per glyph data 1" y dx=0 dy=0 dh=-50 dv=0 dx=0 dy=0 dh=0 dv=0
PairPos2: "'kern' Horizontal Kerning in Latin lookup 0 per glyph data 1" w dx=0 dy=0 dh=-50 dv=0 dx=0 dy=0 dh=0 dv=0
PairPos2: "'kern' Horizontal Kerning in Latin lookup 0 per glyph data 1" v dx=0 dy=0 dh=-50 dv=0 dx=0 dy=0 dh=0 dv=0
PairPos2: "'kern' Horizontal Kerning in Latin lookup 0 per glyph data 1" e dx=0 dy=0 dh=-30 dv=0 dx=0 dy=0 dh=0 dv=0
PairPos2: "'kern' Horizontal Kerning in Latin lookup 0 per glyph data 1" c dx=0 dy=0 dh=-30 dv=0 dx=0 dy=0 dh=0 dv=0
PairPos2: "'kern' Horizontal Kerning in Latin lookup 0 per glyph data 1" U dx=0 dy=0 dh=-30 dv=0 dx=0 dy=0 dh=0 dv=0
PairPos2: "'kern' Horizontal Kerning in Latin lookup 0 per glyph data 1" T dx=0 dy=0 dh=-20 dv=0 dx=0 dy=0 dh=0 dv=0
EndChar

StartChar: Y
Encoding: 89 89 60
Width: 533
GlyphClass: 2
Flags: W
LayerCount: 2
Fore
SplineSet
484 700 m 1,0,1
 503 681 503 681 503 651 c 0,2,3
 503 626 503 626 492 600 c 1,4,-1
 313 237 l 1,5,-1
 313 0 l 1,6,-1
 230 0 l 1,7,-1
 230 215 l 1,8,-1
 30 700 l 1,9,-1
 115 700 l 1,10,-1
 306 249 l 1,11,-1
 480 600 l 1,12,13
 491 625 491 625 491 652 c 128,-1,14
 491 679 491 679 476 694 c 1,15,-1
 484 700 l 1,0,1
EndSplineSet
EndChar

StartChar: Z
Encoding: 90 90 61
Width: 545
GlyphClass: 2
Flags: W
LayerCount: 2
Fore
SplineSet
61 690 m 1,0,-1
 61 700 l 1,1,-1
 469 700 l 1,2,-1
 469 690 l 1,3,-1
 116 10 l 1,4,-1
 417 10 l 2,5,6
 446 10 446 10 470 20 c 128,-1,7
 494 30 494 30 502 49 c 1,8,-1
 510 45 l 1,9,10
 508 40 508 40 503.5 32.5 c 128,-1,11
 499 25 499 25 476 12.5 c 128,-1,12
 453 0 453 0 420 0 c 2,13,-1
 35 0 l 1,14,-1
 35 10 l 1,15,-1
 386 690 l 1,16,-1
 61 690 l 1,0,-1
EndSplineSet
EndChar

StartChar: bracketleft
Encoding: 91 91 62
Width: 430
GlyphClass: 2
Flags: W
LayerCount: 2
Fore
SplineSet
87 -200 m 1,0,-1
 87 750 l 1,1,-1
 300 750 l 1,2,-1
 300 742 l 1,3,-1
 167 742 l 1,4,-1
 167 -192 l 1,5,-1
 300 -192 l 1,6,-1
 300 -200 l 1,7,-1
 87 -200 l 1,0,-1
EndSplineSet
EndChar

StartChar: backslash
Encoding: 92 92 63
Width: 600
GlyphClass: 2
Flags: W
LayerCount: 2
Fore
SplineSet
398 0 m 1,0,-1
 388 0 l 1,1,-1
 137 749 l 1,2,-1
 147 749 l 1,3,-1
 398 0 l 1,0,-1
EndSplineSet
EndChar

StartChar: bracketright
Encoding: 93 93 64
Width: 430
GlyphClass: 2
Flags: W
LayerCount: 2
Fore
SplineSet
137 750 m 1,0,-1
 350 750 l 1,1,-1
 350 -200 l 1,2,-1
 137 -200 l 1,3,-1
 137 -192 l 1,4,-1
 270 -192 l 1,5,-1
 270 742 l 1,6,-1
 137 742 l 1,7,-1
 137 750 l 1,0,-1
EndSplineSet
EndChar

StartChar: asciicircum
Encoding: 94 94 65
Width: 560
GlyphClass: 2
Flags: W
LayerCount: 2
Fore
SplineSet
411 315 m 1,0,-1
 390 295 l 1,1,-1
 269 425 l 1,2,-1
 153 300 l 1,3,-1
 146 305 l 1,4,-1
 283 450 l 1,5,-1
 411 315 l 1,0,-1
EndSplineSet
EndChar

StartChar: underscore
Encoding: 95 95 66
Width: 437
GlyphClass: 2
Flags: W
LayerCount: 2
Fore
SplineSet
79 8 m 1,0,-1
 349 8 l 1,1,-1
 349 0 l 1,2,-1
 79 0 l 1,3,-1
 79 8 l 1,0,-1
EndSplineSet
EndChar

StartChar: grave
Encoding: 96 96 67
Width: 299
GlyphClass: 2
Flags: W
LayerCount: 2
Fore
SplineSet
102 710 m 1,0,-1
 174 708 l 1,1,-1
 220 567 l 1,2,-1
 207 567 l 1,3,-1
 102 710 l 1,0,-1
EndSplineSet
EndChar

StartChar: a
Encoding: 97 97 68
Width: 519
GlyphClass: 2
Flags: W
LayerCount: 2
Fore
SplineSet
453 0 m 2,0,1
 385 0 385 0 360 26 c 1,2,3
 337 48 337 48 337 64 c 2,4,-1
 337 85 l 1,5,6
 288 -4 288 -4 180 -4 c 0,7,8
 54 -4 54 -4 37 110 c 0,9,10
 35 122 35 122 35 134.5 c 128,-1,11
 35 147 35 147 39 162 c 128,-1,12
 43 177 43 177 62 195 c 0,13,14
 100 231 100 231 229 239 c 1,15,16
 261 242 261 242 288 242 c 128,-1,17
 315 242 315 242 337 240 c 1,18,-1
 337 406 l 1,19,20
 335 407 335 407 337 415.5 c 128,-1,21
 339 424 339 424 333.5 437.5 c 128,-1,22
 328 451 328 451 319 464 c 128,-1,23
 310 477 310 477 287 486.5 c 128,-1,24
 264 496 264 496 227 496 c 128,-1,25
 190 496 190 496 140.5 482.5 c 128,-1,26
 91 469 91 469 68 456 c 1,27,-1
 64 463 l 1,28,29
 153 504 153 504 245 504 c 0,30,31
 348 504 348 504 381 467 c 0,32,33
 407 438 407 438 407 406 c 2,34,-1
 407 71 l 2,35,36
 407 42 407 42 418.5 26.5 c 128,-1,37
 430 11 430 11 442 10 c 1,38,-1
 453 8 l 1,39,-1
 484 8 l 1,40,-1
 484 0 l 1,41,-1
 453 0 l 2,0,1
196 4 m 0,42,43
 249 4 249 4 291.5 40.5 c 128,-1,44
 334 77 334 77 337 111 c 1,45,-1
 337 232 l 1,46,47
 310 234 310 234 282.5 234 c 128,-1,48
 255 234 255 234 228 231 c 0,49,50
 152 222 152 222 129 197 c 128,-1,51
 106 172 106 172 106 128 c 0,52,53
 106 120 106 120 107 110 c 0,54,55
 116 4 116 4 196 4 c 0,42,43
EndSplineSet
EndChar

StartChar: b
Encoding: 98 98 69
Width: 520
GlyphClass: 2
Flags: W
LayerCount: 2
Fore
SplineSet
40 749 m 1,0,-1
 110 749 l 1,1,-1
 110 376 l 1,2,3
 127 422 127 422 173 463 c 128,-1,4
 219 504 219 504 277 504 c 0,5,6
 480 504 480 504 480 266 c 0,7,8
 480 -4 480 -4 218 -4 c 0,9,10
 141 -4 141 -4 40 21 c 1,11,-1
 40 749 l 1,0,-1
276 496 m 0,12,13
 214 496 214 496 164 442.5 c 128,-1,14
 114 389 114 389 110 346 c 1,15,-1
 110 27 l 1,16,17
 171 4 171 4 217 4 c 0,18,19
 410 4 410 4 410 267 c 0,20,21
 410 496 410 496 276 496 c 0,12,13
EndSplineSet
EndChar

StartChar: c
Encoding: 99 99 70
Width: 481
GlyphClass: 2
Flags: W
LayerCount: 2
Fore
SplineSet
274 496 m 0,0,1
 203 496 203 496 155.5 428 c 128,-1,2
 108 360 108 360 108 240 c 128,-1,3
 108 120 108 120 151.5 62 c 128,-1,4
 195 4 195 4 266 4 c 0,5,6
 355 4 355 4 424 34 c 1,7,-1
 427 27 l 1,8,9
 356 -4 356 -4 261 -4 c 128,-1,10
 166 -4 166 -4 103 56 c 128,-1,11
 40 116 40 116 40 241 c 128,-1,12
 40 366 40 366 106 435 c 128,-1,13
 172 504 172 504 274 504 c 0,14,15
 331 504 331 504 379.5 478 c 128,-1,16
 428 452 428 452 451 399 c 1,17,-1
 387 399 l 1,18,19
 372 448 372 448 341.5 472 c 128,-1,20
 311 496 311 496 274 496 c 0,0,1
EndSplineSet
EndChar

StartChar: d
Encoding: 100 100 71
Width: 598
GlyphClass: 2
Flags: W
LayerCount: 2
Fore
SplineSet
40 232 m 0,0,1
 40 362 40 362 103 433 c 128,-1,2
 166 504 166 504 292 504 c 0,3,4
 351 504 351 504 411 474 c 1,5,-1
 411 749 l 1,6,-1
 481 749 l 1,7,-1
 481 71 l 2,8,9
 481 42 481 42 492.5 26.5 c 128,-1,10
 504 11 504 11 516 10 c 1,11,-1
 527 8 l 1,12,-1
 558 8 l 1,13,-1
 558 0 l 1,14,-1
 497 0 l 2,15,16
 456 0 456 0 434.5 18 c 128,-1,17
 413 36 413 36 412 54 c 2,18,-1
 411 71 l 1,19,-1
 411 87 l 1,20,21
 392 52 392 52 348 25 c 128,-1,22
 304 -2 304 -2 244 -2 c 1,23,24
 40 3 40 3 40 232 c 0,0,1
245 6 m 0,25,26
 312 6 312 6 360 42 c 128,-1,27
 408 78 408 78 411 113 c 1,28,-1
 411 465 l 1,29,30
 340 496 340 496 289 496 c 0,31,32
 200 496 200 496 155 426.5 c 128,-1,33
 110 357 110 357 110 232 c 0,34,35
 110 6 110 6 245 6 c 0,25,26
EndSplineSet
EndChar

StartChar: e
Encoding: 101 101 72
Width: 499
GlyphClass: 2
Flags: W
LayerCount: 2
Fore
SplineSet
108 244 m 0,0,1
 108 120 108 120 151.5 62 c 128,-1,2
 195 4 195 4 266 4 c 0,3,4
 366 4 366 4 444 34 c 1,5,-1
 447 27 l 1,6,7
 367 -4 367 -4 266.5 -4 c 128,-1,8
 166 -4 166 -4 103 56 c 128,-1,9
 40 116 40 116 40 241 c 128,-1,10
 40 366 40 366 106 435 c 128,-1,11
 172 504 172 504 274 504 c 0,12,13
 356 504 356 504 412 455 c 128,-1,14
 468 406 468 406 468 310 c 0,15,16
 468 305 468 305 468 300 c 1,17,-1
 111 300 l 1,18,19
 108 273 108 273 108 244 c 0,0,1
363 450 m 128,-1,21
 327 496 327 496 270 496 c 128,-1,22
 213 496 213 496 168.5 446 c 128,-1,23
 124 396 124 396 112 308 c 1,24,-1
 400 308 l 1,25,20
 399 404 399 404 363 450 c 128,-1,21
EndSplineSet
EndChar

StartChar: f
Encoding: 102 102 73
Width: 255
GlyphClass: 2
Flags: W
LayerCount: 2
Fore
SplineSet
126 547 m 2,0,-1
 126 500 l 1,1,-1
 205 500 l 1,2,-1
 205 492 l 1,3,-1
 126 492 l 1,4,-1
 126 0 l 1,5,-1
 56 0 l 1,6,-1
 56 492 l 1,7,-1
 35 492 l 1,8,-1
 35 500 l 1,9,-1
 56 500 l 1,10,-1
 56 547 l 2,11,12
 56 656 56 656 103 702.5 c 128,-1,13
 150 749 150 749 255 750 c 1,14,-1
 255 742 l 1,15,16
 186 741 186 741 156 695.5 c 128,-1,17
 126 650 126 650 126 547 c 2,0,-1
EndSplineSet
EndChar

StartChar: g
Encoding: 103 103 74
Width: 511
GlyphClass: 2
Flags: W
LayerCount: 2
Fore
SplineSet
35 232 m 0,0,1
 35 362 35 362 98 433 c 128,-1,2
 161 504 161 504 287 504 c 0,3,4
 380 504 380 504 476 471 c 1,5,-1
 476 -12 l 1,6,7
 475 -250 475 -250 268 -250 c 0,8,9
 154 -250 154 -250 73 -176 c 1,10,-1
 80 -170 l 1,11,12
 166 -242 166 -242 268 -242 c 0,13,14
 406 -242 406 -242 406 -12 c 2,15,-1
 406 87 l 1,16,17
 387 52 387 52 343 25 c 128,-1,18
 299 -2 299 -2 239 -2 c 1,19,20
 35 3 35 3 35 232 c 0,0,1
240 6 m 0,21,22
 307 6 307 6 355 42 c 128,-1,23
 403 78 403 78 406 113 c 1,24,-1
 406 466 l 1,25,26
 334 496 334 496 284 496 c 0,27,28
 195 496 195 496 150 426.5 c 128,-1,29
 105 357 105 357 105 232 c 0,30,31
 105 6 105 6 240 6 c 0,21,22
EndSplineSet
PairPos2: "'kern' Horizontal Kerning in Latin lookup 0 per glyph data 1" dotlessi dx=0 dy=0 dh=50 dv=0 dx=0 dy=0 dh=0 dv=0
PairPos2: "'kern' Horizontal Kerning in Latin lookup 0 per glyph data 1" thorn dx=0 dy=0 dh=50 dv=0 dx=0 dy=0 dh=0 dv=0
PairPos2: "'kern' Horizontal Kerning in Latin lookup 0 per glyph data 1" udieresis dx=0 dy=0 dh=20 dv=0 dx=0 dy=0 dh=0 dv=0
PairPos2: "'kern' Horizontal Kerning in Latin lookup 0 per glyph data 1" ucircumflex dx=0 dy=0 dh=20 dv=0 dx=0 dy=0 dh=0 dv=0
PairPos2: "'kern' Horizontal Kerning in Latin lookup 0 per glyph data 1" uacute dx=0 dy=0 dh=20 dv=0 dx=0 dy=0 dh=0 dv=0
PairPos2: "'kern' Horizontal Kerning in Latin lookup 0 per glyph data 1" ugrave dx=0 dy=0 dh=20 dv=0 dx=0 dy=0 dh=0 dv=0
PairPos2: "'kern' Horizontal Kerning in Latin lookup 0 per glyph data 1" ntilde dx=0 dy=0 dh=50 dv=0 dx=0 dy=0 dh=0 dv=0
PairPos2: "'kern' Horizontal Kerning in Latin lookup 0 per glyph data 1" idieresis dx=0 dy=0 dh=50 dv=0 dx=0 dy=0 dh=0 dv=0
PairPos2: "'kern' Horizontal Kerning in Latin lookup 0 per glyph data 1" icircumflex dx=0 dy=0 dh=50 dv=0 dx=0 dy=0 dh=0 dv=0
PairPos2: "'kern' Horizontal Kerning in Latin lookup 0 per glyph data 1" iacute dx=0 dy=0 dh=50 dv=0 dx=0 dy=0 dh=0 dv=0
PairPos2: "'kern' Horizontal Kerning in Latin lookup 0 per glyph data 1" igrave dx=0 dy=0 dh=50 dv=0 dx=0 dy=0 dh=0 dv=0
PairPos2: "'kern' Horizontal Kerning in Latin lookup 0 per glyph data 1" bar dx=0 dy=0 dh=50 dv=0 dx=0 dy=0 dh=0 dv=0
PairPos2: "'kern' Horizontal Kerning in Latin lookup 0 per glyph data 1" u dx=0 dy=0 dh=20 dv=0 dx=0 dy=0 dh=0 dv=0
PairPos2: "'kern' Horizontal Kerning in Latin lookup 0 per glyph data 1" t dx=0 dy=0 dh=20 dv=0 dx=0 dy=0 dh=0 dv=0
PairPos2: "'kern' Horizontal Kerning in Latin lookup 0 per glyph data 1" r dx=0 dy=0 dh=50 dv=0 dx=0 dy=0 dh=0 dv=0
PairPos2: "'kern' Horizontal Kerning in Latin lookup 0 per glyph data 1" p dx=0 dy=0 dh=50 dv=0 dx=0 dy=0 dh=0 dv=0
PairPos2: "'kern' Horizontal Kerning in Latin lookup 0 per glyph data 1" n dx=0 dy=0 dh=50 dv=0 dx=0 dy=0 dh=0 dv=0
PairPos2: "'kern' Horizontal Kerning in Latin lookup 0 per glyph data 1" m dx=0 dy=0 dh=50 dv=0 dx=0 dy=0 dh=0 dv=0
PairPos2: "'kern' Horizontal Kerning in Latin lookup 0 per glyph data 1" l dx=0 dy=0 dh=20 dv=0 dx=0 dy=0 dh=0 dv=0
PairPos2: "'kern' Horizontal Kerning in Latin lookup 0 per glyph data 1" k dx=0 dy=0 dh=50 dv=0 dx=0 dy=0 dh=0 dv=0
PairPos2: "'kern' Horizontal Kerning in Latin lookup 0 per glyph data 1" j dx=0 dy=0 dh=50 dv=0 dx=0 dy=0 dh=0 dv=0
PairPos2: "'kern' Horizontal Kerning in Latin lookup 0 per glyph data 1" i dx=0 dy=0 dh=50 dv=0 dx=0 dy=0 dh=0 dv=0
PairPos2: "'kern' Horizontal Kerning in Latin lookup 0 per glyph data 1" h dx=0 dy=0 dh=50 dv=0 dx=0 dy=0 dh=0 dv=0
PairPos2: "'kern' Horizontal Kerning in Latin lookup 0 per glyph data 1" f dx=0 dy=0 dh=50 dv=0 dx=0 dy=0 dh=0 dv=0
PairPos2: "'kern' Horizontal Kerning in Latin lookup 0 per glyph data 1" b dx=0 dy=0 dh=50 dv=0 dx=0 dy=0 dh=0 dv=0
PairPos2: "'kern' Horizontal Kerning in Latin lookup 0 per glyph data 1" bracketright dx=0 dy=0 dh=50 dv=0 dx=0 dy=0 dh=0 dv=0
PairPos2: "'kern' Horizontal Kerning in Latin lookup 0 per glyph data 1" bracketleft dx=0 dy=0 dh=50 dv=0 dx=0 dy=0 dh=0 dv=0
PairPos2: "'kern' Horizontal Kerning in Latin lookup 0 per glyph data 1" parenright dx=0 dy=0 dh=50 dv=0 dx=0 dy=0 dh=0 dv=0
PairPos2: "'kern' Horizontal Kerning in Latin lookup 0 per glyph data 1" parenleft dx=0 dy=0 dh=50 dv=0 dx=0 dy=0 dh=0 dv=0
EndChar

StartChar: h
Encoding: 104 104 75
Width: 556
GlyphClass: 2
Flags: W
LayerCount: 2
Fore
SplineSet
460 0 m 2,0,1
 419 0 419 0 397.5 18 c 128,-1,2
 376 36 376 36 375 54 c 2,3,-1
 374 71 l 1,4,-1
 374 385 l 2,5,6
 374 464 374 464 332 486 c 0,7,8
 312 496 312 496 281 496 c 0,9,10
 219 496 219 496 169.5 445.5 c 128,-1,11
 120 395 120 395 120 355 c 2,12,-1
 120 0 l 1,13,-1
 50 0 l 1,14,-1
 50 749 l 1,15,-1
 120 749 l 1,16,-1
 120 386 l 1,17,18
 136 429 136 429 181 466.5 c 128,-1,19
 226 504 226 504 282 504 c 0,20,21
 379 504 379 504 411.5 470.5 c 128,-1,22
 444 437 444 437 444 384 c 2,23,-1
 444 71 l 2,24,25
 444 42 444 42 455.5 26.5 c 128,-1,26
 467 11 467 11 478 10 c 2,27,-1
 490 8 l 1,28,-1
 521 8 l 1,29,-1
 521 0 l 1,30,-1
 460 0 l 2,0,1
EndSplineSet
EndChar

StartChar: i
Encoding: 105 105 76
Width: 243
GlyphClass: 2
Flags: W
LayerCount: 2
Fore
SplineSet
142 0 m 2,0,1
 101 0 101 0 79.5 18 c 128,-1,2
 58 36 58 36 57 54 c 2,3,-1
 56 71 l 1,4,-1
 56 500 l 1,5,-1
 126 500 l 1,6,-1
 126 71 l 2,7,8
 126 42 126 42 137.5 26.5 c 128,-1,9
 149 11 149 11 160 10 c 2,10,-1
 172 8 l 1,11,-1
 203 8 l 1,12,-1
 203 0 l 1,13,-1
 142 0 l 2,0,1
50 642 m 128,-1,15
 50 660 50 660 62 672.5 c 128,-1,16
 74 685 74 685 92 685 c 128,-1,17
 110 685 110 685 122.5 672.5 c 128,-1,18
 135 660 135 660 135 642 c 128,-1,19
 135 624 135 624 122.5 612 c 128,-1,20
 110 600 110 600 92 600 c 128,-1,21
 74 600 74 600 62 612 c 128,-1,14
 50 624 50 624 50 642 c 128,-1,15
EndSplineSet
EndChar

StartChar: j
Encoding: 106 106 77
Width: 231
GlyphClass: 2
Flags: W
LayerCount: 2
Fore
SplineSet
-60 -231 m 1,0,-1
 -57 -223 l 1,1,2
 -9 -242 -9 -242 37.5 -242 c 128,-1,3
 84 -242 84 -242 98.5 -213 c 128,-1,4
 113 -184 113 -184 113 -119 c 2,5,-1
 113 500 l 1,6,-1
 183 500 l 1,7,-1
 183 -118 l 2,8,9
 183 -197 183 -197 151 -223.5 c 128,-1,10
 119 -250 119 -250 54.5 -250 c 128,-1,11
 -10 -250 -10 -250 -60 -231 c 1,0,-1
106 642 m 128,-1,13
 106 660 106 660 118 672.5 c 128,-1,14
 130 685 130 685 148 685 c 128,-1,15
 166 685 166 685 178.5 672.5 c 128,-1,16
 191 660 191 660 191 642 c 128,-1,17
 191 624 191 624 178.5 612 c 128,-1,18
 166 600 166 600 148 600 c 128,-1,19
 130 600 130 600 118 612 c 128,-1,12
 106 624 106 624 106 642 c 128,-1,13
EndSplineSet
EndChar

StartChar: k
Encoding: 107 107 78
Width: 437
GlyphClass: 2
Flags: W
LayerCount: 2
Fore
SplineSet
120 750 m 1,0,-1
 120 252 l 1,1,-1
 340 500 l 1,2,-1
 350 500 l 1,3,-1
 187 316 l 1,4,-1
 402 0 l 1,5,-1
 332 0 l 1,6,-1
 147 272 l 1,7,-1
 120 241 l 1,8,-1
 120 0 l 1,9,-1
 50 0 l 1,10,-1
 50 750 l 1,11,-1
 120 750 l 1,0,-1
EndSplineSet
PairPos2: "'kern' Horizontal Kerning in Latin lookup 0 per glyph data 1" odieresis dx=0 dy=0 dh=-20 dv=0 dx=0 dy=0 dh=0 dv=0
PairPos2: "'kern' Horizontal Kerning in Latin lookup 0 per glyph data 1" otilde dx=0 dy=0 dh=-20 dv=0 dx=0 dy=0 dh=0 dv=0
PairPos2: "'kern' Horizontal Kerning in Latin lookup 0 per glyph data 1" ocircumflex dx=0 dy=0 dh=-20 dv=0 dx=0 dy=0 dh=0 dv=0
PairPos2: "'kern' Horizontal Kerning in Latin lookup 0 per glyph data 1" oacute dx=0 dy=0 dh=-20 dv=0 dx=0 dy=0 dh=0 dv=0
PairPos2: "'kern' Horizontal Kerning in Latin lookup 0 per glyph data 1" ograve dx=0 dy=0 dh=-20 dv=0 dx=0 dy=0 dh=0 dv=0
PairPos2: "'kern' Horizontal Kerning in Latin lookup 0 per glyph data 1" eth dx=0 dy=0 dh=-20 dv=0 dx=0 dy=0 dh=0 dv=0
PairPos2: "'kern' Horizontal Kerning in Latin lookup 0 per glyph data 1" edieresis dx=0 dy=0 dh=-40 dv=0 dx=0 dy=0 dh=0 dv=0
PairPos2: "'kern' Horizontal Kerning in Latin lookup 0 per glyph data 1" ecircumflex dx=0 dy=0 dh=-40 dv=0 dx=0 dy=0 dh=0 dv=0
PairPos2: "'kern' Horizontal Kerning in Latin lookup 0 per glyph data 1" eacute dx=0 dy=0 dh=-40 dv=0 dx=0 dy=0 dh=0 dv=0
PairPos2: "'kern' Horizontal Kerning in Latin lookup 0 per glyph data 1" egrave dx=0 dy=0 dh=-40 dv=0 dx=0 dy=0 dh=0 dv=0
PairPos2: "'kern' Horizontal Kerning in Latin lookup 0 per glyph data 1" ccedilla dx=0 dy=0 dh=-40 dv=0 dx=0 dy=0 dh=0 dv=0
PairPos2: "'kern' Horizontal Kerning in Latin lookup 0 per glyph data 1" aring dx=0 dy=0 dh=-10 dv=0 dx=0 dy=0 dh=0 dv=0
PairPos2: "'kern' Horizontal Kerning in Latin lookup 0 per glyph data 1" adieresis dx=0 dy=0 dh=-10 dv=0 dx=0 dy=0 dh=0 dv=0
PairPos2: "'kern' Horizontal Kerning in Latin lookup 0 per glyph data 1" atilde dx=0 dy=0 dh=-10 dv=0 dx=0 dy=0 dh=0 dv=0
PairPos2: "'kern' Horizontal Kerning in Latin lookup 0 per glyph data 1" acircumflex dx=0 dy=0 dh=-10 dv=0 dx=0 dy=0 dh=0 dv=0
PairPos2: "'kern' Horizontal Kerning in Latin lookup 0 per glyph data 1" aacute dx=0 dy=0 dh=-10 dv=0 dx=0 dy=0 dh=0 dv=0
PairPos2: "'kern' Horizontal Kerning in Latin lookup 0 per glyph data 1" agrave dx=0 dy=0 dh=-10 dv=0 dx=0 dy=0 dh=0 dv=0
PairPos2: "'kern' Horizontal Kerning in Latin lookup 0 per glyph data 1" cent dx=0 dy=0 dh=-40 dv=0 dx=0 dy=0 dh=0 dv=0
PairPos2: "'kern' Horizontal Kerning in Latin lookup 0 per glyph data 1" y dx=0 dy=0 dh=-30 dv=0 dx=0 dy=0 dh=0 dv=0
PairPos2: "'kern' Horizontal Kerning in Latin lookup 0 per glyph data 1" w dx=0 dy=0 dh=-30 dv=0 dx=0 dy=0 dh=0 dv=0
PairPos2: "'kern' Horizontal Kerning in Latin lookup 0 per glyph data 1" v dx=0 dy=0 dh=-30 dv=0 dx=0 dy=0 dh=0 dv=0
PairPos2: "'kern' Horizontal Kerning in Latin lookup 0 per glyph data 1" s dx=0 dy=0 dh=-10 dv=0 dx=0 dy=0 dh=0 dv=0
PairPos2: "'kern' Horizontal Kerning in Latin lookup 0 per glyph data 1" o dx=0 dy=0 dh=-20 dv=0 dx=0 dy=0 dh=0 dv=0
PairPos2: "'kern' Horizontal Kerning in Latin lookup 0 per glyph data 1" e dx=0 dy=0 dh=-40 dv=0 dx=0 dy=0 dh=0 dv=0
PairPos2: "'kern' Horizontal Kerning in Latin lookup 0 per glyph data 1" c dx=0 dy=0 dh=-40 dv=0 dx=0 dy=0 dh=0 dv=0
PairPos2: "'kern' Horizontal Kerning in Latin lookup 0 per glyph data 1" a dx=0 dy=0 dh=-10 dv=0 dx=0 dy=0 dh=0 dv=0
EndChar

StartChar: l
Encoding: 108 108 79
Width: 233
GlyphClass: 2
Flags: W
LayerCount: 2
Fore
SplineSet
167 0 m 2,0,1
 79 0 79 0 56 46 c 0,2,3
 51 56 51 56 51 64 c 2,4,-1
 51 749 l 1,5,-1
 121 749 l 1,6,-1
 121 71 l 2,7,8
 121 42 121 42 132.5 26.5 c 128,-1,9
 144 11 144 11 156 10 c 1,10,-1
 167 8 l 1,11,-1
 198 8 l 1,12,-1
 198 0 l 1,13,-1
 167 0 l 2,0,1
EndSplineSet
EndChar

StartChar: m
Encoding: 109 109 80
Width: 800
GlyphClass: 2
Flags: W
LayerCount: 2
Fore
SplineSet
643 385 m 2,0,1
 643 446 643 446 627 471 c 128,-1,2
 611 496 611 496 566 496 c 0,3,4
 506 496 506 496 459.5 446 c 128,-1,5
 413 396 413 396 413 356 c 2,6,-1
 413 0 l 1,7,-1
 343 0 l 1,8,-1
 343 385 l 2,9,10
 343 446 343 446 327 471 c 128,-1,11
 311 496 311 496 259 496 c 128,-1,12
 207 496 207 496 160.5 448 c 128,-1,13
 114 400 114 400 110 359 c 1,14,-1
 110 0 l 1,15,-1
 40 0 l 1,16,-1
 40 500 l 1,17,-1
 110 500 l 1,18,-1
 110 387 l 1,19,20
 126 430 126 430 169 467 c 128,-1,21
 212 504 212 504 265 504 c 128,-1,22
 318 504 318 504 349.5 494.5 c 128,-1,23
 381 485 381 485 394 465 c 128,-1,24
 407 445 407 445 410 430 c 128,-1,25
 413 415 413 415 413 388 c 1,26,27
 429 431 429 431 471 467.5 c 128,-1,28
 513 504 513 504 561 504 c 128,-1,29
 609 504 609 504 638 496 c 128,-1,30
 667 488 667 488 681.5 478 c 128,-1,31
 696 468 696 468 703.5 449 c 128,-1,32
 711 430 711 430 712 418 c 128,-1,33
 713 406 713 406 713 384 c 2,34,-1
 713 71 l 2,35,36
 713 42 713 42 724.5 26.5 c 128,-1,37
 736 11 736 11 748 10 c 1,38,-1
 759 8 l 1,39,-1
 790 8 l 1,40,-1
 790 0 l 1,41,-1
 729 0 l 2,42,43
 688 0 688 0 666.5 18 c 128,-1,44
 645 36 645 36 644 54 c 2,45,-1
 643 71 l 1,46,-1
 643 385 l 2,0,1
EndSplineSet
EndChar

StartChar: n
Encoding: 110 110 81
Width: 526
GlyphClass: 2
Flags: W
LayerCount: 2
Fore
SplineSet
455 0 m 2,0,1
 414 0 414 0 392.5 18 c 128,-1,2
 371 36 371 36 370 54 c 2,3,-1
 369 71 l 1,4,-1
 369 385 l 2,5,6
 369 464 369 464 328 486 c 1,7,8
 307 496 307 496 276 496 c 0,9,10
 212 496 212 496 161 445.5 c 128,-1,11
 110 395 110 395 110 355 c 2,12,-1
 110 0 l 1,13,-1
 40 0 l 1,14,-1
 40 500 l 1,15,-1
 110 500 l 1,16,-1
 110 386 l 1,17,18
 127 429 127 429 173 466.5 c 128,-1,19
 219 504 219 504 274 504 c 128,-1,20
 329 504 329 504 363.5 493.5 c 128,-1,21
 398 483 398 483 414 464 c 0,22,23
 439 433 439 433 439 384 c 2,24,-1
 439 71 l 2,25,26
 439 42 439 42 450.5 26.5 c 128,-1,27
 462 11 462 11 474 10 c 1,28,-1
 485 8 l 1,29,-1
 516 8 l 1,30,-1
 516 0 l 1,31,-1
 455 0 l 2,0,1
EndSplineSet
EndChar

StartChar: o
Encoding: 111 111 82
Width: 560
GlyphClass: 2
Flags: W
LayerCount: 2
Fore
SplineSet
106 56 m 128,-1,1
 40 116 40 116 40 241 c 128,-1,2
 40 366 40 366 108.5 435 c 128,-1,3
 177 504 177 504 282.5 504 c 128,-1,4
 388 504 388 504 454 444 c 128,-1,5
 520 384 520 384 520 259 c 128,-1,6
 520 134 520 134 451.5 65 c 128,-1,7
 383 -4 383 -4 277.5 -4 c 128,-1,0
 172 -4 172 -4 106 56 c 128,-1,1
158 428.5 m 128,-1,9
 108 361 108 361 108 240.5 c 128,-1,10
 108 120 108 120 154 62 c 128,-1,11
 200 4 200 4 276 4 c 128,-1,12
 352 4 352 4 402 71.5 c 128,-1,13
 452 139 452 139 452 259.5 c 128,-1,14
 452 380 452 380 406 438 c 128,-1,15
 360 496 360 496 284 496 c 128,-1,8
 208 496 208 496 158 428.5 c 128,-1,9
EndSplineSet
EndChar

StartChar: p
Encoding: 112 112 83
Width: 530
GlyphClass: 2
Flags: W
LayerCount: 2
Fore
SplineSet
50 500 m 1,0,-1
 120 500 l 1,1,-1
 120 376 l 1,2,3
 137 422 137 422 183 463 c 128,-1,4
 229 504 229 504 287 504 c 0,5,6
 490 504 490 504 490 266 c 0,7,8
 490 -4 490 -4 228 -4 c 0,9,10
 181 -4 181 -4 120 18 c 1,11,-1
 120 -250 l 1,12,-1
 50 -250 l 1,13,-1
 50 500 l 1,0,-1
286 496 m 0,14,15
 224 496 224 496 174 442.5 c 128,-1,16
 124 389 124 389 120 346 c 1,17,-1
 120 27 l 1,18,19
 181 4 181 4 227 4 c 0,20,21
 420 4 420 4 420 267 c 0,22,23
 420 496 420 496 286 496 c 0,14,15
EndSplineSet
EndChar

StartChar: q
Encoding: 113 113 84
Width: 521
GlyphClass: 2
Flags: W
LayerCount: 2
Fore
SplineSet
40 232 m 0,0,1
 40 362 40 362 103 433 c 128,-1,2
 166 504 166 504 292 504 c 0,3,4
 351 504 351 504 411 474 c 1,5,-1
 411 500 l 1,6,-1
 481 500 l 1,7,-1
 481 -250 l 1,8,-1
 411 -250 l 1,9,-1
 411 87 l 1,10,11
 392 52 392 52 348 25 c 128,-1,12
 304 -2 304 -2 244 -2 c 1,13,14
 40 3 40 3 40 232 c 0,0,1
245 6 m 0,15,16
 312 6 312 6 360 42 c 128,-1,17
 408 78 408 78 411 113 c 1,18,-1
 411 465 l 1,19,20
 340 496 340 496 289 496 c 0,21,22
 200 496 200 496 155 426.5 c 128,-1,23
 110 357 110 357 110 232 c 0,24,25
 110 6 110 6 245 6 c 0,15,16
EndSplineSet
EndChar

StartChar: r
Encoding: 114 114 85
Width: 359
GlyphClass: 2
Flags: W
LayerCount: 2
Fore
SplineSet
231 457 m 2,0,-1
 231 478 l 1,1,2
 186 460 186 460 149 405.5 c 128,-1,3
 112 351 112 351 110 303 c 1,4,-1
 110 0 l 1,5,-1
 40 0 l 1,6,-1
 40 500 l 1,7,-1
 110 500 l 1,8,-1
 110 341 l 1,9,10
 126 399 126 399 171 450.5 c 128,-1,11
 216 502 216 502 273 504 c 1,12,-1
 277 504 l 2,13,14
 297 504 297 504 310.5 490.5 c 128,-1,15
 324 477 324 477 324 457 c 128,-1,16
 324 437 324 437 310.5 424 c 128,-1,17
 297 411 297 411 277 411 c 128,-1,18
 257 411 257 411 244 424 c 128,-1,19
 231 437 231 437 231 457 c 2,0,-1
EndSplineSet
PairPos2: "'kern' Horizontal Kerning in Latin lookup 0 per glyph data 1" ellipsis dx=0 dy=0 dh=-100 dv=0 dx=0 dy=0 dh=0 dv=0
PairPos2: "'kern' Horizontal Kerning in Latin lookup 0 per glyph data 1" odieresis dx=0 dy=0 dh=-40 dv=0 dx=0 dy=0 dh=0 dv=0
PairPos2: "'kern' Horizontal Kerning in Latin lookup 0 per glyph data 1" otilde dx=0 dy=0 dh=-40 dv=0 dx=0 dy=0 dh=0 dv=0
PairPos2: "'kern' Horizontal Kerning in Latin lookup 0 per glyph data 1" ocircumflex dx=0 dy=0 dh=-40 dv=0 dx=0 dy=0 dh=0 dv=0
PairPos2: "'kern' Horizontal Kerning in Latin lookup 0 per glyph data 1" oacute dx=0 dy=0 dh=-40 dv=0 dx=0 dy=0 dh=0 dv=0
PairPos2: "'kern' Horizontal Kerning in Latin lookup 0 per glyph data 1" ograve dx=0 dy=0 dh=-40 dv=0 dx=0 dy=0 dh=0 dv=0
PairPos2: "'kern' Horizontal Kerning in Latin lookup 0 per glyph data 1" eth dx=0 dy=0 dh=-40 dv=0 dx=0 dy=0 dh=0 dv=0
PairPos2: "'kern' Horizontal Kerning in Latin lookup 0 per glyph data 1" edieresis dx=0 dy=0 dh=-30 dv=0 dx=0 dy=0 dh=0 dv=0
PairPos2: "'kern' Horizontal Kerning in Latin lookup 0 per glyph data 1" ecircumflex dx=0 dy=0 dh=-30 dv=0 dx=0 dy=0 dh=0 dv=0
PairPos2: "'kern' Horizontal Kerning in Latin lookup 0 per glyph data 1" eacute dx=0 dy=0 dh=-30 dv=0 dx=0 dy=0 dh=0 dv=0
PairPos2: "'kern' Horizontal Kerning in Latin lookup 0 per glyph data 1" egrave dx=0 dy=0 dh=-30 dv=0 dx=0 dy=0 dh=0 dv=0
PairPos2: "'kern' Horizontal Kerning in Latin lookup 0 per glyph data 1" ccedilla dx=0 dy=0 dh=-30 dv=0 dx=0 dy=0 dh=0 dv=0
PairPos2: "'kern' Horizontal Kerning in Latin lookup 0 per glyph data 1" ae dx=0 dy=0 dh=-20 dv=0 dx=0 dy=0 dh=0 dv=0
PairPos2: "'kern' Horizontal Kerning in Latin lookup 0 per glyph data 1" aring dx=0 dy=0 dh=-30 dv=0 dx=0 dy=0 dh=0 dv=0
PairPos2: "'kern' Horizontal Kerning in Latin lookup 0 per glyph data 1" adieresis dx=0 dy=0 dh=-30 dv=0 dx=0 dy=0 dh=0 dv=0
PairPos2: "'kern' Horizontal Kerning in Latin lookup 0 per glyph data 1" atilde dx=0 dy=0 dh=-30 dv=0 dx=0 dy=0 dh=0 dv=0
PairPos2: "'kern' Horizontal Kerning in Latin lookup 0 per glyph data 1" acircumflex dx=0 dy=0 dh=-30 dv=0 dx=0 dy=0 dh=0 dv=0
PairPos2: "'kern' Horizontal Kerning in Latin lookup 0 per glyph data 1" aacute dx=0 dy=0 dh=-30 dv=0 dx=0 dy=0 dh=0 dv=0
PairPos2: "'kern' Horizontal Kerning in Latin lookup 0 per glyph data 1" agrave dx=0 dy=0 dh=-30 dv=0 dx=0 dy=0 dh=0 dv=0
PairPos2: "'kern' Horizontal Kerning in Latin lookup 0 per glyph data 1" cent dx=0 dy=0 dh=-30 dv=0 dx=0 dy=0 dh=0 dv=0
PairPos2: "'kern' Horizontal Kerning in Latin lookup 0 per glyph data 1" z dx=0 dy=0 dh=-20 dv=0 dx=0 dy=0 dh=0 dv=0
PairPos2: "'kern' Horizontal Kerning in Latin lookup 0 per glyph data 1" x dx=0 dy=0 dh=-20 dv=0 dx=0 dy=0 dh=0 dv=0
PairPos2: "'kern' Horizontal Kerning in Latin lookup 0 per glyph data 1" s dx=0 dy=0 dh=-10 dv=0 dx=0 dy=0 dh=0 dv=0
PairPos2: "'kern' Horizontal Kerning in Latin lookup 0 per glyph data 1" q dx=0 dy=0 dh=-30 dv=0 dx=0 dy=0 dh=0 dv=0
PairPos2: "'kern' Horizontal Kerning in Latin lookup 0 per glyph data 1" o dx=0 dy=0 dh=-40 dv=0 dx=0 dy=0 dh=0 dv=0
PairPos2: "'kern' Horizontal Kerning in Latin lookup 0 per glyph data 1" g dx=0 dy=0 dh=-30 dv=0 dx=0 dy=0 dh=0 dv=0
PairPos2: "'kern' Horizontal Kerning in Latin lookup 0 per glyph data 1" e dx=0 dy=0 dh=-30 dv=0 dx=0 dy=0 dh=0 dv=0
PairPos2: "'kern' Horizontal Kerning in Latin lookup 0 per glyph data 1" d dx=0 dy=0 dh=-30 dv=0 dx=0 dy=0 dh=0 dv=0
PairPos2: "'kern' Horizontal Kerning in Latin lookup 0 per glyph data 1" c dx=0 dy=0 dh=-30 dv=0 dx=0 dy=0 dh=0 dv=0
PairPos2: "'kern' Horizontal Kerning in Latin lookup 0 per glyph data 1" a dx=0 dy=0 dh=-30 dv=0 dx=0 dy=0 dh=0 dv=0
PairPos2: "'kern' Horizontal Kerning in Latin lookup 0 per glyph data 1" period dx=0 dy=0 dh=-100 dv=0 dx=0 dy=0 dh=0 dv=0
EndChar

StartChar: s
Encoding: 115 115 86
Width: 422
GlyphClass: 2
Flags: W
LayerCount: 2
Fore
SplineSet
332 465 m 1,0,1
 316 478 316 478 280.5 487 c 128,-1,2
 245 496 245 496 227 496 c 128,-1,3
 209 496 209 496 206 496 c 0,4,5
 152 495 152 495 128 468.5 c 128,-1,6
 104 442 104 442 104 409 c 128,-1,7
 104 376 104 376 125 353.5 c 128,-1,8
 146 331 146 331 177.5 318.5 c 128,-1,9
 209 306 209 306 245.5 290 c 128,-1,10
 282 274 282 274 313.5 257.5 c 128,-1,11
 345 241 345 241 366 209.5 c 128,-1,12
 387 178 387 178 387 131 c 128,-1,13
 387 84 387 84 354 51 c 128,-1,14
 321 18 321 18 280.5 7 c 128,-1,15
 240 -4 240 -4 193 -4 c 0,16,17
 91 -4 91 -4 40 41 c 1,18,-1
 46 47 l 1,19,20
 66 28 66 28 105.5 16 c 128,-1,21
 145 4 145 4 182 4 c 0,22,23
 241 4 241 4 279.5 36.5 c 128,-1,24
 318 69 318 69 318 117.5 c 128,-1,25
 318 166 318 166 289 195.5 c 128,-1,26
 260 225 260 225 218.5 241.5 c 128,-1,27
 177 258 177 258 135 274.5 c 128,-1,28
 93 291 93 291 64 320.5 c 128,-1,29
 35 350 35 350 35 389 c 128,-1,30
 35 428 35 428 53 452.5 c 128,-1,31
 71 477 71 477 101 487 c 0,32,33
 152 504 152 504 203 504 c 0,34,35
 289 504 289 504 337 472 c 1,36,-1
 332 465 l 1,0,1
EndSplineSet
PairPos2: "'kern' Horizontal Kerning in Latin lookup 0 per glyph data 1" dotlessi dx=0 dy=0 dh=-20 dv=0 dx=0 dy=0 dh=0 dv=0
PairPos2: "'kern' Horizontal Kerning in Latin lookup 0 per glyph data 1" thorn dx=0 dy=0 dh=-20 dv=0 dx=0 dy=0 dh=0 dv=0
PairPos2: "'kern' Horizontal Kerning in Latin lookup 0 per glyph data 1" odieresis dx=0 dy=0 dh=-10 dv=0 dx=0 dy=0 dh=0 dv=0
PairPos2: "'kern' Horizontal Kerning in Latin lookup 0 per glyph data 1" otilde dx=0 dy=0 dh=-10 dv=0 dx=0 dy=0 dh=0 dv=0
PairPos2: "'kern' Horizontal Kerning in Latin lookup 0 per glyph data 1" ocircumflex dx=0 dy=0 dh=-10 dv=0 dx=0 dy=0 dh=0 dv=0
PairPos2: "'kern' Horizontal Kerning in Latin lookup 0 per glyph data 1" oacute dx=0 dy=0 dh=-10 dv=0 dx=0 dy=0 dh=0 dv=0
PairPos2: "'kern' Horizontal Kerning in Latin lookup 0 per glyph data 1" ograve dx=0 dy=0 dh=-10 dv=0 dx=0 dy=0 dh=0 dv=0
PairPos2: "'kern' Horizontal Kerning in Latin lookup 0 per glyph data 1" ntilde dx=0 dy=0 dh=-20 dv=0 dx=0 dy=0 dh=0 dv=0
PairPos2: "'kern' Horizontal Kerning in Latin lookup 0 per glyph data 1" eth dx=0 dy=0 dh=-10 dv=0 dx=0 dy=0 dh=0 dv=0
PairPos2: "'kern' Horizontal Kerning in Latin lookup 0 per glyph data 1" idieresis dx=0 dy=0 dh=-20 dv=0 dx=0 dy=0 dh=0 dv=0
PairPos2: "'kern' Horizontal Kerning in Latin lookup 0 per glyph data 1" icircumflex dx=0 dy=0 dh=-20 dv=0 dx=0 dy=0 dh=0 dv=0
PairPos2: "'kern' Horizontal Kerning in Latin lookup 0 per glyph data 1" iacute dx=0 dy=0 dh=-20 dv=0 dx=0 dy=0 dh=0 dv=0
PairPos2: "'kern' Horizontal Kerning in Latin lookup 0 per glyph data 1" igrave dx=0 dy=0 dh=-20 dv=0 dx=0 dy=0 dh=0 dv=0
PairPos2: "'kern' Horizontal Kerning in Latin lookup 0 per glyph data 1" bar dx=0 dy=0 dh=-20 dv=0 dx=0 dy=0 dh=0 dv=0
PairPos2: "'kern' Horizontal Kerning in Latin lookup 0 per glyph data 1" z dx=0 dy=0 dh=-10 dv=0 dx=0 dy=0 dh=0 dv=0
PairPos2: "'kern' Horizontal Kerning in Latin lookup 0 per glyph data 1" y dx=0 dy=0 dh=-20 dv=0 dx=0 dy=0 dh=0 dv=0
PairPos2: "'kern' Horizontal Kerning in Latin lookup 0 per glyph data 1" x dx=0 dy=0 dh=-20 dv=0 dx=0 dy=0 dh=0 dv=0
PairPos2: "'kern' Horizontal Kerning in Latin lookup 0 per glyph data 1" w dx=0 dy=0 dh=-20 dv=0 dx=0 dy=0 dh=0 dv=0
PairPos2: "'kern' Horizontal Kerning in Latin lookup 0 per glyph data 1" v dx=0 dy=0 dh=-20 dv=0 dx=0 dy=0 dh=0 dv=0
PairPos2: "'kern' Horizontal Kerning in Latin lookup 0 per glyph data 1" s dx=0 dy=0 dh=-10 dv=0 dx=0 dy=0 dh=0 dv=0
PairPos2: "'kern' Horizontal Kerning in Latin lookup 0 per glyph data 1" r dx=0 dy=0 dh=-20 dv=0 dx=0 dy=0 dh=0 dv=0
PairPos2: "'kern' Horizontal Kerning in Latin lookup 0 per glyph data 1" p dx=0 dy=0 dh=-20 dv=0 dx=0 dy=0 dh=0 dv=0
PairPos2: "'kern' Horizontal Kerning in Latin lookup 0 per glyph data 1" o dx=0 dy=0 dh=-10 dv=0 dx=0 dy=0 dh=0 dv=0
PairPos2: "'kern' Horizontal Kerning in Latin lookup 0 per glyph data 1" n dx=0 dy=0 dh=-20 dv=0 dx=0 dy=0 dh=0 dv=0
PairPos2: "'kern' Horizontal Kerning in Latin lookup 0 per glyph data 1" m dx=0 dy=0 dh=-20 dv=0 dx=0 dy=0 dh=0 dv=0
PairPos2: "'kern' Horizontal Kerning in Latin lookup 0 per glyph data 1" k dx=0 dy=0 dh=-20 dv=0 dx=0 dy=0 dh=0 dv=0
PairPos2: "'kern' Horizontal Kerning in Latin lookup 0 per glyph data 1" j dx=0 dy=0 dh=-20 dv=0 dx=0 dy=0 dh=0 dv=0
PairPos2: "'kern' Horizontal Kerning in Latin lookup 0 per glyph data 1" i dx=0 dy=0 dh=-20 dv=0 dx=0 dy=0 dh=0 dv=0
PairPos2: "'kern' Horizontal Kerning in Latin lookup 0 per glyph data 1" h dx=0 dy=0 dh=-20 dv=0 dx=0 dy=0 dh=0 dv=0
PairPos2: "'kern' Horizontal Kerning in Latin lookup 0 per glyph data 1" f dx=0 dy=0 dh=-20 dv=0 dx=0 dy=0 dh=0 dv=0
PairPos2: "'kern' Horizontal Kerning in Latin lookup 0 per glyph data 1" b dx=0 dy=0 dh=-20 dv=0 dx=0 dy=0 dh=0 dv=0
PairPos2: "'kern' Horizontal Kerning in Latin lookup 0 per glyph data 1" bracketright dx=0 dy=0 dh=-20 dv=0 dx=0 dy=0 dh=0 dv=0
PairPos2: "'kern' Horizontal Kerning in Latin lookup 0 per glyph data 1" bracketleft dx=0 dy=0 dh=-20 dv=0 dx=0 dy=0 dh=0 dv=0
PairPos2: "'kern' Horizontal Kerning in Latin lookup 0 per glyph data 1" parenright dx=0 dy=0 dh=-20 dv=0 dx=0 dy=0 dh=0 dv=0
PairPos2: "'kern' Horizontal Kerning in Latin lookup 0 per glyph data 1" parenleft dx=0 dy=0 dh=-20 dv=0 dx=0 dy=0 dh=0 dv=0
EndChar

StartChar: t
Encoding: 116 116 87
Width: 334
GlyphClass: 2
Flags: W
LayerCount: 2
Fore
SplineSet
35 492 m 1,0,-1
 35 500 l 1,1,-1
 56 500 l 1,2,-1
 56 600 l 1,3,-1
 126 600 l 1,4,-1
 126 500 l 1,5,-1
 279 500 l 1,6,-1
 279 492 l 1,7,-1
 126 492 l 1,8,-1
 126 128 l 2,9,10
 126 63 126 63 140.5 34 c 128,-1,11
 155 5 155 5 201.5 5 c 128,-1,12
 248 5 248 5 296 24 c 1,13,-1
 299 16 l 1,14,15
 249 -3 249 -3 184.5 -3 c 128,-1,16
 120 -3 120 -3 88 23.5 c 128,-1,17
 56 50 56 50 56 129 c 2,18,-1
 56 492 l 1,19,-1
 35 492 l 1,0,-1
EndSplineSet
PairPos2: "'kern' Horizontal Kerning in Latin lookup 0 per glyph data 1" dotlessi dx=0 dy=0 dh=-30 dv=0 dx=0 dy=0 dh=0 dv=0
PairPos2: "'kern' Horizontal Kerning in Latin lookup 0 per glyph data 1" thorn dx=0 dy=0 dh=-30 dv=0 dx=0 dy=0 dh=0 dv=0
PairPos2: "'kern' Horizontal Kerning in Latin lookup 0 per glyph data 1" odieresis dx=0 dy=0 dh=-50 dv=0 dx=0 dy=0 dh=0 dv=0
PairPos2: "'kern' Horizontal Kerning in Latin lookup 0 per glyph data 1" otilde dx=0 dy=0 dh=-50 dv=0 dx=0 dy=0 dh=0 dv=0
PairPos2: "'kern' Horizontal Kerning in Latin lookup 0 per glyph data 1" ocircumflex dx=0 dy=0 dh=-50 dv=0 dx=0 dy=0 dh=0 dv=0
PairPos2: "'kern' Horizontal Kerning in Latin lookup 0 per glyph data 1" oacute dx=0 dy=0 dh=-50 dv=0 dx=0 dy=0 dh=0 dv=0
PairPos2: "'kern' Horizontal Kerning in Latin lookup 0 per glyph data 1" ograve dx=0 dy=0 dh=-50 dv=0 dx=0 dy=0 dh=0 dv=0
PairPos2: "'kern' Horizontal Kerning in Latin lookup 0 per glyph data 1" ntilde dx=0 dy=0 dh=-30 dv=0 dx=0 dy=0 dh=0 dv=0
PairPos2: "'kern' Horizontal Kerning in Latin lookup 0 per glyph data 1" eth dx=0 dy=0 dh=-50 dv=0 dx=0 dy=0 dh=0 dv=0
PairPos2: "'kern' Horizontal Kerning in Latin lookup 0 per glyph data 1" idieresis dx=0 dy=0 dh=-30 dv=0 dx=0 dy=0 dh=0 dv=0
PairPos2: "'kern' Horizontal Kerning in Latin lookup 0 per glyph data 1" icircumflex dx=0 dy=0 dh=-30 dv=0 dx=0 dy=0 dh=0 dv=0
PairPos2: "'kern' Horizontal Kerning in Latin lookup 0 per glyph data 1" iacute dx=0 dy=0 dh=-30 dv=0 dx=0 dy=0 dh=0 dv=0
PairPos2: "'kern' Horizontal Kerning in Latin lookup 0 per glyph data 1" igrave dx=0 dy=0 dh=-30 dv=0 dx=0 dy=0 dh=0 dv=0
PairPos2: "'kern' Horizontal Kerning in Latin lookup 0 per glyph data 1" edieresis dx=0 dy=0 dh=-30 dv=0 dx=0 dy=0 dh=0 dv=0
PairPos2: "'kern' Horizontal Kerning in Latin lookup 0 per glyph data 1" ecircumflex dx=0 dy=0 dh=-30 dv=0 dx=0 dy=0 dh=0 dv=0
PairPos2: "'kern' Horizontal Kerning in Latin lookup 0 per glyph data 1" eacute dx=0 dy=0 dh=-30 dv=0 dx=0 dy=0 dh=0 dv=0
PairPos2: "'kern' Horizontal Kerning in Latin lookup 0 per glyph data 1" egrave dx=0 dy=0 dh=-30 dv=0 dx=0 dy=0 dh=0 dv=0
PairPos2: "'kern' Horizontal Kerning in Latin lookup 0 per glyph data 1" ccedilla dx=0 dy=0 dh=-30 dv=0 dx=0 dy=0 dh=0 dv=0
PairPos2: "'kern' Horizontal Kerning in Latin lookup 0 per glyph data 1" aring dx=0 dy=0 dh=-20 dv=0 dx=0 dy=0 dh=0 dv=0
PairPos2: "'kern' Horizontal Kerning in Latin lookup 0 per glyph data 1" adieresis dx=0 dy=0 dh=-20 dv=0 dx=0 dy=0 dh=0 dv=0
PairPos2: "'kern' Horizontal Kerning in Latin lookup 0 per glyph data 1" atilde dx=0 dy=0 dh=-20 dv=0 dx=0 dy=0 dh=0 dv=0
PairPos2: "'kern' Horizontal Kerning in Latin lookup 0 per glyph data 1" acircumflex dx=0 dy=0 dh=-20 dv=0 dx=0 dy=0 dh=0 dv=0
PairPos2: "'kern' Horizontal Kerning in Latin lookup 0 per glyph data 1" aacute dx=0 dy=0 dh=-20 dv=0 dx=0 dy=0 dh=0 dv=0
PairPos2: "'kern' Horizontal Kerning in Latin lookup 0 per glyph data 1" agrave dx=0 dy=0 dh=-20 dv=0 dx=0 dy=0 dh=0 dv=0
PairPos2: "'kern' Horizontal Kerning in Latin lookup 0 per glyph data 1" cent dx=0 dy=0 dh=-30 dv=0 dx=0 dy=0 dh=0 dv=0
PairPos2: "'kern' Horizontal Kerning in Latin lookup 0 per glyph data 1" bar dx=0 dy=0 dh=-30 dv=0 dx=0 dy=0 dh=0 dv=0
PairPos2: "'kern' Horizontal Kerning in Latin lookup 0 per glyph data 1" y dx=0 dy=0 dh=-20 dv=0 dx=0 dy=0 dh=0 dv=0
PairPos2: "'kern' Horizontal Kerning in Latin lookup 0 per glyph data 1" w dx=0 dy=0 dh=-20 dv=0 dx=0 dy=0 dh=0 dv=0
PairPos2: "'kern' Horizontal Kerning in Latin lookup 0 per glyph data 1" v dx=0 dy=0 dh=-20 dv=0 dx=0 dy=0 dh=0 dv=0
PairPos2: "'kern' Horizontal Kerning in Latin lookup 0 per glyph data 1" s dx=0 dy=0 dh=-10 dv=0 dx=0 dy=0 dh=0 dv=0
PairPos2: "'kern' Horizontal Kerning in Latin lookup 0 per glyph data 1" r dx=0 dy=0 dh=-30 dv=0 dx=0 dy=0 dh=0 dv=0
PairPos2: "'kern' Horizontal Kerning in Latin lookup 0 per glyph data 1" p dx=0 dy=0 dh=-30 dv=0 dx=0 dy=0 dh=0 dv=0
PairPos2: "'kern' Horizontal Kerning in Latin lookup 0 per glyph data 1" o dx=0 dy=0 dh=-50 dv=0 dx=0 dy=0 dh=0 dv=0
PairPos2: "'kern' Horizontal Kerning in Latin lookup 0 per glyph data 1" n dx=0 dy=0 dh=-30 dv=0 dx=0 dy=0 dh=0 dv=0
PairPos2: "'kern' Horizontal Kerning in Latin lookup 0 per glyph data 1" m dx=0 dy=0 dh=-30 dv=0 dx=0 dy=0 dh=0 dv=0
PairPos2: "'kern' Horizontal Kerning in Latin lookup 0 per glyph data 1" k dx=0 dy=0 dh=-30 dv=0 dx=0 dy=0 dh=0 dv=0
PairPos2: "'kern' Horizontal Kerning in Latin lookup 0 per glyph data 1" j dx=0 dy=0 dh=-30 dv=0 dx=0 dy=0 dh=0 dv=0
PairPos2: "'kern' Horizontal Kerning in Latin lookup 0 per glyph data 1" i dx=0 dy=0 dh=-30 dv=0 dx=0 dy=0 dh=0 dv=0
PairPos2: "'kern' Horizontal Kerning in Latin lookup 0 per glyph data 1" h dx=0 dy=0 dh=-30 dv=0 dx=0 dy=0 dh=0 dv=0
PairPos2: "'kern' Horizontal Kerning in Latin lookup 0 per glyph data 1" f dx=0 dy=0 dh=-30 dv=0 dx=0 dy=0 dh=0 dv=0
PairPos2: "'kern' Horizontal Kerning in Latin lookup 0 per glyph data 1" e dx=0 dy=0 dh=-30 dv=0 dx=0 dy=0 dh=0 dv=0
PairPos2: "'kern' Horizontal Kerning in Latin lookup 0 per glyph data 1" c dx=0 dy=0 dh=-30 dv=0 dx=0 dy=0 dh=0 dv=0
PairPos2: "'kern' Horizontal Kerning in Latin lookup 0 per glyph data 1" b dx=0 dy=0 dh=-30 dv=0 dx=0 dy=0 dh=0 dv=0
PairPos2: "'kern' Horizontal Kerning in Latin lookup 0 per glyph data 1" a dx=0 dy=0 dh=-20 dv=0 dx=0 dy=0 dh=0 dv=0
PairPos2: "'kern' Horizontal Kerning in Latin lookup 0 per glyph data 1" bracketright dx=0 dy=0 dh=-30 dv=0 dx=0 dy=0 dh=0 dv=0
PairPos2: "'kern' Horizontal Kerning in Latin lookup 0 per glyph data 1" bracketleft dx=0 dy=0 dh=-30 dv=0 dx=0 dy=0 dh=0 dv=0
PairPos2: "'kern' Horizontal Kerning in Latin lookup 0 per glyph data 1" parenright dx=0 dy=0 dh=-30 dv=0 dx=0 dy=0 dh=0 dv=0
PairPos2: "'kern' Horizontal Kerning in Latin lookup 0 per glyph data 1" parenleft dx=0 dy=0 dh=-30 dv=0 dx=0 dy=0 dh=0 dv=0
EndChar

StartChar: u
Encoding: 117 117 88
Width: 526
GlyphClass: 2
Flags: W
LayerCount: 2
Fore
SplineSet
110 115 m 2,0,1
 110 36 110 36 152 14 c 0,2,3
 172 4 172 4 203 4 c 0,4,5
 266 4 266 4 315.5 52 c 128,-1,6
 365 100 365 100 369 141 c 1,7,-1
 369 500 l 1,8,-1
 439 500 l 1,9,-1
 439 71 l 2,10,11
 439 42 439 42 450.5 26.5 c 128,-1,12
 462 11 462 11 474 10 c 1,13,-1
 485 8 l 1,14,-1
 516 8 l 1,15,-1
 516 0 l 1,16,-1
 455 0 l 2,17,18
 414 0 414 0 392.5 18 c 128,-1,19
 371 36 371 36 370 54 c 2,20,-1
 369 71 l 1,21,-1
 369 114 l 1,22,23
 351 71 351 71 305 33.5 c 128,-1,24
 259 -4 259 -4 204.5 -4 c 128,-1,25
 150 -4 150 -4 115.5 6.5 c 128,-1,26
 81 17 81 17 66 36 c 0,27,28
 40 67 40 67 40 116 c 2,29,-1
 40 500 l 1,30,-1
 110 500 l 1,31,-1
 110 115 l 2,0,1
EndSplineSet
EndChar

StartChar: v
Encoding: 118 118 89
Width: 470
GlyphClass: 2
Flags: W
LayerCount: 2
Fore
SplineSet
409 494 m 1,0,-1
 415 500 l 1,1,2
 419 498 419 498 425.5 488 c 128,-1,3
 432 478 432 478 433.5 470 c 128,-1,4
 435 462 435 462 435 455 c 0,5,6
 435 428 435 428 423 400 c 1,7,-1
 231 0 l 1,8,-1
 221 0 l 1,9,-1
 35 500 l 1,10,-1
 105 500 l 1,11,-1
 258 86 l 1,12,-1
 413 400 l 1,13,14
 425 421 425 421 425 450 c 128,-1,15
 425 479 425 479 409 494 c 1,0,-1
EndSplineSet
EndChar

StartChar: w
Encoding: 119 119 90
Width: 790
GlyphClass: 2
Flags: W
LayerCount: 2
Fore
SplineSet
729 494 m 1,0,-1
 735 500 l 1,1,2
 739 498 739 498 745.5 488 c 128,-1,3
 752 478 752 478 753.5 470 c 128,-1,4
 755 462 755 462 755 455 c 0,5,6
 755 428 755 428 743 400 c 2,7,-1
 561 0 l 1,8,-1
 551 0 l 1,9,-1
 407 387 l 1,10,-1
 231 0 l 1,11,-1
 221 0 l 1,12,-1
 35 500 l 1,13,-1
 105 500 l 1,14,-1
 258 86 l 1,15,-1
 402 399 l 1,16,-1
 365 500 l 1,17,-1
 435 500 l 1,18,-1
 588 86 l 1,19,-1
 733 400 l 1,20,21
 745 421 745 421 745 450 c 128,-1,22
 745 479 745 479 729 494 c 1,0,-1
EndSplineSet
EndChar

StartChar: x
Encoding: 120 120 91
Width: 508
GlyphClass: 2
Flags: W
LayerCount: 2
Fore
SplineSet
35 0 m 1,0,-1
 35 8 l 1,1,2
 56 8 56 8 77.5 24 c 128,-1,3
 99 40 99 40 110 56 c 2,4,-1
 235 240 l 1,5,-1
 57 500 l 1,6,-1
 130 500 l 1,7,-1
 283 277 l 1,8,-1
 431 500 l 1,9,-1
 441 500 l 1,10,-1
 287 270 l 1,11,-1
 473 0 l 1,12,-1
 400 0 l 1,13,-1
 239 234 l 1,14,-1
 131 72 l 2,15,16
 129 69 129 69 126 64 c 128,-1,17
 123 59 123 59 113 47 c 128,-1,18
 103 35 103 35 92 26 c 0,19,20
 62 0 62 0 35 0 c 1,0,-1
EndSplineSet
EndChar

StartChar: y
Encoding: 121 121 92
Width: 486
GlyphClass: 2
Flags: W
LayerCount: 2
Fore
SplineSet
163 -179 m 1,0,1
 131 -250 131 -250 84 -250 c 0,2,3
 63 -250 63 -250 35 -243 c 1,4,-1
 35 -235 l 1,5,6
 58 -241 58 -241 76 -241 c 0,7,8
 127 -241 127 -241 154 -179 c 1,9,-1
 238 0 l 1,10,-1
 237 0 l 1,11,-1
 51 500 l 1,12,-1
 121 500 l 1,13,-1
 276 83 l 1,14,-1
 429 400 l 1,15,16
 441 421 441 421 441 450 c 128,-1,17
 441 479 441 479 425 494 c 1,18,-1
 431 500 l 1,19,20
 435 498 435 498 441.5 488 c 128,-1,21
 448 478 448 478 449.5 470 c 128,-1,22
 451 462 451 462 451 455 c 0,23,24
 451 428 451 428 439 400 c 1,25,-1
 247 0 l 1,26,-1
 163 -179 l 1,0,1
EndSplineSet
EndChar

StartChar: z
Encoding: 122 122 93
Width: 468
GlyphClass: 2
Flags: W
LayerCount: 2
Fore
SplineSet
60 492 m 1,0,-1
 60 500 l 1,1,-1
 407 500 l 1,2,-1
 407 492 l 1,3,-1
 105 8 l 1,4,-1
 344 8 l 2,5,6
 413 8 413 8 427 48 c 1,7,-1
 433 45 l 1,8,9
 433 41 433 41 426 31.5 c 128,-1,10
 419 22 419 22 410 16 c 0,11,12
 386 0 386 0 344 0 c 2,13,-1
 35 0 l 1,14,-1
 35 8 l 1,15,-1
 337 492 l 1,16,-1
 60 492 l 1,0,-1
EndSplineSet
PairPos2: "'kern' Horizontal Kerning in Latin lookup 0 per glyph data 1" odieresis dx=0 dy=0 dh=-20 dv=0 dx=0 dy=0 dh=0 dv=0
PairPos2: "'kern' Horizontal Kerning in Latin lookup 0 per glyph data 1" otilde dx=0 dy=0 dh=-20 dv=0 dx=0 dy=0 dh=0 dv=0
PairPos2: "'kern' Horizontal Kerning in Latin lookup 0 per glyph data 1" ocircumflex dx=0 dy=0 dh=-20 dv=0 dx=0 dy=0 dh=0 dv=0
PairPos2: "'kern' Horizontal Kerning in Latin lookup 0 per glyph data 1" oacute dx=0 dy=0 dh=-20 dv=0 dx=0 dy=0 dh=0 dv=0
PairPos2: "'kern' Horizontal Kerning in Latin lookup 0 per glyph data 1" ograve dx=0 dy=0 dh=-20 dv=0 dx=0 dy=0 dh=0 dv=0
PairPos2: "'kern' Horizontal Kerning in Latin lookup 0 per glyph data 1" eth dx=0 dy=0 dh=-20 dv=0 dx=0 dy=0 dh=0 dv=0
PairPos2: "'kern' Horizontal Kerning in Latin lookup 0 per glyph data 1" edieresis dx=0 dy=0 dh=-20 dv=0 dx=0 dy=0 dh=0 dv=0
PairPos2: "'kern' Horizontal Kerning in Latin lookup 0 per glyph data 1" ecircumflex dx=0 dy=0 dh=-20 dv=0 dx=0 dy=0 dh=0 dv=0
PairPos2: "'kern' Horizontal Kerning in Latin lookup 0 per glyph data 1" eacute dx=0 dy=0 dh=-20 dv=0 dx=0 dy=0 dh=0 dv=0
PairPos2: "'kern' Horizontal Kerning in Latin lookup 0 per glyph data 1" egrave dx=0 dy=0 dh=-20 dv=0 dx=0 dy=0 dh=0 dv=0
PairPos2: "'kern' Horizontal Kerning in Latin lookup 0 per glyph data 1" ccedilla dx=0 dy=0 dh=-20 dv=0 dx=0 dy=0 dh=0 dv=0
PairPos2: "'kern' Horizontal Kerning in Latin lookup 0 per glyph data 1" cent dx=0 dy=0 dh=-20 dv=0 dx=0 dy=0 dh=0 dv=0
PairPos2: "'kern' Horizontal Kerning in Latin lookup 0 per glyph data 1" y dx=0 dy=0 dh=-20 dv=0 dx=0 dy=0 dh=0 dv=0
PairPos2: "'kern' Horizontal Kerning in Latin lookup 0 per glyph data 1" w dx=0 dy=0 dh=-20 dv=0 dx=0 dy=0 dh=0 dv=0
PairPos2: "'kern' Horizontal Kerning in Latin lookup 0 per glyph data 1" v dx=0 dy=0 dh=-20 dv=0 dx=0 dy=0 dh=0 dv=0
PairPos2: "'kern' Horizontal Kerning in Latin lookup 0 per glyph data 1" s dx=0 dy=0 dh=-10 dv=0 dx=0 dy=0 dh=0 dv=0
PairPos2: "'kern' Horizontal Kerning in Latin lookup 0 per glyph data 1" o dx=0 dy=0 dh=-20 dv=0 dx=0 dy=0 dh=0 dv=0
PairPos2: "'kern' Horizontal Kerning in Latin lookup 0 per glyph data 1" e dx=0 dy=0 dh=-20 dv=0 dx=0 dy=0 dh=0 dv=0
PairPos2: "'kern' Horizontal Kerning in Latin lookup 0 per glyph data 1" c dx=0 dy=0 dh=-20 dv=0 dx=0 dy=0 dh=0 dv=0
PairPos2: "'kern' Horizontal Kerning in Latin lookup 0 per glyph data 1" W dx=0 dy=0 dh=-30 dv=0 dx=0 dy=0 dh=0 dv=0
EndChar

StartChar: braceleft
Encoding: 123 123 94
Width: 400
GlyphClass: 2
Flags: W
LayerCount: 2
Fore
SplineSet
152 384 m 2,0,-1
 152 638 l 2,1,2
 152 710 152 710 216 733 c 0,3,4
 249 745 249 745 300 750 c 1,5,-1
 300 741 l 1,6,7
 247 726 247 726 237 688 c 0,8,9
 232 669 232 669 232 641 c 2,10,-1
 232 387 l 2,11,12
 232 279 232 279 122 258 c 1,13,14
 232 235 232 235 232 129 c 2,15,-1
 232 -125 l 2,16,17
 232 -182 232 -182 254 -201 c 0,18,19
 272 -217 272 -217 300 -225 c 1,20,-1
 300 -234 l 1,21,22
 211 -224 211 -224 182 -198 c 0,23,24
 152 -170 152 -170 152 -122 c 2,25,-1
 152 132 l 2,26,27
 152 239 152 239 100 254 c 1,28,-1
 100 262 l 1,29,30
 152 277 152 277 152 384 c 2,0,-1
EndSplineSet
EndChar

StartChar: bar
Encoding: 124 124 95
Width: 284
GlyphClass: 2
Flags: W
LayerCount: 2
Fore
SplineSet
87 750 m 1,0,-1
 167 750 l 1,1,-1
 167 -164 l 1,2,-1
 87 -164 l 1,3,-1
 87 750 l 1,0,-1
EndSplineSet
EndChar

StartChar: braceright
Encoding: 125 125 96
Width: 399
GlyphClass: 2
Flags: W
LayerCount: 2
Fore
SplineSet
248 132 m 2,0,-1
 248 -122 l 2,1,2
 248 -194 248 -194 184 -217 c 0,3,4
 151 -229 151 -229 100 -234 c 1,5,-1
 100 -225 l 1,6,7
 153 -210 153 -210 163 -172 c 0,8,9
 168 -153 168 -153 168 -125 c 2,10,-1
 168 129 l 2,11,12
 168 235 168 235 278 258 c 1,13,14
 168 279 168 279 168 387 c 2,15,-1
 168 641 l 2,16,17
 168 698 168 698 146 717 c 0,18,19
 128 733 128 733 100 741 c 1,20,-1
 100 750 l 1,21,22
 189 740 189 740 218 714 c 0,23,24
 248 686 248 686 248 638 c 2,25,-1
 248 384 l 2,26,27
 248 277 248 277 300 262 c 1,28,-1
 300 254 l 1,29,30
 248 239 248 239 248 132 c 2,0,-1
EndSplineSet
EndChar

StartChar: asciitilde
Encoding: 126 126 97
Width: 588
GlyphClass: 2
Flags: W
LayerCount: 2
Fore
SplineSet
144 302 m 1,0,1
 155 349 155 349 205 349 c 0,2,3
 245 349 245 349 310 330 c 1,4,5
 383 314 383 314 410.5 314 c 128,-1,6
 438 314 438 314 449 321.5 c 128,-1,7
 460 329 460 329 465 353 c 1,8,-1
 474 351 l 1,9,10
 465 308 465 308 426 304 c 0,11,12
 419 303 419 303 398.5 303 c 128,-1,13
 378 303 378 303 331 318 c 1,14,15
 316 321 316 321 280 329 c 0,16,17
 237 339 237 339 209.5 339 c 128,-1,18
 182 339 182 339 170.5 331 c 128,-1,19
 159 323 159 323 154 300 c 1,20,-1
 144 302 l 1,0,1
EndSplineSet
EndChar

StartChar: exclamdown
Encoding: 161 161 98
Width: 282
GlyphClass: 2
Flags: W
LayerCount: 2
Fore
SplineSet
177 -210 m 1,0,-1
 107 -210 l 1,1,-1
 127 315 l 1,2,-1
 157 315 l 1,3,-1
 177 -210 l 1,0,-1
101 457 m 128,-1,5
 101 475 101 475 113 487.5 c 128,-1,6
 125 500 125 500 143 500 c 128,-1,7
 161 500 161 500 173.5 487.5 c 128,-1,8
 186 475 186 475 186 457 c 128,-1,9
 186 439 186 439 173.5 427 c 128,-1,10
 161 415 161 415 143 415 c 128,-1,11
 125 415 125 415 113 427 c 128,-1,4
 101 439 101 439 101 457 c 128,-1,5
EndSplineSet
EndChar

StartChar: cent
Encoding: 162 162 99
Width: 481
GlyphClass: 2
Flags: W
LayerCount: 2
Fore
SplineSet
270 -82 m 1,0,-1
 260 -82 l 1,1,-1
 260 -4 l 1,2,3
 162 -2 162 -2 101 58 c 128,-1,4
 40 118 40 118 40 239.5 c 128,-1,5
 40 361 40 361 101.5 430 c 128,-1,6
 163 499 163 499 260 504 c 1,7,-1
 260 576 l 1,8,-1
 270 576 l 1,9,-1
 270 504 l 1,10,-1
 274 504 l 2,11,12
 331 504 331 504 379.5 478 c 128,-1,13
 428 452 428 452 451 399 c 1,14,-1
 387 399 l 1,15,16
 372 448 372 448 341.5 472 c 128,-1,17
 311 496 311 496 274 496 c 2,18,-1
 270 496 l 1,19,-1
 270 4 l 1,20,21
 356 4 356 4 424 34 c 1,22,-1
 427 27 l 1,23,24
 361 -2 361 -2 270 -4 c 1,25,-1
 270 -82 l 1,0,-1
150.5 421 m 128,-1,27
 108 354 108 354 108 238.5 c 128,-1,28
 108 123 108 123 150 64.5 c 128,-1,29
 192 6 192 6 260 4 c 1,30,-1
 260 495 l 1,31,26
 193 488 193 488 150.5 421 c 128,-1,27
EndSplineSet
EndChar

StartChar: sterling
Encoding: 163 163 100
Width: 502
GlyphClass: 2
Flags: W
LayerCount: 2
Fore
SplineSet
42 292 m 1,0,-1
 42 300 l 1,1,-1
 82 300 l 1,2,3
 50 359 50 359 50 429.5 c 128,-1,4
 50 500 50 500 97 548.5 c 128,-1,5
 144 597 144 597 256 597 c 0,6,7
 293 597 293 597 320.5 586.5 c 128,-1,8
 348 576 348 576 360 561 c 0,9,10
 387 529 387 529 389 506 c 2,11,-1
 390 496 l 1,12,-1
 381 493 l 1,13,14
 381 505 381 505 373 524 c 128,-1,15
 365 543 365 543 353 555.5 c 128,-1,16
 341 568 341 568 315.5 578.5 c 128,-1,17
 290 589 290 589 255 589 c 0,18,19
 130 589 130 589 130 419 c 0,20,21
 130 359 130 359 153 300 c 1,22,-1
 300 300 l 1,23,-1
 300 292 l 1,24,-1
 156 292 l 1,25,26
 165 267 165 267 185 227 c 0,27,28
 226 145 226 145 226 104 c 0,29,30
 226 46 226 46 179 8 c 1,31,-1
 400 8 l 1,32,-1
 400 0 l 1,33,-1
 66 0 l 1,34,-1
 66 8 l 1,35,-1
 145 8 l 1,36,37
 195 50 195 50 195 105 c 0,38,39
 195 131 195 131 178.5 159 c 128,-1,40
 162 187 162 187 132.5 225.5 c 128,-1,41
 103 264 103 264 87 292 c 1,42,-1
 42 292 l 1,0,-1
EndSplineSet
EndChar

StartChar: currency
Encoding: 164 164 101
Width: 500
GlyphClass: 2
Flags: W
LayerCount: 2
Fore
SplineSet
140 341 m 1,0,1
 101 380 101 380 101 446 c 128,-1,2
 101 512 101 512 141 554 c 1,3,-1
 97 599 l 1,4,-1
 103 605 l 1,5,-1
 147 560 l 1,6,7
 190 600 190 600 254 600 c 128,-1,8
 318 600 318 600 360 561 c 1,9,-1
 404 605 l 1,10,-1
 410 599 l 1,11,-1
 366 555 l 1,12,13
 401 515 401 515 401 451.5 c 128,-1,14
 401 388 401 388 361 346 c 1,15,-1
 409 299 l 1,16,-1
 403 293 l 1,17,-1
 355 340 l 1,18,19
 312 300 312 300 248 300 c 128,-1,20
 184 300 184 300 145 335 c 1,21,-1
 104 293 l 1,22,-1
 98 299 l 1,23,-1
 140 341 l 1,0,1
152 550.5 m 128,-1,25
 111 509 111 509 111 447 c 128,-1,26
 111 385 111 385 151 346.5 c 128,-1,27
 191 308 191 308 250 308 c 128,-1,28
 309 308 309 308 350 349.5 c 128,-1,29
 391 391 391 391 391 453 c 128,-1,30
 391 515 391 515 351 553.5 c 128,-1,31
 311 592 311 592 252 592 c 128,-1,24
 193 592 193 592 152 550.5 c 128,-1,25
EndSplineSet
EndChar

StartChar: yen
Encoding: 165 165 102
Width: 680
GlyphClass: 2
Flags: W
LayerCount: 2
Fore
SplineSet
501 500 m 1,0,1
 512 525 512 525 512 552 c 128,-1,2
 512 579 512 579 497 594 c 1,3,-1
 505 600 l 1,4,5
 528 577 528 577 523 536 c 0,6,7
 521 519 521 519 513 500 c 1,8,-1
 388 245 l 1,9,-1
 567 245 l 1,10,-1
 567 237 l 1,11,-1
 384 237 l 1,12,-1
 384 93 l 1,13,-1
 567 93 l 1,14,-1
 567 85 l 1,15,-1
 384 85 l 1,16,-1
 384 0 l 1,17,-1
 301 0 l 1,18,-1
 301 85 l 1,19,-1
 113 85 l 1,20,-1
 113 93 l 1,21,-1
 301 93 l 1,22,-1
 301 216 l 1,23,-1
 292 237 l 1,24,-1
 113 237 l 1,25,-1
 113 245 l 1,26,-1
 289 245 l 1,27,-1
 145 600 l 1,28,-1
 230 600 l 1,29,-1
 377 249 l 1,30,-1
 501 500 l 1,0,1
EndSplineSet
EndChar

StartChar: brokenbar
Encoding: 166 166 103
Width: 250
GlyphClass: 2
Flags: W
LayerCount: 2
Fore
SplineSet
87 200 m 1,0,-1
 167 200 l 1,1,-1
 167 -200 l 1,2,-1
 87 -200 l 1,3,-1
 87 200 l 1,0,-1
167 400 m 1,4,-1
 87 400 l 1,5,-1
 87 749 l 1,6,-1
 167 749 l 1,7,-1
 167 400 l 1,4,-1
EndSplineSet
EndChar

StartChar: section
Encoding: 167 167 104
Width: 500
GlyphClass: 2
Flags: W
LayerCount: 2
Fore
SplineSet
407 81 m 1,0,-1
 428 54 l 1,1,2
 480 101 480 101 480 188 c 0,3,4
 480 243 480 243 459 283.5 c 128,-1,5
 438 324 438 324 404 347 c 128,-1,6
 370 370 370 370 329 388 c 128,-1,7
 288 406 288 406 247.5 420.5 c 128,-1,8
 207 435 207 435 173 452 c 0,9,10
 97 492 97 492 97 565 c 0,11,12
 97 625 97 625 142 659 c 128,-1,13
 187 693 187 693 267.5 693 c 128,-1,14
 348 693 348 693 439 658 c 1,15,-1
 443 668 l 1,16,17
 341 702 341 702 242.5 702 c 128,-1,18
 144 702 144 702 95 656.5 c 128,-1,19
 46 611 46 611 46 538 c 0,20,21
 46 446 46 446 122 396 c 0,22,23
 156 373 156 373 197 354.5 c 128,-1,24
 238 336 238 336 278.5 319 c 128,-1,25
 319 302 319 302 353 282 c 128,-1,26
 387 262 387 262 408 230.5 c 128,-1,27
 429 199 429 199 429 155.5 c 128,-1,28
 429 112 429 112 407 81 c 1,0,-1
130 448 m 1,29,30
 97 415 97 415 97 370.5 c 128,-1,31
 97 326 97 326 118 298 c 128,-1,32
 139 270 139 270 173 252.5 c 128,-1,33
 207 235 207 235 247.5 220.5 c 128,-1,34
 288 206 288 206 329 188 c 128,-1,35
 370 170 370 170 404 147 c 128,-1,36
 438 124 438 124 459 83.5 c 128,-1,37
 480 43 480 43 480 -19.5 c 128,-1,38
 480 -82 480 -82 445 -126 c 128,-1,39
 410 -170 410 -170 360.5 -185.5 c 128,-1,40
 311 -201 311 -201 245 -201 c 0,41,42
 122 -201 122 -201 35 -140 c 1,43,-1
 40 -132 l 1,44,45
 73 -158 73 -158 125.5 -174.5 c 128,-1,46
 178 -191 178 -191 233 -191 c 0,47,48
 314 -191 314 -191 371.5 -153.5 c 128,-1,49
 429 -116 429 -116 429 -43 c 0,50,51
 429 37 429 37 353 82 c 0,52,53
 319 102 319 102 278.5 119 c 128,-1,54
 238 136 238 136 197 154.5 c 128,-1,55
 156 173 156 173 122 196 c 0,56,57
 46 246 46 246 46 335.5 c 128,-1,58
 46 425 46 425 108 467 c 1,59,-1
 130 448 l 1,29,30
EndSplineSet
EndChar

StartChar: dieresis
Encoding: 168 168 105
Width: 500
GlyphClass: 2
Flags: W
LayerCount: 2
Fore
SplineSet
111 642 m 128,-1,1
 111 660 111 660 123 672.5 c 128,-1,2
 135 685 135 685 153 685 c 128,-1,3
 171 685 171 685 183.5 672.5 c 128,-1,4
 196 660 196 660 196 642 c 128,-1,5
 196 624 196 624 183.5 612 c 128,-1,6
 171 600 171 600 153 600 c 128,-1,7
 135 600 135 600 123 612 c 128,-1,0
 111 624 111 624 111 642 c 128,-1,1
329 642 m 128,-1,9
 329 660 329 660 341 672.5 c 128,-1,10
 353 685 353 685 371 685 c 128,-1,11
 389 685 389 685 401.5 672.5 c 128,-1,12
 414 660 414 660 414 642 c 128,-1,13
 414 624 414 624 401.5 612 c 128,-1,14
 389 600 389 600 371 600 c 128,-1,15
 353 600 353 600 341 612 c 128,-1,8
 329 624 329 624 329 642 c 128,-1,9
EndSplineSet
EndChar

StartChar: copyright
Encoding: 169 169 106
Width: 833
GlyphClass: 2
Flags: W
LayerCount: 2
Fore
SplineSet
146.5 77 m 128,-1,1
 50 154 50 154 50 293.5 c 128,-1,2
 50 433 50 433 148.5 516.5 c 128,-1,3
 247 600 247 600 391.5 600 c 128,-1,4
 536 600 536 600 627 522.5 c 128,-1,5
 718 445 718 445 718 306 c 128,-1,6
 718 167 718 167 625 83.5 c 128,-1,7
 532 0 532 0 387.5 0 c 128,-1,0
 243 0 243 0 146.5 77 c 128,-1,1
206.5 510 m 128,-1,9
 130 428 130 428 130 296.5 c 128,-1,10
 130 165 130 165 205.5 86.5 c 128,-1,11
 281 8 281 8 393 8 c 128,-1,12
 505 8 505 8 581.5 90 c 128,-1,13
 658 172 658 172 658 303.5 c 128,-1,14
 658 435 658 435 582.5 513.5 c 128,-1,15
 507 592 507 592 395 592 c 128,-1,8
 283 592 283 592 206.5 510 c 128,-1,9
419 100 m 0,16,17
 220 100 220 100 220 299 c 0,18,19
 220 406 220 406 277 453 c 128,-1,20
 334 500 334 500 419 500 c 0,21,22
 463 500 463 500 494 488 c 2,23,-1
 505 484 l 1,24,-1
 504 479 l 1,25,26
 465 494 465 494 435.5 494 c 128,-1,27
 406 494 406 494 391.5 492.5 c 128,-1,28
 377 491 377 491 353 480 c 128,-1,29
 329 469 329 469 311.5 450 c 128,-1,30
 294 431 294 431 280.5 391.5 c 128,-1,31
 267 352 267 352 267 299 c 128,-1,32
 267 246 267 246 280 207.5 c 128,-1,33
 293 169 293 169 310 150 c 128,-1,34
 327 131 327 131 351 120 c 0,35,36
 384 105 384 105 413 105 c 0,37,38
 467 105 467 105 508 117 c 2,39,-1
 521 121 l 1,40,-1
 522 115 l 1,41,42
 479 100 479 100 419 100 c 0,16,17
EndSplineSet
EndChar

StartChar: ordfeminine
Encoding: 170 170 107
Width: 401
GlyphClass: 2
Flags: W
LayerCount: 2
Fore
SplineSet
244 502 m 2,0,1
 217 502 217 502 203 511 c 128,-1,2
 189 520 189 520 188 528 c 2,3,-1
 187 537 l 1,4,-1
 187 544 l 1,5,6
 163 500 163 500 105 500 c 128,-1,7
 47 500 47 500 39 556 c 0,8,9
 38 561 38 561 38 565 c 0,10,11
 38 587 38 587 56 601 c 1,12,13
 80 622 80 622 164 622 c 0,14,15
 178 622 178 622 187 620 c 1,16,-1
 187 702 l 1,17,18
 186 702 186 702 187 706.5 c 128,-1,19
 188 711 188 711 185 717.5 c 128,-1,20
 182 724 182 724 178 730 c 0,21,22
 168 746 168 746 129.5 746 c 128,-1,23
 91 746 91 746 54 726 c 1,24,-1
 52 730 l 1,25,26
 99 750 99 750 141 750 c 0,27,28
 221 750 221 750 221 702 c 2,29,-1
 221 537 l 2,30,31
 221 523 221 523 226.5 515 c 128,-1,32
 232 507 232 507 244 506 c 1,33,-1
 259 506 l 1,34,-1
 259 502 l 1,35,-1
 244 502 l 2,0,1
74 564 m 0,36,37
 74 504 74 504 117 504 c 0,38,39
 143 504 143 504 164 522 c 128,-1,40
 185 540 185 540 187 557 c 1,41,-1
 187 616 l 1,42,43
 176 618 176 618 162 618 c 0,44,45
 101 618 101 618 84 598 c 0,46,47
 74 587 74 587 74 564 c 0,36,37
EndSplineSet
EndChar

StartChar: guillemotleft
Encoding: 171 171 108
Width: 694
GlyphClass: 2
Flags: W
LayerCount: 2
Fore
SplineSet
443 70 m 1,0,-1
 443 62 l 1,1,-1
 100 259 l 1,2,-1
 443 457 l 1,3,-1
 443 449 l 1,4,-1
 165 259 l 1,5,-1
 443 70 l 1,0,-1
602 126 m 1,6,-1
 602 118 l 1,7,-1
 358 259 l 1,8,-1
 602 400 l 1,9,-1
 602 392 l 1,10,-1
 423 259 l 1,11,-1
 602 126 l 1,6,-1
EndSplineSet
EndChar

StartChar: logicalnot
Encoding: 172 172 109
Width: 600
GlyphClass: 2
Flags: W
LayerCount: 2
Fore
SplineSet
100 265 m 1,0,-1
 520 265 l 1,1,-1
 520 170 l 1,2,-1
 440 170 l 1,3,-1
 440 257 l 1,4,-1
 100 257 l 1,5,-1
 100 265 l 1,0,-1
EndSplineSet
EndChar

StartChar: registered
Encoding: 174 174 110
Width: 599
GlyphClass: 2
Flags: W
LayerCount: 2
Fore
SplineSet
118.5 350.5 m 128,-1,1
 50 402 50 402 50 495 c 128,-1,2
 50 588 50 588 120.5 644 c 128,-1,3
 191 700 191 700 298 700 c 128,-1,4
 405 700 405 700 474 648 c 128,-1,5
 543 596 543 596 543 503 c 128,-1,6
 543 410 543 410 472.5 354.5 c 128,-1,7
 402 299 402 299 294.5 299 c 128,-1,0
 187 299 187 299 118.5 350.5 c 128,-1,1
178 639 m 128,-1,9
 130 586 130 586 130 496.5 c 128,-1,10
 130 407 130 407 177 357 c 128,-1,11
 224 307 224 307 295.5 307 c 128,-1,12
 367 307 367 307 415 359.5 c 128,-1,13
 463 412 463 412 463 501.5 c 128,-1,14
 463 591 463 591 416 641.5 c 128,-1,15
 369 692 369 692 297.5 692 c 128,-1,8
 226 692 226 692 178 639 c 128,-1,9
253 376 m 1,16,-1
 224 376 l 1,17,-1
 224 619 l 1,18,19
 269 622 269 622 294 622 c 0,20,21
 382 622 382 622 382 564 c 128,-1,22
 382 506 382 506 329 494 c 1,23,-1
 400 376 l 1,24,-1
 367 376 l 1,25,-1
 298 492 l 1,26,-1
 253 492 l 1,27,-1
 253 376 l 1,16,-1
296 618 m 0,28,29
 269 618 269 618 253 616 c 1,30,-1
 253 496 l 1,31,-1
 305 496 l 1,32,33
 354 498 354 498 354 563 c 0,34,35
 354 618 354 618 296 618 c 0,28,29
EndSplineSet
EndChar

StartChar: macron
Encoding: 175 175 111
Width: 500
GlyphClass: 2
Flags: W
LayerCount: 2
Fore
SplineSet
100 608 m 1,0,-1
 400 608 l 1,1,-1
 400 600 l 1,2,-1
 100 600 l 1,3,-1
 100 608 l 1,0,-1
EndSplineSet
EndChar

StartChar: degree
Encoding: 176 176 112
Width: 378
GlyphClass: 2
Flags: W
LayerCount: 2
Fore
SplineSet
103.5 545.5 m 128,-1,1
 70 568 70 568 70 609 c 128,-1,2
 70 650 70 650 104.5 675 c 128,-1,3
 139 700 139 700 190 700 c 128,-1,4
 241 700 241 700 274 677.5 c 128,-1,5
 307 655 307 655 307 613.5 c 128,-1,6
 307 572 307 572 273 547.5 c 128,-1,7
 239 523 239 523 188 523 c 128,-1,0
 137 523 137 523 103.5 545.5 c 128,-1,1
147 668.5 m 128,-1,9
 130 645 130 645 130 609.5 c 128,-1,10
 130 574 130 574 146.5 552.5 c 128,-1,11
 163 531 163 531 187.5 531 c 128,-1,12
 212 531 212 531 229.5 554.5 c 128,-1,13
 247 578 247 578 247 613.5 c 128,-1,14
 247 649 247 649 230 670.5 c 128,-1,15
 213 692 213 692 188.5 692 c 128,-1,8
 164 692 164 692 147 668.5 c 128,-1,9
EndSplineSet
EndChar

StartChar: plusminus
Encoding: 177 177 113
Width: 676
GlyphClass: 2
Flags: W
LayerCount: 2
Fore
SplineSet
136 108 m 1,0,-1
 556 108 l 1,1,-1
 556 100 l 1,2,-1
 136 100 l 1,3,-1
 136 108 l 1,0,-1
136 425 m 1,4,-1
 301 425 l 1,5,-1
 301 620 l 1,6,-1
 381 620 l 1,7,-1
 381 425 l 1,8,-1
 556 425 l 1,9,-1
 556 417 l 1,10,-1
 381 417 l 1,11,-1
 381 200 l 1,12,-1
 301 200 l 1,13,-1
 301 417 l 1,14,-1
 136 417 l 1,15,-1
 136 425 l 1,4,-1
EndSplineSet
EndChar

StartChar: twosuperior
Encoding: 178 178 114
Width: 332
GlyphClass: 2
Flags: W
LayerCount: 2
Fore
SplineSet
227 691 m 0,0,1
 227 746 227 746 191 746 c 0,2,3
 159 746 159 746 125 717 c 1,4,-1
 122 720 l 1,5,6
 155 750 155 750 191 750 c 0,7,8
 267 750 267 750 267 693 c 0,9,10
 267 659 267 659 231.5 599 c 128,-1,11
 196 539 196 539 153 504 c 1,12,-1
 249 504 l 2,13,14
 284 504 284 504 291 524 c 1,15,-1
 294 522 l 1,16,17
 289 500 289 500 249 500 c 2,18,-1
 105 500 l 1,19,20
 152 536 152 536 189.5 597 c 128,-1,21
 227 658 227 658 227 691 c 0,0,1
EndSplineSet
EndChar

StartChar: threesuperior
Encoding: 179 179 115
Width: 300
GlyphClass: 2
Flags: W
LayerCount: 2
Fore
SplineSet
105 648 m 1,0,-1
 93 645 l 1,1,-1
 91 648 l 1,2,3
 113 654 113 654 127.5 671 c 128,-1,4
 142 688 142 688 142 711 c 0,5,6
 142 748 142 748 114 748 c 0,7,8
 90 748 90 748 62 736 c 1,9,-1
 60 739 l 1,10,11
 88 751 88 751 116 751 c 0,12,13
 175 751 175 751 175 710.5 c 128,-1,14
 175 670 175 670 114 651 c 1,15,16
 172 645 172 645 172 600 c 0,17,18
 172 563 172 563 134 535.5 c 128,-1,19
 96 508 96 508 54 500 c 1,20,-1
 53 504 l 1,21,22
 85 512 85 512 111.5 539.5 c 128,-1,23
 138 567 138 567 138 595.5 c 128,-1,24
 138 624 138 624 128 635.5 c 128,-1,25
 118 647 118 647 105 648 c 1,0,-1
EndSplineSet
EndChar

StartChar: acute
Encoding: 180 180 116
Width: 300
GlyphClass: 2
Flags: W
LayerCount: 2
Fore
SplineSet
148 708 m 1,0,-1
 220 710 l 1,1,-1
 115 567 l 1,2,-1
 102 567 l 1,3,-1
 148 708 l 1,0,-1
EndSplineSet
EndChar

StartChar: mu
Encoding: 181 181 117
Width: 496
GlyphClass: 2
Flags: W
LayerCount: 2
Fore
SplineSet
80 -250 m 1,0,-1
 10 -250 l 1,1,-1
 10 500 l 1,2,-1
 80 500 l 1,3,-1
 80 115 l 2,4,5
 80 36 80 36 122 14 c 0,6,7
 142 4 142 4 173 4 c 0,8,9
 236 4 236 4 285.5 52 c 128,-1,10
 335 100 335 100 339 141 c 1,11,-1
 339 500 l 1,12,-1
 409 500 l 1,13,-1
 409 71 l 2,14,15
 409 42 409 42 420.5 26.5 c 128,-1,16
 432 11 432 11 444 10 c 1,17,-1
 455 8 l 1,18,-1
 486 8 l 1,19,-1
 486 0 l 1,20,-1
 425 0 l 2,21,22
 384 0 384 0 362.5 18 c 128,-1,23
 341 36 341 36 340 54 c 2,24,-1
 339 71 l 1,25,-1
 339 114 l 1,26,27
 321 71 321 71 275 33.5 c 128,-1,28
 229 -4 229 -4 171 -4 c 128,-1,29
 113 -4 113 -4 80 8 c 1,30,-1
 80 -250 l 1,0,-1
EndSplineSet
EndChar

StartChar: paragraph
Encoding: 182 182 118
Width: 573
GlyphClass: 2
Flags: W
LayerCount: 2
Fore
SplineSet
299 599 m 0,0,1
 388 599 388 599 504 591 c 1,2,-1
 504 -68 l 2,3,4
 504 -147 504 -147 472 -173.5 c 128,-1,5
 440 -200 440 -200 375.5 -200 c 128,-1,6
 311 -200 311 -200 261 -181 c 1,7,-1
 264 -173 l 1,8,9
 312 -192 312 -192 363 -192 c 0,10,11
 397 -192 397 -192 408.5 -163 c 128,-1,12
 420 -134 420 -134 420 -69 c 2,13,-1
 420 210 l 1,14,-1
 272 210 l 2,15,16
 207 210 207 210 161 229.5 c 128,-1,17
 115 249 115 249 92 282 c 0,18,19
 51 343 51 343 51 424 c 0,20,21
 51 599 51 599 299 599 c 0,0,1
298 589 m 0,22,23
 215 589 215 589 173 545.5 c 128,-1,24
 131 502 131 502 131 422 c 0,25,26
 131 226 131 226 272 220 c 1,27,-1
 420 220 l 1,28,-1
 420 582 l 1,29,30
 356 589 356 589 298 589 c 0,22,23
EndSplineSet
EndChar

StartChar: periodcentered
Encoding: 183 183 119
Width: 118
GlyphClass: 2
Flags: W
LayerCount: 2
Fore
SplineSet
37.5 375.5 m 128,-1,1
 28 385 28 385 28 398.5 c 128,-1,2
 28 412 28 412 37 421 c 128,-1,3
 46 430 46 430 59.5 430 c 128,-1,4
 73 430 73 430 82.5 420.5 c 128,-1,5
 92 411 92 411 92 398 c 128,-1,6
 92 385 92 385 82.5 375.5 c 128,-1,7
 73 366 73 366 60 366 c 128,-1,0
 47 366 47 366 37.5 375.5 c 128,-1,1
EndSplineSet
EndChar

StartChar: cedilla
Encoding: 184 184 120
Width: 260
GlyphClass: 2
Flags: W
LayerCount: 2
Fore
SplineSet
98 0 m 1,0,-1
 168 0 l 1,1,-1
 168 -126 l 2,2,3
 168 -131 168 -131 164 -143.5 c 128,-1,4
 160 -156 160 -156 152 -166 c 0,5,6
 131 -190 131 -190 82 -190 c 2,7,-1
 21 -190 l 1,8,-1
 21 -182 l 1,9,10
 39 -182 39 -182 49.5 -182 c 128,-1,11
 60 -182 60 -182 68 -178.5 c 128,-1,12
 76 -175 76 -175 82 -170 c 0,13,14
 98 -155 98 -155 98 -119 c 2,15,-1
 98 0 l 1,0,-1
EndSplineSet
EndChar

StartChar: onesuperior
Encoding: 185 185 121
Width: 241
GlyphClass: 2
Flags: W
LayerCount: 2
Fore
SplineSet
168 747 m 1,0,-1
 144 747 l 1,1,-1
 144 504 l 1,2,-1
 174 504 l 1,3,-1
 174 500 l 1,4,-1
 73 500 l 1,5,-1
 73 504 l 1,6,-1
 104 504 l 1,7,-1
 104 747 l 1,8,-1
 80 747 l 1,9,-1
 80 751 l 1,10,-1
 168 751 l 1,11,-1
 168 747 l 1,0,-1
EndSplineSet
EndChar

StartChar: ordmasculine
Encoding: 186 186 122
Width: 375
GlyphClass: 2
Flags: W
LayerCount: 2
Fore
SplineSet
94 529.5 m 128,-1,1
 62 559 62 559 62 620.5 c 128,-1,2
 62 682 62 682 95.5 716 c 128,-1,3
 129 750 129 750 181 750 c 128,-1,4
 233 750 233 750 265.5 720.5 c 128,-1,5
 298 691 298 691 298 629.5 c 128,-1,6
 298 568 298 568 264.5 534 c 128,-1,7
 231 500 231 500 178.5 500 c 128,-1,0
 126 500 126 500 94 529.5 c 128,-1,1
119.5 713 m 128,-1,9
 95 680 95 680 95 620.5 c 128,-1,10
 95 561 95 561 118 532.5 c 128,-1,11
 141 504 141 504 178 504 c 128,-1,12
 215 504 215 504 239.5 537 c 128,-1,13
 264 570 264 570 264 629.5 c 128,-1,14
 264 689 264 689 241.5 717.5 c 128,-1,15
 219 746 219 746 181.5 746 c 128,-1,8
 144 746 144 746 119.5 713 c 128,-1,9
EndSplineSet
EndChar

StartChar: guillemotright
Encoding: 187 187 123
Width: 694
GlyphClass: 2
Flags: W
LayerCount: 2
Fore
SplineSet
259 62 m 1,0,-1
 259 70 l 1,1,-1
 537 259 l 1,2,-1
 259 449 l 1,3,-1
 259 457 l 1,4,-1
 602 259 l 1,5,-1
 259 62 l 1,0,-1
100 118 m 1,6,-1
 100 126 l 1,7,-1
 279 259 l 1,8,-1
 100 392 l 1,9,-1
 100 400 l 1,10,-1
 344 259 l 1,11,-1
 100 118 l 1,6,-1
EndSplineSet
EndChar

StartChar: onequarter
Encoding: 188 188 124
Width: 700
GlyphClass: 2
Flags: W
LayerCount: 2
Fore
SplineSet
210 0 m 1,0,-1
 200 0 l 1,1,-1
 451 749 l 1,2,-1
 461 749 l 1,3,-1
 210 0 l 1,0,-1
181 745 m 1,4,-1
 157 745 l 1,5,-1
 157 406 l 1,6,-1
 188 406 l 1,7,-1
 188 400 l 1,8,-1
 84 400 l 1,9,-1
 84 406 l 1,10,-1
 115 406 l 1,11,-1
 115 745 l 1,12,-1
 91 745 l 1,13,-1
 91 751 l 1,14,-1
 181 751 l 1,15,-1
 181 745 l 1,4,-1
570 63 m 1,16,-1
 570 58 l 1,17,-1
 541 58 l 1,18,-1
 534 0 l 1,19,-1
 488 0 l 1,20,-1
 495 58 l 1,21,-1
 357 58 l 1,22,-1
 565 350 l 1,23,-1
 570 347 l 1,24,25
 483 228 483 228 366 63 c 1,26,-1
 495 63 l 1,27,-1
 515 224 l 1,28,-1
 561 224 l 1,29,-1
 542 63 l 1,30,-1
 570 63 l 1,16,-1
EndSplineSet
EndChar

StartChar: onehalf
Encoding: 189 189 125
Width: 751
GlyphClass: 2
Flags: W
LayerCount: 2
Fore
SplineSet
210 0 m 1,0,-1
 200 0 l 1,1,-1
 451 749 l 1,2,-1
 461 749 l 1,3,-1
 210 0 l 1,0,-1
181 745 m 1,4,-1
 157 745 l 1,5,-1
 157 406 l 1,6,-1
 188 406 l 1,7,-1
 188 400 l 1,8,-1
 84 400 l 1,9,-1
 84 406 l 1,10,-1
 115 406 l 1,11,-1
 115 745 l 1,12,-1
 91 745 l 1,13,-1
 91 751 l 1,14,-1
 181 751 l 1,15,-1
 181 745 l 1,4,-1
540 343 m 0,16,17
 486 343 486 343 447 304 c 1,18,-1
 443 308 l 1,19,20
 491 349 491 349 542 349 c 128,-1,21
 593 349 593 349 619.5 328 c 128,-1,22
 646 307 646 307 646 264.5 c 128,-1,23
 646 222 646 222 596.5 138.5 c 128,-1,24
 547 55 547 55 486 6 c 1,25,-1
 621 6 l 2,26,27
 669 6 669 6 679 34 c 1,28,-1
 683 31 l 1,29,30
 682 28 682 28 679.5 22.5 c 128,-1,31
 677 17 677 17 661.5 8.5 c 128,-1,32
 646 0 646 0 621 0 c 2,33,-1
 419 0 l 1,34,35
 484 50 484 50 537 136 c 128,-1,36
 590 222 590 222 590 267 c 0,37,38
 590 343 590 343 540 343 c 0,16,17
EndSplineSet
EndChar

StartChar: threequarters
Encoding: 190 190 126
Width: 770
GlyphClass: 2
Flags: W
LayerCount: 2
Fore
SplineSet
210 0 m 1,0,-1
 200 0 l 1,1,-1
 451 749 l 1,2,-1
 461 749 l 1,3,-1
 210 0 l 1,0,-1
570 63 m 1,4,-1
 570 58 l 1,5,-1
 541 58 l 1,6,-1
 534 0 l 1,7,-1
 488 0 l 1,8,-1
 495 58 l 1,9,-1
 357 58 l 1,10,-1
 565 350 l 1,11,-1
 570 347 l 1,12,13
 483 228 483 228 366 63 c 1,14,-1
 495 63 l 1,15,-1
 515 224 l 1,16,-1
 561 224 l 1,17,-1
 542 63 l 1,18,-1
 570 63 l 1,4,-1
143 694 m 0,19,20
 143 745 143 745 105 745 c 0,21,22
 72 745 72 745 32 729 c 1,23,-1
 30 733 l 1,24,25
 69 750 69 750 107 750 c 0,26,27
 124 750 124 750 146 744 c 0,28,29
 190 732 190 732 190 694 c 0,30,31
 190 639 190 639 105 611 c 1,32,33
 138 608 138 608 161 590.5 c 128,-1,34
 184 573 184 573 184 540 c 0,35,36
 184 488 184 488 132 450 c 128,-1,37
 80 412 80 412 21 401 c 1,38,-1
 21 405 l 1,39,40
 64 417 64 417 101 455 c 128,-1,41
 138 493 138 493 138 540 c 0,42,43
 138 600 138 600 92 607 c 1,44,45
 87 604 87 604 75 602 c 1,46,-1
 73 606 l 1,47,48
 103 616 103 616 123 639.5 c 128,-1,49
 143 663 143 663 143 694 c 0,19,20
EndSplineSet
EndChar

StartChar: questiondown
Encoding: 191 191 127
Width: 500
GlyphClass: 2
Flags: W
LayerCount: 2
Fore
SplineSet
464 -185 m 1,0,1
 383 -210 383 -210 301.5 -210 c 128,-1,2
 220 -210 220 -210 168 -169.5 c 128,-1,3
 116 -129 116 -129 116 -48 c 0,4,5
 116 31 116 31 206 114 c 0,6,7
 244 149 244 149 281.5 185 c 128,-1,8
 319 221 319 221 345.5 268 c 128,-1,9
 372 315 372 315 372 367 c 1,10,-1
 382 367 l 1,11,12
 382 270 382 270 316 181 c 0,13,14
 288 144 288 144 261 109 c 0,15,16
 195 23 195 23 195 -47 c 128,-1,17
 195 -117 195 -117 228 -159.5 c 128,-1,18
 261 -202 261 -202 322 -202 c 0,19,20
 360 -202 360 -202 436 -184 c 1,21,-1
 460 -179 l 1,22,-1
 464 -185 l 1,0,1
407 467 m 128,-1,24
 407 454 407 454 397.5 444.5 c 128,-1,25
 388 435 388 435 375 435 c 128,-1,26
 362 435 362 435 352.5 444.5 c 128,-1,27
 343 454 343 454 343 467 c 128,-1,28
 343 480 343 480 352.5 489.5 c 128,-1,29
 362 499 362 499 375 499 c 128,-1,30
 388 499 388 499 397.5 489.5 c 128,-1,23
 407 480 407 480 407 467 c 128,-1,24
EndSplineSet
EndChar

StartChar: Agrave
Encoding: 192 192 128
Width: 622
GlyphClass: 2
Flags: W
LayerCount: 2
Fore
SplineSet
42 0 m 1,0,-1
 30 0 l 1,1,-1
 329 700 l 1,2,-1
 340 705 l 1,3,-1
 592 0 l 1,4,-1
 507 0 l 1,5,-1
 429 220 l 1,6,-1
 137 220 l 1,7,-1
 42 0 l 1,0,-1
298 592 m 1,8,-1
 141 230 l 1,9,-1
 426 230 l 1,10,-1
 298 592 l 1,8,-1
222 894 m 1,11,-1
 294 892 l 1,12,-1
 340 751 l 1,13,-1
 327 751 l 1,14,-1
 222 894 l 1,11,-1
EndSplineSet
EndChar

StartChar: Aacute
Encoding: 193 193 129
Width: 622
GlyphClass: 2
Flags: W
LayerCount: 2
Fore
SplineSet
42 0 m 1,0,-1
 30 0 l 1,1,-1
 329 700 l 1,2,-1
 340 705 l 1,3,-1
 592 0 l 1,4,-1
 507 0 l 1,5,-1
 429 220 l 1,6,-1
 137 220 l 1,7,-1
 42 0 l 1,0,-1
298 592 m 1,8,-1
 141 230 l 1,9,-1
 426 230 l 1,10,-1
 298 592 l 1,8,-1
384 891 m 1,11,-1
 456 893 l 1,12,-1
 351 750 l 1,13,-1
 338 750 l 1,14,-1
 384 891 l 1,11,-1
EndSplineSet
EndChar

StartChar: Acircumflex
Encoding: 194 194 130
Width: 622
GlyphClass: 2
Flags: W
LayerCount: 2
Fore
SplineSet
42 0 m 1,0,-1
 30 0 l 1,1,-1
 329 700 l 1,2,-1
 340 705 l 1,3,-1
 592 0 l 1,4,-1
 507 0 l 1,5,-1
 429 220 l 1,6,-1
 137 220 l 1,7,-1
 42 0 l 1,0,-1
298 592 m 1,8,-1
 141 230 l 1,9,-1
 426 230 l 1,10,-1
 298 592 l 1,8,-1
471 771 m 1,11,-1
 450 751 l 1,12,-1
 329 881 l 1,13,-1
 213 756 l 1,14,-1
 206 761 l 1,15,-1
 343 906 l 1,16,-1
 471 771 l 1,11,-1
EndSplineSet
EndChar

StartChar: Atilde
Encoding: 195 195 131
Width: 622
GlyphClass: 2
Flags: W
LayerCount: 2
Fore
SplineSet
42 0 m 1,0,-1
 30 0 l 1,1,-1
 329 700 l 1,2,-1
 340 705 l 1,3,-1
 592 0 l 1,4,-1
 507 0 l 1,5,-1
 429 220 l 1,6,-1
 137 220 l 1,7,-1
 42 0 l 1,0,-1
298 592 m 1,8,-1
 141 230 l 1,9,-1
 426 230 l 1,10,-1
 298 592 l 1,8,-1
238 786 m 0,11,12
 185 786 185 786 176 751 c 1,13,-1
 168 754 l 1,14,15
 173 784 173 784 194 808 c 0,16,17
 201 816 201 816 217 819 c 2,18,-1
 241 824 l 2,19,20
 258 827 258 827 303 816.5 c 128,-1,21
 348 806 348 806 384 798 c 0,22,23
 423 789 423 789 455 789 c 128,-1,24
 487 789 487 789 497 797.5 c 128,-1,25
 507 806 507 806 513 829 c 1,26,-1
 522 827 l 1,27,28
 511 773 511 773 481 757 c 0,29,30
 469 750 469 750 459 750 c 128,-1,31
 449 750 449 750 439 751 c 1,32,33
 416 751 416 751 387.5 759.5 c 128,-1,34
 359 768 359 768 357 768.5 c 128,-1,35
 355 769 355 769 352.5 769.5 c 128,-1,36
 350 770 350 770 313 778 c 128,-1,37
 276 786 276 786 238 786 c 0,11,12
EndSplineSet
EndChar

StartChar: Adieresis
Encoding: 196 196 132
Width: 622
GlyphClass: 2
Flags: W
LayerCount: 2
Fore
SplineSet
42 0 m 1,0,-1
 30 0 l 1,1,-1
 329 700 l 1,2,-1
 340 705 l 1,3,-1
 592 0 l 1,4,-1
 507 0 l 1,5,-1
 429 220 l 1,6,-1
 137 220 l 1,7,-1
 42 0 l 1,0,-1
298 592 m 1,8,-1
 141 230 l 1,9,-1
 426 230 l 1,10,-1
 298 592 l 1,8,-1
181 792 m 128,-1,12
 181 810 181 810 193 822.5 c 128,-1,13
 205 835 205 835 223 835 c 128,-1,14
 241 835 241 835 253.5 822.5 c 128,-1,15
 266 810 266 810 266 792 c 128,-1,16
 266 774 266 774 253.5 762 c 128,-1,17
 241 750 241 750 223 750 c 128,-1,18
 205 750 205 750 193 762 c 128,-1,11
 181 774 181 774 181 792 c 128,-1,12
399 792 m 128,-1,20
 399 810 399 810 411 822.5 c 128,-1,21
 423 835 423 835 441 835 c 128,-1,22
 459 835 459 835 471.5 822.5 c 128,-1,23
 484 810 484 810 484 792 c 128,-1,24
 484 774 484 774 471.5 762 c 128,-1,25
 459 750 459 750 441 750 c 128,-1,26
 423 750 423 750 411 762 c 128,-1,19
 399 774 399 774 399 792 c 128,-1,20
EndSplineSet
EndChar

StartChar: Aring
Encoding: 197 197 133
Width: 622
GlyphClass: 2
Flags: W
LayerCount: 2
Fore
SplineSet
42 0 m 1,0,-1
 30 0 l 1,1,-1
 329 700 l 1,2,-1
 340 705 l 1,3,-1
 592 0 l 1,4,-1
 507 0 l 1,5,-1
 429 220 l 1,6,-1
 137 220 l 1,7,-1
 42 0 l 1,0,-1
298 592 m 1,8,-1
 141 230 l 1,9,-1
 426 230 l 1,10,-1
 298 592 l 1,8,-1
254.5 773.5 m 128,-1,12
 221 796 221 796 221 837 c 128,-1,13
 221 878 221 878 255.5 903 c 128,-1,14
 290 928 290 928 341 928 c 128,-1,15
 392 928 392 928 425 905.5 c 128,-1,16
 458 883 458 883 458 841.5 c 128,-1,17
 458 800 458 800 424 775.5 c 128,-1,18
 390 751 390 751 339 751 c 128,-1,11
 288 751 288 751 254.5 773.5 c 128,-1,12
298 896.5 m 128,-1,20
 281 873 281 873 281 837.5 c 128,-1,21
 281 802 281 802 297.5 780.5 c 128,-1,22
 314 759 314 759 338.5 759 c 128,-1,23
 363 759 363 759 380.5 782.5 c 128,-1,24
 398 806 398 806 398 841.5 c 128,-1,25
 398 877 398 877 381 898.5 c 128,-1,26
 364 920 364 920 339.5 920 c 128,-1,19
 315 920 315 920 298 896.5 c 128,-1,20
EndSplineSet
EndChar

StartChar: AE
Encoding: 198 198 134
Width: 694
GlyphClass: 2
Flags: W
LayerCount: 2
Fore
SplineSet
637 700 m 1,0,-1
 637 690 l 1,1,-1
 412 690 l 1,2,-1
 412 390 l 1,3,-1
 614 390 l 1,4,-1
 614 380 l 1,5,-1
 412 380 l 1,6,-1
 412 10 l 1,7,-1
 659 10 l 1,8,-1
 659 0 l 1,9,-1
 329 0 l 1,10,-1
 329 220 l 1,11,-1
 137 220 l 1,12,-1
 42 0 l 1,13,-1
 30 0 l 1,14,-1
 329 700 l 1,15,-1
 637 700 l 1,0,-1
329 230 m 1,16,-1
 329 664 l 1,17,-1
 141 230 l 1,18,-1
 329 230 l 1,16,-1
EndSplineSet
EndChar

StartChar: Ccedilla
Encoding: 199 199 135
Width: 617
GlyphClass: 2
Flags: W
LayerCount: 2
Fore
SplineSet
399 -4 m 0,0,1
 506 -4 506 -4 582 23 c 1,2,-1
 579 33 l 1,3,-1
 556 26 l 2,4,5
 533 20 533 20 488 13 c 128,-1,6
 443 6 443 6 407.5 6 c 128,-1,7
 372 6 372 6 347 9 c 128,-1,8
 322 12 322 12 280 31.5 c 128,-1,9
 238 51 238 51 208.5 84 c 128,-1,10
 179 117 179 117 156 185.5 c 128,-1,11
 133 254 133 254 133 335 c 128,-1,12
 133 416 133 416 146 472 c 0,13,14
 168 571 168 571 222 622 c 1,15,16
 293 691 293 691 399 691 c 0,17,18
 481 691 481 691 549 664 c 1,19,-1
 552 674 l 1,20,-1
 534 681 l 2,21,22
 515 688 515 688 477 694.5 c 128,-1,23
 439 701 439 701 399 701 c 0,24,25
 259 701 259 701 160 628 c 1,26,27
 109 589 109 589 79.5 517.5 c 128,-1,28
 50 446 50 446 50 356 c 128,-1,29
 50 266 50 266 70 203 c 128,-1,30
 90 140 90 140 122 102 c 0,31,32
 212 -4 212 -4 399 -4 c 0,0,1
358 0 m 1,33,-1
 428 0 l 1,34,-1
 428 -126 l 2,35,36
 428 -131 428 -131 424 -143.5 c 128,-1,37
 420 -156 420 -156 412 -166 c 0,38,39
 391 -190 391 -190 342 -190 c 2,40,-1
 281 -190 l 1,41,-1
 281 -182 l 1,42,43
 299 -182 299 -182 309.5 -182 c 128,-1,44
 320 -182 320 -182 328 -178.5 c 128,-1,45
 336 -175 336 -175 342 -170 c 0,46,47
 358 -155 358 -155 358 -119 c 2,48,-1
 358 0 l 1,33,-1
EndSplineSet
EndChar

StartChar: Egrave
Encoding: 200 200 136
Width: 480
GlyphClass: 2
Flags: W
LayerCount: 2
Fore
SplineSet
428 700 m 1,0,-1
 428 690 l 1,1,-1
 113 690 l 1,2,-1
 113 390 l 1,3,-1
 405 390 l 1,4,-1
 405 380 l 1,5,-1
 113 380 l 1,6,-1
 113 10 l 1,7,-1
 450 10 l 1,8,-1
 450 0 l 1,9,-1
 30 0 l 1,10,-1
 30 700 l 1,11,-1
 428 700 l 1,0,-1
152 893 m 1,12,-1
 224 891 l 1,13,-1
 270 750 l 1,14,-1
 257 750 l 1,15,-1
 152 893 l 1,12,-1
EndSplineSet
EndChar

StartChar: Eacute
Encoding: 201 201 137
Width: 480
GlyphClass: 2
Flags: W
LayerCount: 2
Fore
SplineSet
428 700 m 1,0,-1
 428 690 l 1,1,-1
 113 690 l 1,2,-1
 113 390 l 1,3,-1
 405 390 l 1,4,-1
 405 380 l 1,5,-1
 113 380 l 1,6,-1
 113 10 l 1,7,-1
 450 10 l 1,8,-1
 450 0 l 1,9,-1
 30 0 l 1,10,-1
 30 700 l 1,11,-1
 428 700 l 1,0,-1
288 891 m 1,12,-1
 360 893 l 1,13,-1
 255 750 l 1,14,-1
 242 750 l 1,15,-1
 288 891 l 1,12,-1
EndSplineSet
EndChar

StartChar: Ecircumflex
Encoding: 202 202 138
Width: 480
GlyphClass: 2
Flags: W
LayerCount: 2
Fore
SplineSet
428 700 m 1,0,-1
 428 690 l 1,1,-1
 113 690 l 1,2,-1
 113 390 l 1,3,-1
 405 390 l 1,4,-1
 405 380 l 1,5,-1
 113 380 l 1,6,-1
 113 10 l 1,7,-1
 450 10 l 1,8,-1
 450 0 l 1,9,-1
 30 0 l 1,10,-1
 30 700 l 1,11,-1
 428 700 l 1,0,-1
391 770 m 1,12,-1
 370 750 l 1,13,-1
 249 880 l 1,14,-1
 133 755 l 1,15,-1
 126 760 l 1,16,-1
 263 905 l 1,17,-1
 391 770 l 1,12,-1
EndSplineSet
EndChar

StartChar: Edieresis
Encoding: 203 203 139
Width: 480
GlyphClass: 2
Flags: W
LayerCount: 2
Fore
SplineSet
428 700 m 1,0,-1
 428 690 l 1,1,-1
 113 690 l 1,2,-1
 113 390 l 1,3,-1
 405 390 l 1,4,-1
 405 380 l 1,5,-1
 113 380 l 1,6,-1
 113 10 l 1,7,-1
 450 10 l 1,8,-1
 450 0 l 1,9,-1
 30 0 l 1,10,-1
 30 700 l 1,11,-1
 428 700 l 1,0,-1
101 792 m 128,-1,13
 101 810 101 810 113 822.5 c 128,-1,14
 125 835 125 835 143 835 c 128,-1,15
 161 835 161 835 173.5 822.5 c 128,-1,16
 186 810 186 810 186 792 c 128,-1,17
 186 774 186 774 173.5 762 c 128,-1,18
 161 750 161 750 143 750 c 128,-1,19
 125 750 125 750 113 762 c 128,-1,12
 101 774 101 774 101 792 c 128,-1,13
319 792 m 128,-1,21
 319 810 319 810 331 822.5 c 128,-1,22
 343 835 343 835 361 835 c 128,-1,23
 379 835 379 835 391.5 822.5 c 128,-1,24
 404 810 404 810 404 792 c 128,-1,25
 404 774 404 774 391.5 762 c 128,-1,26
 379 750 379 750 361 750 c 128,-1,27
 343 750 343 750 331 762 c 128,-1,20
 319 774 319 774 319 792 c 128,-1,21
EndSplineSet
EndChar

StartChar: Igrave
Encoding: 204 204 140
Width: 318
GlyphClass: 2
Flags: W
LayerCount: 2
Fore
SplineSet
70 690 m 1,0,-1
 70 700 l 1,1,-1
 248 700 l 1,2,-1
 248 690 l 1,3,-1
 199 690 l 1,4,-1
 199 10 l 1,5,-1
 248 10 l 1,6,-1
 248 0 l 1,7,-1
 70 0 l 1,8,-1
 70 10 l 1,9,-1
 116 10 l 1,10,-1
 116 690 l 1,11,-1
 70 690 l 1,0,-1
52 892 m 1,12,-1
 124 890 l 1,13,-1
 170 749 l 1,14,-1
 157 749 l 1,15,-1
 52 892 l 1,12,-1
EndSplineSet
EndChar

StartChar: Iacute
Encoding: 205 205 141
Width: 318
GlyphClass: 2
Flags: W
LayerCount: 2
Fore
SplineSet
70 690 m 1,0,-1
 70 700 l 1,1,-1
 248 700 l 1,2,-1
 248 690 l 1,3,-1
 199 690 l 1,4,-1
 199 10 l 1,5,-1
 248 10 l 1,6,-1
 248 0 l 1,7,-1
 70 0 l 1,8,-1
 70 10 l 1,9,-1
 116 10 l 1,10,-1
 116 690 l 1,11,-1
 70 690 l 1,0,-1
178 890 m 1,12,-1
 250 892 l 1,13,-1
 145 749 l 1,14,-1
 132 749 l 1,15,-1
 178 890 l 1,12,-1
EndSplineSet
EndChar

StartChar: Icircumflex
Encoding: 206 206 142
Width: 318
GlyphClass: 2
Flags: W
LayerCount: 2
Fore
SplineSet
70 690 m 1,0,-1
 70 700 l 1,1,-1
 248 700 l 1,2,-1
 248 690 l 1,3,-1
 199 690 l 1,4,-1
 199 10 l 1,5,-1
 248 10 l 1,6,-1
 248 0 l 1,7,-1
 70 0 l 1,8,-1
 70 10 l 1,9,-1
 116 10 l 1,10,-1
 116 690 l 1,11,-1
 70 690 l 1,0,-1
291 769 m 1,12,-1
 270 749 l 1,13,-1
 149 879 l 1,14,-1
 33 754 l 1,15,-1
 26 759 l 1,16,-1
 163 904 l 1,17,-1
 291 769 l 1,12,-1
EndSplineSet
EndChar

StartChar: Idieresis
Encoding: 207 207 143
Width: 318
GlyphClass: 2
Flags: W
LayerCount: 2
Fore
SplineSet
70 690 m 1,0,-1
 70 700 l 1,1,-1
 248 700 l 1,2,-1
 248 690 l 1,3,-1
 199 690 l 1,4,-1
 199 10 l 1,5,-1
 248 10 l 1,6,-1
 248 0 l 1,7,-1
 70 0 l 1,8,-1
 70 10 l 1,9,-1
 116 10 l 1,10,-1
 116 690 l 1,11,-1
 70 690 l 1,0,-1
9 792 m 128,-1,13
 9 810 9 810 21 822.5 c 128,-1,14
 33 835 33 835 51 835 c 128,-1,15
 69 835 69 835 81.5 822.5 c 128,-1,16
 94 810 94 810 94 792 c 128,-1,17
 94 774 94 774 81.5 762 c 128,-1,18
 69 750 69 750 51 750 c 128,-1,19
 33 750 33 750 21 762 c 128,-1,12
 9 774 9 774 9 792 c 128,-1,13
227 792 m 128,-1,21
 227 810 227 810 239 822.5 c 128,-1,22
 251 835 251 835 269 835 c 128,-1,23
 287 835 287 835 299.5 822.5 c 128,-1,24
 312 810 312 810 312 792 c 128,-1,25
 312 774 312 774 299.5 762 c 128,-1,26
 287 750 287 750 269 750 c 128,-1,27
 251 750 251 750 239 762 c 128,-1,20
 227 774 227 774 227 792 c 128,-1,21
EndSplineSet
EndChar

StartChar: Eth
Encoding: 208 208 144
Width: 654
GlyphClass: 2
Flags: W
LayerCount: 2
Fore
SplineSet
70 368 m 1,0,-1
 70 376 l 1,1,-1
 102 376 l 1,2,-1
 102 699 l 1,3,-1
 182 699 l 1,4,5
 226 701 226 701 268.5 701 c 128,-1,6
 311 701 311 701 358.5 692 c 128,-1,7
 406 683 406 683 452.5 658.5 c 128,-1,8
 499 634 499 634 531.5 595.5 c 128,-1,9
 564 557 564 557 584 494 c 128,-1,10
 604 431 604 431 604 341 c 128,-1,11
 604 251 604 251 574.5 179.5 c 128,-1,12
 545 108 545 108 494 70 c 0,13,14
 395 -4 395 -4 255 -4 c 0,15,16
 206 -4 206 -4 152 0 c 1,17,-1
 102 0 l 1,18,-1
 102 368 l 1,19,-1
 70 368 l 1,0,-1
185 8 m 1,20,21
 206 6 206 6 238 6 c 128,-1,22
 270 6 270 6 286 7 c 128,-1,23
 302 8 302 8 330 15.5 c 128,-1,24
 358 23 358 23 382 36 c 128,-1,25
 406 49 406 49 432.5 74.5 c 128,-1,26
 459 100 459 100 478 135 c 0,27,28
 521 217 521 217 521 349 c 0,29,30
 521 443 521 443 498 511.5 c 128,-1,31
 475 580 475 580 445.5 613 c 128,-1,32
 416 646 416 646 374 665.5 c 128,-1,33
 332 685 332 685 307 688 c 128,-1,34
 282 691 282 691 249 691 c 128,-1,35
 216 691 216 691 185 688 c 1,36,-1
 185 376 l 1,37,-1
 366 376 l 1,38,-1
 366 368 l 1,39,-1
 185 368 l 1,40,-1
 185 8 l 1,20,21
EndSplineSet
EndChar

StartChar: Ntilde
Encoding: 209 209 145
Width: 593
GlyphClass: 2
Flags: W
LayerCount: 2
Fore
SplineSet
78 0 m 1,0,-1
 65 0 l 1,1,-1
 65 700 l 1,2,-1
 99 700 l 1,3,-1
 515 53 l 1,4,-1
 515 700 l 1,5,-1
 528 700 l 1,6,-1
 528 0 l 1,7,-1
 455 0 l 1,8,-1
 78 580 l 1,9,-1
 78 0 l 1,0,-1
218 787 m 0,10,11
 165 787 165 787 156 752 c 1,12,-1
 148 755 l 1,13,14
 153 785 153 785 174 809 c 0,15,16
 181 817 181 817 197 820 c 2,17,-1
 221 824 l 1,18,19
 238 828 238 828 283 817.5 c 128,-1,20
 328 807 328 807 364 799 c 0,21,22
 403 790 403 790 435 790 c 128,-1,23
 467 790 467 790 477 798.5 c 128,-1,24
 487 807 487 807 493 830 c 1,25,-1
 502 828 l 1,26,27
 491 774 491 774 461 758 c 0,28,29
 449 751 449 751 439 751 c 128,-1,30
 429 751 429 751 419 752 c 1,31,32
 396 752 396 752 367.5 760.5 c 128,-1,33
 339 769 339 769 337 769.5 c 128,-1,34
 335 770 335 770 332.5 770.5 c 128,-1,35
 330 771 330 771 293 779 c 128,-1,36
 256 787 256 787 218 787 c 0,10,11
EndSplineSet
EndChar

StartChar: Ograve
Encoding: 210 210 146
Width: 720
GlyphClass: 2
Flags: W
LayerCount: 2
Fore
SplineSet
50 333 m 0,0,1
 50 515 50 515 138.5 609.5 c 128,-1,2
 227 704 227 704 366 704 c 128,-1,3
 505 704 505 704 587.5 622 c 128,-1,4
 670 540 670 540 670 360 c 128,-1,5
 670 180 670 180 582 88 c 128,-1,6
 494 -4 494 -4 347 -4 c 0,7,8
 220 -4 220 -4 139 69 c 0,9,10
 97 107 97 107 73.5 174.5 c 128,-1,11
 50 242 50 242 50 333 c 0,0,1
197.5 604 m 128,-1,13
 133 514 133 514 133 340 c 128,-1,14
 133 166 133 166 194 86 c 128,-1,15
 255 6 255 6 356.5 6 c 128,-1,16
 458 6 458 6 522.5 96.5 c 128,-1,17
 587 187 587 187 587 359.5 c 128,-1,18
 587 532 587 532 525.5 613 c 128,-1,19
 464 694 464 694 363 694 c 128,-1,12
 262 694 262 694 197.5 604 c 128,-1,13
249 893 m 1,20,-1
 321 891 l 1,21,-1
 367 750 l 1,22,-1
 354 750 l 1,23,-1
 249 893 l 1,20,-1
EndSplineSet
EndChar

StartChar: Oacute
Encoding: 211 211 147
Width: 720
GlyphClass: 2
Flags: W
LayerCount: 2
Fore
SplineSet
50 333 m 0,0,1
 50 515 50 515 138.5 609.5 c 128,-1,2
 227 704 227 704 366 704 c 128,-1,3
 505 704 505 704 587.5 622 c 128,-1,4
 670 540 670 540 670 360 c 128,-1,5
 670 180 670 180 582 88 c 128,-1,6
 494 -4 494 -4 347 -4 c 0,7,8
 220 -4 220 -4 139 69 c 0,9,10
 97 107 97 107 73.5 174.5 c 128,-1,11
 50 242 50 242 50 333 c 0,0,1
197.5 604 m 128,-1,13
 133 514 133 514 133 340 c 128,-1,14
 133 166 133 166 194 86 c 128,-1,15
 255 6 255 6 356.5 6 c 128,-1,16
 458 6 458 6 522.5 96.5 c 128,-1,17
 587 187 587 187 587 359.5 c 128,-1,18
 587 532 587 532 525.5 613 c 128,-1,19
 464 694 464 694 363 694 c 128,-1,12
 262 694 262 694 197.5 604 c 128,-1,13
415 891 m 1,20,-1
 487 893 l 1,21,-1
 382 750 l 1,22,-1
 369 750 l 1,23,-1
 415 891 l 1,20,-1
EndSplineSet
EndChar

StartChar: Ocircumflex
Encoding: 212 212 148
Width: 720
GlyphClass: 2
Flags: W
LayerCount: 2
Fore
SplineSet
50 333 m 0,0,1
 50 515 50 515 138.5 609.5 c 128,-1,2
 227 704 227 704 366 704 c 128,-1,3
 505 704 505 704 587.5 622 c 128,-1,4
 670 540 670 540 670 360 c 128,-1,5
 670 180 670 180 582 88 c 128,-1,6
 494 -4 494 -4 347 -4 c 0,7,8
 220 -4 220 -4 139 69 c 0,9,10
 97 107 97 107 73.5 174.5 c 128,-1,11
 50 242 50 242 50 333 c 0,0,1
197.5 604 m 128,-1,13
 133 514 133 514 133 340 c 128,-1,14
 133 166 133 166 194 86 c 128,-1,15
 255 6 255 6 356.5 6 c 128,-1,16
 458 6 458 6 522.5 96.5 c 128,-1,17
 587 187 587 187 587 359.5 c 128,-1,18
 587 532 587 532 525.5 613 c 128,-1,19
 464 694 464 694 363 694 c 128,-1,12
 262 694 262 694 197.5 604 c 128,-1,13
508 770 m 1,20,-1
 487 750 l 1,21,-1
 366 880 l 1,22,-1
 250 755 l 1,23,-1
 243 760 l 1,24,-1
 380 905 l 1,25,-1
 508 770 l 1,20,-1
EndSplineSet
EndChar

StartChar: Otilde
Encoding: 213 213 149
Width: 720
GlyphClass: 2
Flags: W
LayerCount: 2
Fore
SplineSet
50 333 m 0,0,1
 50 515 50 515 138.5 609.5 c 128,-1,2
 227 704 227 704 366 704 c 128,-1,3
 505 704 505 704 587.5 622 c 128,-1,4
 670 540 670 540 670 360 c 128,-1,5
 670 180 670 180 582 88 c 128,-1,6
 494 -4 494 -4 347 -4 c 0,7,8
 220 -4 220 -4 139 69 c 0,9,10
 97 107 97 107 73.5 174.5 c 128,-1,11
 50 242 50 242 50 333 c 0,0,1
197.5 604 m 128,-1,13
 133 514 133 514 133 340 c 128,-1,14
 133 166 133 166 194 86 c 128,-1,15
 255 6 255 6 356.5 6 c 128,-1,16
 458 6 458 6 522.5 96.5 c 128,-1,17
 587 187 587 187 587 359.5 c 128,-1,18
 587 532 587 532 525.5 613 c 128,-1,19
 464 694 464 694 363 694 c 128,-1,12
 262 694 262 694 197.5 604 c 128,-1,13
265 786 m 0,20,21
 212 786 212 786 203 751 c 1,22,-1
 195 754 l 1,23,24
 200 784 200 784 221 808 c 0,25,26
 228 816 228 816 244 819 c 2,27,-1
 268 824 l 2,28,29
 285 827 285 827 330 816.5 c 128,-1,30
 375 806 375 806 412 798 c 0,31,32
 450 789 450 789 482 789 c 128,-1,33
 514 789 514 789 524 797.5 c 128,-1,34
 534 806 534 806 540 829 c 1,35,-1
 549 827 l 1,36,37
 538 773 538 773 508 757 c 0,38,39
 496 750 496 750 486 750 c 128,-1,40
 476 750 476 750 466 751 c 1,41,42
 443 751 443 751 414.5 759.5 c 128,-1,43
 386 768 386 768 384 768.5 c 128,-1,44
 382 769 382 769 379.5 769.5 c 128,-1,45
 377 770 377 770 340 778 c 128,-1,46
 303 786 303 786 265 786 c 0,20,21
EndSplineSet
EndChar

StartChar: Odieresis
Encoding: 214 214 150
Width: 720
GlyphClass: 2
Flags: W
LayerCount: 2
Fore
SplineSet
50 333 m 0,0,1
 50 515 50 515 138.5 609.5 c 128,-1,2
 227 704 227 704 366 704 c 128,-1,3
 505 704 505 704 587.5 622 c 128,-1,4
 670 540 670 540 670 360 c 128,-1,5
 670 180 670 180 582 88 c 128,-1,6
 494 -4 494 -4 347 -4 c 0,7,8
 220 -4 220 -4 139 69 c 0,9,10
 97 107 97 107 73.5 174.5 c 128,-1,11
 50 242 50 242 50 333 c 0,0,1
197.5 604 m 128,-1,13
 133 514 133 514 133 340 c 128,-1,14
 133 166 133 166 194 86 c 128,-1,15
 255 6 255 6 356.5 6 c 128,-1,16
 458 6 458 6 522.5 96.5 c 128,-1,17
 587 187 587 187 587 359.5 c 128,-1,18
 587 532 587 532 525.5 613 c 128,-1,19
 464 694 464 694 363 694 c 128,-1,12
 262 694 262 694 197.5 604 c 128,-1,13
208 792 m 128,-1,21
 208 810 208 810 220 822.5 c 128,-1,22
 232 835 232 835 250 835 c 128,-1,23
 268 835 268 835 280.5 822.5 c 128,-1,24
 293 810 293 810 293 792 c 128,-1,25
 293 774 293 774 280.5 762 c 128,-1,26
 268 750 268 750 250 750 c 128,-1,27
 232 750 232 750 220 762 c 128,-1,20
 208 774 208 774 208 792 c 128,-1,21
426 792 m 128,-1,29
 426 810 426 810 438 822.5 c 128,-1,30
 450 835 450 835 468 835 c 128,-1,31
 486 835 486 835 498.5 822.5 c 128,-1,32
 511 810 511 810 511 792 c 128,-1,33
 511 774 511 774 498.5 762 c 128,-1,34
 486 750 486 750 468 750 c 128,-1,35
 450 750 450 750 438 762 c 128,-1,28
 426 774 426 774 426 792 c 128,-1,29
EndSplineSet
EndChar

StartChar: multiply
Encoding: 215 215 151
Width: 632
GlyphClass: 2
Flags: W
LayerCount: 2
Fore
SplineSet
496 354 m 1,0,-1
 350 208 l 1,1,-1
 497 62 l 1,2,-1
 435 0 l 1,3,-1
 288 146 l 1,4,-1
 142 0 l 1,5,-1
 136 6 l 1,6,-1
 282 152 l 1,7,-1
 138 296 l 1,8,-1
 200 358 l 1,9,-1
 344 214 l 1,10,-1
 490 360 l 1,11,-1
 496 354 l 1,0,-1
EndSplineSet
EndChar

StartChar: Oslash
Encoding: 216 216 152
Width: 720
GlyphClass: 2
Flags: W
LayerCount: 2
Fore
SplineSet
97 0 m 1,0,-1
 90 5 l 1,1,-1
 597 700 l 1,2,-1
 604 695 l 1,3,-1
 97 0 l 1,0,-1
50 333 m 0,4,5
 50 515 50 515 138.5 609.5 c 128,-1,6
 227 704 227 704 366 704 c 128,-1,7
 505 704 505 704 587.5 622 c 128,-1,8
 670 540 670 540 670 360 c 128,-1,9
 670 180 670 180 582 88 c 128,-1,10
 494 -4 494 -4 347 -4 c 0,11,12
 220 -4 220 -4 139 69 c 0,13,14
 97 107 97 107 73.5 174.5 c 128,-1,15
 50 242 50 242 50 333 c 0,4,5
197.5 604 m 128,-1,17
 133 514 133 514 133 340 c 128,-1,18
 133 166 133 166 194 86 c 128,-1,19
 255 6 255 6 356.5 6 c 128,-1,20
 458 6 458 6 522.5 96.5 c 128,-1,21
 587 187 587 187 587 359.5 c 128,-1,22
 587 532 587 532 525.5 613 c 128,-1,23
 464 694 464 694 363 694 c 128,-1,16
 262 694 262 694 197.5 604 c 128,-1,17
EndSplineSet
EndChar

StartChar: Ugrave
Encoding: 217 217 153
Width: 554
GlyphClass: 2
Flags: W
LayerCount: 2
Fore
SplineSet
511 700 m 1,0,-1
 524 700 l 1,1,-1
 524 300 l 2,2,3
 524 143 524 143 462 69.5 c 128,-1,4
 400 -4 400 -4 300 -4 c 0,5,6
 237 -4 237 -4 193 7.5 c 128,-1,7
 149 19 149 19 110 50 c 0,8,9
 30 112 30 112 30 300 c 2,10,-1
 30 700 l 1,11,-1
 113 700 l 1,12,-1
 113 301 l 2,13,14
 113 119 113 119 168 58 c 0,15,16
 196 28 196 28 226.5 17 c 128,-1,17
 257 6 257 6 300 6 c 0,18,19
 396 6 396 6 453.5 76.5 c 128,-1,20
 511 147 511 147 511 301 c 2,21,-1
 511 700 l 1,0,-1
202 893 m 1,22,-1
 274 891 l 1,23,-1
 320 750 l 1,24,-1
 307 750 l 1,25,-1
 202 893 l 1,22,-1
EndSplineSet
EndChar

StartChar: Uacute
Encoding: 218 218 154
Width: 554
GlyphClass: 2
Flags: W
LayerCount: 2
Fore
SplineSet
511 700 m 1,0,-1
 524 700 l 1,1,-1
 524 300 l 2,2,3
 524 143 524 143 462 69.5 c 128,-1,4
 400 -4 400 -4 300 -4 c 0,5,6
 237 -4 237 -4 193 7.5 c 128,-1,7
 149 19 149 19 110 50 c 0,8,9
 30 112 30 112 30 300 c 2,10,-1
 30 700 l 1,11,-1
 113 700 l 1,12,-1
 113 301 l 2,13,14
 113 119 113 119 168 58 c 0,15,16
 196 28 196 28 226.5 17 c 128,-1,17
 257 6 257 6 300 6 c 0,18,19
 396 6 396 6 453.5 76.5 c 128,-1,20
 511 147 511 147 511 301 c 2,21,-1
 511 700 l 1,0,-1
348 891 m 1,22,-1
 420 893 l 1,23,-1
 315 750 l 1,24,-1
 302 750 l 1,25,-1
 348 891 l 1,22,-1
EndSplineSet
EndChar

StartChar: Ucircumflex
Encoding: 219 219 155
Width: 554
GlyphClass: 2
Flags: W
LayerCount: 2
Fore
SplineSet
511 700 m 1,0,-1
 524 700 l 1,1,-1
 524 300 l 2,2,3
 524 143 524 143 462 69.5 c 128,-1,4
 400 -4 400 -4 300 -4 c 0,5,6
 237 -4 237 -4 193 7.5 c 128,-1,7
 149 19 149 19 110 50 c 0,8,9
 30 112 30 112 30 300 c 2,10,-1
 30 700 l 1,11,-1
 113 700 l 1,12,-1
 113 301 l 2,13,14
 113 119 113 119 168 58 c 0,15,16
 196 28 196 28 226.5 17 c 128,-1,17
 257 6 257 6 300 6 c 0,18,19
 396 6 396 6 453.5 76.5 c 128,-1,20
 511 147 511 147 511 301 c 2,21,-1
 511 700 l 1,0,-1
441 771 m 1,22,-1
 420 751 l 1,23,-1
 299 881 l 1,24,-1
 183 756 l 1,25,-1
 176 761 l 1,26,-1
 313 906 l 1,27,-1
 441 771 l 1,22,-1
EndSplineSet
EndChar

StartChar: Udieresis
Encoding: 220 220 156
Width: 554
GlyphClass: 2
Flags: W
LayerCount: 2
Fore
SplineSet
511 700 m 1,0,-1
 524 700 l 1,1,-1
 524 300 l 2,2,3
 524 143 524 143 462 69.5 c 128,-1,4
 400 -4 400 -4 300 -4 c 0,5,6
 237 -4 237 -4 193 7.5 c 128,-1,7
 149 19 149 19 110 50 c 0,8,9
 30 112 30 112 30 300 c 2,10,-1
 30 700 l 1,11,-1
 113 700 l 1,12,-1
 113 301 l 2,13,14
 113 119 113 119 168 58 c 0,15,16
 196 28 196 28 226.5 17 c 128,-1,17
 257 6 257 6 300 6 c 0,18,19
 396 6 396 6 453.5 76.5 c 128,-1,20
 511 147 511 147 511 301 c 2,21,-1
 511 700 l 1,0,-1
161 792 m 128,-1,23
 161 810 161 810 173 822.5 c 128,-1,24
 185 835 185 835 203 835 c 128,-1,25
 221 835 221 835 233.5 822.5 c 128,-1,26
 246 810 246 810 246 792 c 128,-1,27
 246 774 246 774 233.5 762 c 128,-1,28
 221 750 221 750 203 750 c 128,-1,29
 185 750 185 750 173 762 c 128,-1,22
 161 774 161 774 161 792 c 128,-1,23
379 792 m 128,-1,31
 379 810 379 810 391 822.5 c 128,-1,32
 403 835 403 835 421 835 c 128,-1,33
 439 835 439 835 451.5 822.5 c 128,-1,34
 464 810 464 810 464 792 c 128,-1,35
 464 774 464 774 451.5 762 c 128,-1,36
 439 750 439 750 421 750 c 128,-1,37
 403 750 403 750 391 762 c 128,-1,30
 379 774 379 774 379 792 c 128,-1,31
EndSplineSet
EndChar

